<svg xmlns="http://www.w3.org/2000/svg" width="41" height="40" fill="none" viewBox="0 0 41 40">
    <path fill="#43B02A" d="M7.591 30.657v-.146c0-1.168.146-2.336.292-3.504v-.146h-.146c-1.022-.438-2.044-.876-3.066-1.46h-.145v.146c-.73 1.314-1.168 2.774-1.606 4.088v.146h.146c1.46.438 2.92.73 4.525.876zM10.657 10.365s0-.146 0 0c-.876 0-1.752 0-2.628.146l.438 2.628c.584-1.022 1.314-2.044 2.19-2.774zM7.591 31.68c-1.46-.293-2.628-.439-3.941-.73l-.438-.147.146.292c1.168 1.752 2.627 3.358 4.233 4.672l.292.146v-.292c-.292-1.314-.292-2.628-.292-3.942zM13.723 1.022c-1.606.584-3.066 1.314-4.38 2.19 1.022.146 2.044.438 3.066.73.438-1.022.876-2.044 1.314-2.92zM20.292 0c-.73 0-1.606 0-2.336.146 1.022.73 2.044 1.606 3.066 2.482l.73.584-.73.73c-.584.584-1.314 1.313-1.898 2.043l-.292.292c.438 0 1.022-.146 1.46-.146 7.591 0 13.723 6.132 13.723 13.723 0 7.591-6.132 13.723-13.723 13.723-2.628 0-5.11-.73-7.153-2.044-1.022.146-2.044.146-3.066.146h-1.46c0 1.606.146 3.212.438 4.817C12.263 38.686 16.058 40 20.292 40c11.095 0 20-8.905 20-20s-8.905-20-20-20z"/>
    <path fill="#43B02A" d="M17.664 4.671c.438-.438.876-.876 1.168-1.314-.876-.73-1.898-1.46-2.92-2.19-.584 1.022-1.168 2.19-1.606 3.358.876.292 1.752.73 2.628 1.168.292-.584.584-.876.73-1.022zM3.942 16.059h.146c.876-.73 1.897-1.314 2.92-1.898h.145v-.146c-.292-1.168-.584-2.336-.73-3.504v-.146h-.146c-1.46.292-2.92.73-4.38 1.168h-.145v.146c.73 1.752 1.46 3.066 2.19 4.38zM3.796 18.102C2.628 19.124 1.606 20 .584 21.022l-.146.146.146.146c1.022.876 2.19 1.752 3.358 2.482l.146.146v-.146c.583-.876 1.167-1.898 1.751-2.774v-.146l.146-.146c-.876-.73-1.46-1.606-2.19-2.628zM11.679 30.657h.292l-.292-.291c-1.022-.876-2.044-1.898-2.774-3.066l-.292-.146v.146c-.146 1.022-.146 2.044-.292 3.066v.146H9.927c.584.291 1.168.291 1.752.145zM10.949 8.613c.146-1.022.438-1.898.73-2.92-1.168-.438-2.482-.73-3.796-.876-.146 1.314-.146 2.628 0 3.941 1.022-.145 2.044-.145 3.066-.145zM12.847 8.467c.876-.584 1.752-1.022 2.773-1.314l-2.19-.876c-.145.73-.291 1.46-.583 2.19zM3.504 24.817c-1.168-.73-2.19-1.46-3.066-2.19l-.146-.292v.292c.292 1.898.73 3.796 1.606 5.548l.146.292.146-.292c.292-1.022.73-2.19 1.314-3.358zM6.131 5.84C4.964 7.006 3.941 8.32 3.066 9.78c1.022-.292 2.044-.584 3.065-.73V5.839zM6.715 19.854v-.292c0-1.168.292-2.482.584-3.504l.146-.292-.292.146c-.73.438-1.606 1.022-2.335 1.46l-.146.146.146.146c.584.73 1.021 1.46 1.605 2.19h.292zM6.861 21.897v-.291l-.146.291c-.584.73-1.022 1.606-1.606 2.482v.146h.146l2.628 1.314.292.146-.146-.292c-.584-1.314-1.022-2.482-1.168-3.796zM2.92 17.08v-.145c-.584-1.022-1.168-2.044-1.606-3.212l-.146-.292-.146.292C.438 15.475.146 17.373 0 19.417v.291l.292-.145c.876-.876 1.752-1.752 2.628-2.482z"/>
</svg>
