<svg xmlns="http://www.w3.org/2000/svg" width="24" height="22" fill="none"><path fill="#000" d="M21.75 5H16.5V1.625A1.14 1.14 0 0015.375.5h-6.75A1.11 1.11 0 007.5 1.625V5H2.25A2.25 2.25 0 000 7.25v12a2.22 2.22 0 002.25 2.25h19.5A2.25 2.25 0 0024 19.25v-12C24 6.031 22.969 5 21.75 5zM9 2h6v3H9V2zm13.5 17.25c0 .422-.375.75-.75.75H2.25a.74.74 0 01-.75-.75V12.5H9v1.875c0 .656.469 1.125 1.125 1.125h3.75A1.11 1.11 0 0015 14.375V12.5h7.5v6.75zM10.5 14v-1.5h3V14h-3zm12-3h-21V7.25c0-.375.328-.75.75-.75h19.5c.375 0 .75.375.75.75V11z"/></svg>