<svg xmlns="http://www.w3.org/2000/svg" width="25" height="25" fill="none"><path fill="#000" d="M24.297 4.594l-3.89-3.89C19.983.28 19.374 0 18.811 0H9.25C7.984.047 7 1.031 7 2.297V7.78c-.281 0-.563-.047-1.172-.234h-.234a.895.895 0 00-.61.234c-.843.89-.796.844-1.968 1.172a.929.929 0 00-.657.656c-.28 1.172-.28 1.125-1.125 1.97a.974.974 0 00-.234.937c.328 1.125.328 1.125 0 2.25a.976.976 0 00.234.937c.844.844.844.844 1.125 1.969a.93.93 0 00.657.656c.093.047.14.047.234.047v4.875c0 .281.094.516.328.656.235.14.516.14.75.047L7 22.593l2.625 1.36c.14.047.234.047.375.047h12.75c1.219 0 2.25-.984 2.25-2.203V6.187c0-.562-.281-1.171-.703-1.593zM19 1.547c.094.047.234.094.328.187l3.938 3.938c.093.094.14.234.187.375H19v-4.5zM2.547 14.859c.234-1.03.234-1.406 0-2.437.703-.75.89-1.078 1.172-2.11 1.031-.28 1.312-.468 2.062-1.218.469.14.797.187 1.219.187.375 0 .703-.047 1.172-.187.703.75 1.031.937 2.062 1.219.282 1.03.422 1.312 1.172 2.109-.281 1.031-.281 1.406 0 2.437-.703.75-.89 1.079-1.172 2.11-.703.187-1.125.328-1.78.89A3.836 3.836 0 007 17.579c-.563 0-1.031.093-1.5.327-.656-.562-1.078-.75-1.781-.937-.281-1.032-.422-1.313-1.172-2.11zm4.781 6.235a.912.912 0 00-.703 0l-1.875.984v-2.86.048a.843.843 0 00.61.234c.187 0 .327-.047.515-.094.328-.234.703-.328 1.125-.328.375 0 .75.094 1.078.281.188.141.328.141.516.141.234 0 .422-.047.61-.234l.046-.047v2.86l-1.922-.985zm16.172.703c0 .375-.375.75-.75.75h-12v-4.172c.047 0 .094 0 .188-.047a.929.929 0 00.656-.656c.281-1.172.281-1.125 1.125-1.969a.976.976 0 00.234-.937c-.328-1.125-.328-1.125 0-2.25a.977.977 0 00-.234-.938c-.844-.844-.844-.844-1.125-1.969a.929.929 0 00-.656-.656c-1.126-.328-1.126-.281-1.97-1.172-.14-.14-.327-.187-.468-.234v-5.25c0-.422.328-.797.75-.797h8.25v4.922c0 .61.469 1.078 1.125 1.078H23.5v14.297z"/></svg>