<?xml version="1.0" encoding="UTF-8" standalone="no"?>
<svg
   data-name="Layer 1"
   viewBox="0 0 89.999809 90"
   x="0px"
   y="0px"
   version="1.1"
   id="svg26"
   sodipodi:docname="corporate_training.svg"
   inkscape:version="1.2.2 (732a01da63, 2022-12-09)"
   xml:space="preserve"
   width="89.999809"
   height="90"
   xmlns:inkscape="http://www.inkscape.org/namespaces/inkscape"
   xmlns:sodipodi="http://sodipodi.sourceforge.net/DTD/sodipodi-0.dtd"
   xmlns="http://www.w3.org/2000/svg"
   xmlns:svg="http://www.w3.org/2000/svg"
   xmlns:rdf="http://www.w3.org/1999/02/22-rdf-syntax-ns#"
   xmlns:cc="http://creativecommons.org/ns#"
   xmlns:dc="http://purl.org/dc/elements/1.1/"><defs
     id="defs30" /><sodipodi:namedview
     id="namedview28"
     pagecolor="#ffffff"
     bordercolor="#000000"
     borderopacity="0.25"
     inkscape:showpageshadow="2"
     inkscape:pageopacity="0.0"
     inkscape:pagecheckerboard="0"
     inkscape:deskcolor="#d1d1d1"
     showgrid="false"
     inkscape:zoom="4.5481108"
     inkscape:cx="37.04835"
     inkscape:cy="56.836786"
     inkscape:window-width="1920"
     inkscape:window-height="991"
     inkscape:window-x="-9"
     inkscape:window-y="-9"
     inkscape:window-maximized="1"
     inkscape:current-layer="svg26" /><title
     id="title2">9</title><path
     d="m 83.029233,69.125 a 7.88361,7.88361 0 1 0 -7.88367,7.88379 7.89226,7.89226 0 0 0 7.88367,-7.88379 z m -12.16773,0 a 4.28412,4.28412 0 1 1 4.28406,4.28418 4.289,4.289 0 0 1 -4.28406,-4.28418 z"
     id="path4" /><path
     d="m 2.9518128,51.78418 a 1.7994,1.7994 0 0 0 1.62,1.01562 h 5.9697302 a 1.7919,1.7919 0 0 0 0.56054,-0.08886 1.78139,1.78139 0 0 0 0.55958,0.08886 h 22.70949 A 1.79952,1.79952 0 0 0 36.170813,51 V 40.65674 c 0.86426,0.89941 1.9668,2.04687 3.37488,3.51221 a 5.73931,5.73931 0 0 0 3.64648,1.9541 5.39358,5.39358 0 0 0 4.15515,-1.40625 l 11.72158,-10.75049 a 5.39915,5.39915 0 0 0 -7.30469,-7.95264 l -7.2937,6.69433 -2.64062,-3.58594 a 12.29219,12.29219 0 0 0 -9.85816,-4.98193 H 13.892023 A 10.68649,10.68649 0 0 0 3.7681228,31.33983 L 0.47625278,42.24414 a 5.36725,5.36725 0 0 0 0.06543,4.56006 z m 0.827,-8.103 a 1.90347,1.90347 0 0 0 0.10645,-0.271 l 3.31645,-10.98928 a 7.03838,7.03838 0 0 1 6.6903102,-4.68115 h 18.07971 a 8.67861,8.67861 0 0 1 6.95972,3.51757 l 3.83008,5.2002 a 1.79969,1.79969 0 0 0 2.666,0.25879 l 8.77028,-8.05031 a 1.84621,1.84621 0 0 1 1.29,-0.46778 1.7983,1.7983 0 0 1 1.14648,3.11524 l -11.73116,10.76076 a 1.78128,1.78128 0 0 1 -1.3584,0.46631 c -0.42676,-0.04639 -0.65137,-0.13526 -1.44531,-0.90772 0,0 -6.15711,-6.40869 -6.38171,-6.647 a 1.79941,1.79941 0 0 0 -3.14637,1.19385 V 49.2002 h -19.11 v -8.61036 a 1.79975,1.79975 0 1 0 -3.5994902,0 v 8.61036 h -4.16111 l -1.916,-3.9585 a 1.77975,1.77975 0 0 1 -0.00588,-1.56055 z"
     id="path6" /><path
     d="m 45.001813,77.36621 c -7.36523,0 -13.4956,4.582 -14.6571,10.57037 A 1.73253,1.73253 0 0 0 32.041563,90 h 0.14892 a 1.763,1.763 0 0 0 1.70333,-1.46344 c 0.87378,-4.288 5.52246,-7.57074 11.10791,-7.57074 5.58448,0 10.2323,3.28272 11.106,7.57074 A 1.76274,1.76274 0 0 0 57.810813,90 h 0.149 a 1.7327,1.7327 0 0 0 1.697,-2.06335 c -1.16115,-5.98835 -7.29079,-10.57044 -14.655,-10.57044 z"
     id="path8" /><path
     d="M 60.489563,87.93658 A 1.7326,1.7326 0 0 0 62.186583,90 h 0.14892 a 1.76274,1.76274 0 0 0 1.70313,-1.46344 c 0.87378,-4.288 5.5227,-7.57074 11.10791,-7.57074 5.58447,0 10.23242,3.28272 11.10608,7.57074 A 1.76283,1.76283 0 0 0 87.955743,90 h 0.14907 a 1.73258,1.73258 0 0 0 1.697,-2.06335 c -1.16137,-5.98835 -7.29089,-10.57044 -14.65527,-10.57044 -7.36511,0 -13.49561,4.58203 -14.65698,10.57037 z"
     id="path10" /><path
     d="m 23.014953,21.12158 a 9.28,9.28 0 1 0 -9.28014,-9.27978 9.29028,9.29028 0 0 0 9.28014,9.27978 z m 0,-14.96045 a 5.68042,5.68042 0 1 1 -5.68067,5.68067 5.68729,5.68729 0 0 1 5.68067,-5.68067 z"
     id="path12" /><path
     d="m 22.739563,69.125 a 7.88367,7.88367 0 1 0 -7.88367,7.88379 7.89234,7.89234 0 0 0 7.88367,-7.88379 z m -12.16773,0 a 4.28406,4.28406 0 1 1 4.28406,4.28418 4.28893,4.28893 0 0 1 -4.28408,-4.28418 z"
     id="path14" /><path
     d="M 0.20074278,87.93665 A 1.73258,1.73258 0 0 0 1.8978128,90 h 0.14893 a 1.76274,1.76274 0 0 0 1.70307,-1.46344 c 0.87378,-4.288 5.52161,-7.57074 11.1060802,-7.57074 5.58533,0 10.23328,3.28272 11.10693,7.57074 A 1.763,1.763 0 0 0 27.666073,90 h 0.14893 a 1.73261,1.73261 0 0 0 1.697,-2.06342 c -1.16162,-5.98834 -7.29175,-10.57037 -14.65613,-10.57037 -7.3643802,0 -13.4938802,4.58209 -14.65513022,10.57044 z"
     id="path16" /><path
     d="m 45.000813,61.24121 a 7.88379,7.88379 0 1 0 7.88352,7.88379 7.89226,7.89226 0 0 0 -7.88352,-7.88379 z m 0,12.168 a 4.28418,4.28418 0 1 1 4.284,-4.28421 4.289,4.289 0 0 1 -4.284,4.28418 z"
     id="path18" /><path
     d="m 88.200013,0 h -49.2412 a 1.79981,1.79981 0 0 0 0,3.59961 h 47.44139 v 45.13232 h -31.44165 a 1.79981,1.79981 0 0 0 0,3.59961 h 33.24146 a 1.79962,1.79962 0 0 0 1.7998,-1.7998 V 1.7998 A 1.79962,1.79962 0 0 0 88.200013,0 Z"
     id="path20" /><metadata
     id="metadata373"><rdf:RDF><cc:Work
         rdf:about=""><dc:title>9</dc:title></cc:Work></rdf:RDF></metadata></svg>
