<svg height="17" viewBox="0 0 134 17" width="134" xmlns="http://www.w3.org/2000/svg"><g fill="none"><path d="m13.113 10.59 1.13 5.97a.372.372 0 0 1 -.14.365.36.36 0 0 1 -.385.033l-4.998-2.62-5 2.618a.36.36 0 0 1 -.386-.033.372.372 0 0 1 -.138-.368l1.163-5.962-4.24-3.859a.373.373 0 0 1 -.104-.378.366.366 0 0 1 .29-.26l5.59-.915 2.519-4.981a.364.364 0 0 1 .326-.2c.137 0 .262.077.324.2l2.521 4.98 5.588.916a.373.373 0 0 1 .186.638l-4.245 3.855zm58.625 0 1.13 5.97a.372.372 0 0 1 -.14.365.36.36 0 0 1 -.385.033l-4.998-2.62-5 2.618a.36.36 0 0 1 -.386-.033.372.372 0 0 1 -.138-.368l1.163-5.962-4.24-3.859a.373.373 0 0 1 -.104-.378.366.366 0 0 1 .29-.26l5.59-.915 2.52-4.981a.364.364 0 0 1 .324-.2c.137 0 .262.077.324.2l2.521 4.98 5.588.916a.373.373 0 0 1 .186.638l-4.245 3.855zm-29.312 0 1.13 5.97a.372.372 0 0 1 -.14.365.36.36 0 0 1 -.385.033l-4.999-2.62-5 2.618a.36.36 0 0 1 -.385-.033.372.372 0 0 1 -.138-.368l1.163-5.962-4.24-3.859a.373.373 0 0 1 -.104-.378.366.366 0 0 1 .29-.26l5.589-.915 2.52-4.981a.364.364 0 0 1 .326-.2c.136 0 .261.077.323.2l2.521 4.98 5.588.916a.373.373 0 0 1 .186.638l-4.244 3.855zm57.578 0 1.13 5.97a.372.372 0 0 1 -.14.365.36.36 0 0 1 -.385.033l-4.999-2.62-4.999 2.618a.36.36 0 0 1 -.386-.033.372.372 0 0 1 -.138-.368l1.163-5.962-4.24-3.859a.373.373 0 0 1 -.104-.378.366.366 0 0 1 .29-.26l5.589-.915 2.521-4.981a.364.364 0 0 1 .324-.2c.136 0 .261.077.324.2l2.52 4.98 5.588.916a.373.373 0 0 1 .186.638l-4.244 3.855z" fill="#000" opacity=".5"/><path d="m129.316 10.59 1.13 5.97a.372.372 0 0 1 -.14.365.36.36 0 0 1 -.385.033l-4.998-2.62-5 2.618a.36.36 0 0 1 -.386-.033.372.372 0 0 1 -.138-.368l1.163-5.962-4.24-3.859a.373.373 0 0 1 -.104-.378.366.366 0 0 1 .29-.26l5.59-.915 2.52-4.98a.364.364 0 0 1 .324-.201c.137 0 .262.077.324.2l2.521 4.98 5.588.916a.373.373 0 0 1 .186.638l-4.245 3.855z" fill="#dbe1e4"/><path d="m125.625 14.707-.702-.368-5 2.617a.36.36 0 0 1 -.386-.033.372.372 0 0 1 -.138-.368l1.163-5.962-4.24-3.859a.373.373 0 0 1 -.104-.378.366.366 0 0 1 .29-.26l5.59-.915 2.52-4.98a.364.364 0 0 1 .324-.201c.137 0 .262.077.324.2l.359.71z" fill="#000" opacity=".5"/></g></svg>