<?xml version="1.0" encoding="UTF-8" standalone="no"?>
<svg
   version="1.0"
   x="0px"
   y="0px"
   viewBox="0 0 119.41293 112.10831"
   xml:space="preserve"
   id="svg191"
   sodipodi:docname="courses.svg"
   inkscape:version="1.2.2 (732a01da63, 2022-12-09)"
   width="119.41293"
   height="112.10831"
   xmlns:inkscape="http://www.inkscape.org/namespaces/inkscape"
   xmlns:sodipodi="http://sodipodi.sourceforge.net/DTD/sodipodi-0.dtd"
   xmlns="http://www.w3.org/2000/svg"
   xmlns:svg="http://www.w3.org/2000/svg"><defs
     id="defs195" /><sodipodi:namedview
     id="namedview193"
     pagecolor="#ffffff"
     bordercolor="#000000"
     borderopacity="0.25"
     inkscape:showpageshadow="2"
     inkscape:pageopacity="0.0"
     inkscape:pagecheckerboard="0"
     inkscape:deskcolor="#d1d1d1"
     showgrid="false"
     inkscape:zoom="2.5125"
     inkscape:cx="24.875622"
     inkscape:cy="73.034826"
     inkscape:window-width="1920"
     inkscape:window-height="991"
     inkscape:window-x="-9"
     inkscape:window-y="-9"
     inkscape:window-maximized="1"
     inkscape:current-layer="svg191" /><g
     id="g185"
     style="font-variation-settings:normal;opacity:1;vector-effect:none;fill:#000000;fill-opacity:1;stroke-width:1;stroke-linecap:butt;stroke-linejoin:miter;stroke-miterlimit:4;stroke-dasharray:none;stroke-dashoffset:0;stroke-opacity:1;-inkscape-stroke:none;stop-color:#000000;stop-opacity:1"
     transform="matrix(0.97879455,0,0,0.99646234,-2.9363837,-7.7661148)"><path
       d="m 123,22.8 h -11.3 v -8.3 l -1,-0.6 C 105.9,11.2 96.8,8 87.1,7.8 76.5,7.6 68.8,12.2 64.6,14.7 64.4,14.8 64.3,14.9 64.1,15 L 63.7,14.8 C 59.7,12.5 51.2,7.6 40.2,7.8 30.6,8 21.6,11.3 16.7,14 l -1,0.6 v 8.3 H 5 c -1.1,0 -2,0.9 -2,2 v 90.7 c 0,1.1 0.9,2 2,2 h 55.7 c 0.8,1.6 2.4,2.7 4.2,2.7 1.8,0 3.5,-1.1 4.2,-2.7 H 123 c 1.1,0 2,-0.9 2,-2 V 24.8 c 0,-1.1 -0.9,-2 -2,-2 z m -36,-11 c 9.9,0.2 17.8,3.7 20.7,5.1 V 98.6 C 105.4,98.2 103.1,97.8 101,97.5 97.8,97 95,96.5 93.3,96.2 92,95.9 90.7,95.7 89.5,95.5 79.7,93.6 74.3,92.5 68.4,95.3 67.3,95.8 66.3,96.4 65.5,97 V 18.9 c 0.4,-0.2 0.8,-0.4 1.2,-0.7 3.8,-2.3 10.9,-6.6 20.3,-6.4 z m -67.3,5.1 c 2.8,-1.4 10.7,-4.9 20.7,-5.1 0.2,0 0.5,0 0.7,0 9.3,0 16.7,4.1 20.4,6.3 v 78.8 c -0.8,-0.6 -1.6,-1.1 -2.4,-1.6 -5.6,-3 -11.3,-2 -19,-0.5 L 38.9,95 c -2.7,0.5 -5.4,1 -7.9,1.4 -4.3,0.8 -8.1,1.5 -11.2,2.1 V 16.9 Z M 121,113.5 H 68 c -0.1,0 -0.1,0 -0.2,0 -0.1,0 -0.1,0 -0.2,0 -1.1,0 -2,0.9 -2,2 0,0.4 -0.3,0.7 -0.7,0.7 -0.3,0 -0.5,-0.2 -0.6,-0.4 0,-0.1 0,-0.2 0,-0.3 0,-1.1 -0.9,-2 -2,-2 H 7 V 26.8 h 8.7 v 76.7 l 2.4,-0.5 c 3.3,-0.7 8,-1.5 13.4,-2.5 2.6,-0.5 5.2,-0.9 8,-1.4 l 1.2,-0.2 c 7.5,-1.4 12,-2.2 16.4,0.1 2.2,1.2 3.5,2.6 4.3,3.5 v 0 0 h 4 v -0.1 c 1,-1.1 2.4,-2.4 4.7,-3.5 4.7,-2.3 9.4,-1.3 18.6,0.5 1.2,0.2 2.5,0.5 3.8,0.7 1.8,0.3 4.6,0.8 7.8,1.3 2.7,0.4 5.8,1 9,1.5 l 2.3,0.4 V 26.8 h 9.3 v 86.7 z"
       id="path183"
       style="font-variation-settings:normal;vector-effect:none;fill:#000000;fill-opacity:1;stroke-width:1;stroke-linecap:butt;stroke-linejoin:miter;stroke-miterlimit:4;stroke-dasharray:none;stroke-dashoffset:0;stroke-opacity:1;-inkscape-stroke:none;stop-color:#000000;stop-opacity:1" /></g></svg>
