<svg height="31" viewBox="0 0 84 31" width="84" xmlns="http://www.w3.org/2000/svg" xmlns:xlink="http://www.w3.org/1999/xlink"><mask id="a" fill="#fff"><path d="m.093.427h28.221v13.92h-28.22z" fill="#fff" fill-rule="evenodd"/></mask><g fill="#1a1919" fill-rule="evenodd" opacity=".5"><path d="m0 7.401c0-4.164 3.217-6.974 7.472-6.974 3.562 0 5.354 2.062 6.168 3.922l-3.542 1.637c-.346-1.051-1.405-1.96-2.626-1.96-1.975 0-3.299 1.495-3.299 3.375s1.324 3.375 3.299 3.375c1.221 0 2.28-.91 2.626-1.96l3.542 1.617c-.794 1.799-2.606 3.941-6.168 3.941-4.255 0-7.472-2.83-7.472-6.973m24.675 0c0-1.88-1.283-3.376-3.257-3.376-1.975 0-3.258 1.496-3.258 3.376s1.283 3.375 3.258 3.375c1.974 0 3.257-1.496 3.257-3.375zm-10.688 0c0-4.144 3.237-6.974 7.43-6.974 4.194 0 7.431 2.83 7.431 6.974 0 4.143-3.237 6.973-7.43 6.973-4.194 0-7.431-2.83-7.431-6.973zm16.127 1.192v-7.943h4.174v7.802c0 1.293.855 2.324 2.545 2.324 1.669 0 2.524-1.03 2.524-2.324v-7.802h4.173v7.923c0 3.355-2.117 5.801-6.697 5.801-4.581 0-6.719-2.446-6.719-5.78m23.87-3.336c0-.727-.651-1.05-1.343-1.05h-2.504v2.122h2.504c.692 0 1.343-.324 1.343-1.072zm-.489 8.874-1.872-4.245h-1.486v4.245h-4.113v-13.482h7.248c3.176 0 4.886 2.102 4.886 4.629 0 2.324-1.364 3.557-2.444 4.082l2.464 4.77h-4.683zm5.95-1.9 2.138-3.032a6.353 6.353 0 0 0 4.377 1.738c.774 0 1.507-.202 1.507-.727 0-1.294-7.574.02-7.574-5.296 0-2.284 1.914-4.468 5.64-4.468 2.219 0 4.214.627 5.761 1.88l-2.198 2.89c-1.18-.889-2.708-1.333-3.991-1.333-.814 0-1.038.263-1.038.606 0 1.274 7.553.182 7.553 5.195 0 2.971-2.22 4.69-5.864 4.69-2.89 0-4.865-.85-6.311-2.143m13.768 1.9v-13.482h10.301v3.557h-6.19v1.334h6.048v3.559h-6.047v1.475h6.189v3.558h-10.301m-64.113 6.847c0-.727-.651-1.05-1.343-1.05h-2.505v2.122h2.505c.692 0 1.343-.324 1.343-1.072zm-.488 8.874-1.873-4.245h-1.487v4.245h-4.112v-13.484h7.247c3.177 0 4.887 2.103 4.887 4.63 0 2.324-1.364 3.557-2.443 4.082l2.463 4.77h-4.682zm6.991 0v-13.484h10.301v3.558h-6.189v1.334h6.047v3.557h-6.047v1.476h6.19v3.558h-10.303"/><path d="m8.054 5.279c0-.728-.55-1.072-1.242-1.072h-2.606v2.123h2.606c.692 0 1.242-.344 1.242-1.051zm-7.96 8.853v-13.482h7.246c3.176 0 4.887 2.102 4.887 4.629 0 2.506-1.71 4.608-4.887 4.608h-3.134v4.245h-4.113zm24.046-6.731c0-1.88-1.283-3.376-3.256-3.376-1.975 0-3.258 1.496-3.258 3.376s1.283 3.375 3.258 3.375c1.973 0 3.257-1.496 3.257-3.375zm-10.688 0c0-4.144 3.237-6.974 7.432-6.974 4.193 0 7.43 2.83 7.43 6.974 0 4.143-3.237 6.973-7.43 6.973-4.195 0-7.432-2.83-7.432-6.973z" mask="url(#a)" transform="translate(28.3 15.722)"/><path d="m66.244 20.98c0-.727-.652-1.05-1.344-1.05h-2.505v2.122h2.505c.692 0 1.344-.324 1.344-1.072zm-.49 8.874-1.872-4.245h-1.487v4.245h-4.112v-13.484h7.248c3.176 0 4.886 2.103 4.886 4.63 0 2.324-1.364 3.557-2.443 4.082l2.464 4.77h-4.683zm10.146 0v-9.925h-3.645v-3.558h11.381v3.558h-3.624v9.925z"/></g></svg>