<?xml version="1.0" encoding="utf-8"?>
<!-- Generator: Adobe Illustrator 27.9.0, SVG Export Plug-In . SVG Version: 6.00 Build 0)  -->
<svg version="1.1" id="Layer_1" xmlns="http://www.w3.org/2000/svg" xmlns:xlink="http://www.w3.org/1999/xlink" x="0px" y="0px"
	 viewBox="0 0 895.82 774.41" style="enable-background:new 0 0 895.82 774.41;" xml:space="preserve">
<style type="text/css">
	.st0{fill:url(#SVGID_1_);stroke:#FFFFFF;stroke-miterlimit:10;}
	.st1{fill:#FFFFFF;}
	.st2{font-family:'Lato-Regular';}
	.st3{font-size:12px;}
	.st4{fill:url(#SVGID_00000086679601903656052260000015487446240659145652_);stroke:#FFFFFF;stroke-miterlimit:10;}
	.st5{fill:url(#SVGID_00000114781258424835082480000003542144756839706292_);stroke:#FFFFFF;stroke-miterlimit:10;}
	.st6{fill:url(#SVGID_00000147207996783583101250000015128888367618998178_);stroke:#FFFFFF;stroke-miterlimit:10;}
	.st7{fill:url(#SVGID_00000163040984747334219610000014151356725942121401_);stroke:#FFFFFF;stroke-miterlimit:10;}
	.st8{fill:url(#SVGID_00000031906068635149341580000004011720367015164549_);stroke:#FFFFFF;stroke-miterlimit:10;}
	.st9{fill:url(#SVGID_00000158023389890741299550000003845346066186940831_);stroke:#FFFFFF;stroke-miterlimit:10;}
	.st10{fill:url(#SVGID_00000026144836048360749280000004590095619682030522_);stroke:#FFFFFF;stroke-miterlimit:10;}
	.st11{fill:none;stroke:#000000;stroke-miterlimit:10;}
	.st12{font-family:'Lato-Bold';}
	.st13{fill:url(#SVGID_00000015353478778907575040000011844645347053589406_);stroke:#FFFFFF;stroke-miterlimit:10;}
</style>
<linearGradient id="SVGID_1_" gradientUnits="userSpaceOnUse" x1="13" y1="739.3732" x2="707.7324" y2="739.3732">
	<stop  offset="0" style="stop-color:#007194"/>
	<stop  offset="1" style="stop-color:#059FB7"/>
</linearGradient>
<polygon class="st0" points="681.73,765.23 13,765.23 13,713.52 681.73,713.52 707.73,739.37 "/>
<text transform="matrix(1 0 0 1 25.7603 747.4815)" class="st1 st2 st3">We develop courses that lead to industry certifications or credentials, enhancing the skills and credentials of the workforce.</text>
<linearGradient id="SVGID_00000062157911599222135530000001719945217388858779_" gradientUnits="userSpaceOnUse" x1="13" y1="653.3732" x2="737.7324" y2="653.3732">
	<stop  offset="0" style="stop-color:#007194"/>
	<stop  offset="1" style="stop-color:#059FB7"/>
</linearGradient>
<polygon style="fill:url(#SVGID_00000062157911599222135530000001719945217388858779_);stroke:#FFFFFF;stroke-miterlimit:10;" points="
	711.73,679.23 13,679.23 13,627.52 711.73,627.52 737.73,653.37 "/>
<text transform="matrix(1 0 0 1 25.7603 661.4815)" class="st1 st2 st3">We offer training modules focused on improving communication, leadership, emotional intelligence, and other essential soft skills.</text>
<linearGradient id="SVGID_00000008858331847692437200000006094645302011193250_" gradientUnits="userSpaceOnUse" x1="13" y1="567.3732" x2="747.7324" y2="567.3732">
	<stop  offset="0" style="stop-color:#007194"/>
	<stop  offset="1" style="stop-color:#059FB7"/>
</linearGradient>
<polygon style="fill:url(#SVGID_00000008858331847692437200000006094645302011193250_);stroke:#FFFFFF;stroke-miterlimit:10;" points="
	721.73,593.23 13,593.23 13,541.52 721.73,541.52 747.73,567.37 "/>
<text transform="matrix(1 0 0 1 25.7603 575.4815)" class="st1 st2 st3">We develop comprehensive onboarding courses for new employees, fostering understanding of job roles and organizational culture.</text>
<linearGradient id="SVGID_00000073688609811218796990000008242567049054477246_" gradientUnits="userSpaceOnUse" x1="13" y1="480.3732" x2="727.7324" y2="480.3732">
	<stop  offset="0" style="stop-color:#007194"/>
	<stop  offset="1" style="stop-color:#059FB7"/>
</linearGradient>
<polygon style="fill:url(#SVGID_00000073688609811218796990000008242567049054477246_);stroke:#FFFFFF;stroke-miterlimit:10;" points="
	701.73,506.23 13,506.23 13,454.52 701.73,454.52 727.73,480.37 "/>
<text transform="matrix(1 0 0 1 25.7603 488.4815)" class="st1 st2 st3">We provide translating services to localize training content into multiple languages to adapt it to suit different cultural contexts.</text>
<linearGradient id="SVGID_00000141454719453911315810000011861756277420136072_" gradientUnits="userSpaceOnUse" x1="13" y1="393.3732" x2="878.7324" y2="393.3732">
	<stop  offset="0" style="stop-color:#007194"/>
	<stop  offset="1" style="stop-color:#059FB7"/>
</linearGradient>
<polygon style="fill:url(#SVGID_00000141454719453911315810000011861756277420136072_);stroke:#FFFFFF;stroke-miterlimit:10;" points="
	852.73,419.23 13,419.23 13,367.52 852.73,367.52 878.73,393.37 "/>
<text transform="matrix(1 0 0 1 25.7603 401.4815)" class="st1 st2 st3">We provide in-depth analytics and reporting features to track learner progress, identify knowledge gaps, and measure the effectiveness of training initiatives.</text>
<linearGradient id="SVGID_00000070798010441163414200000018181771198413317285_" gradientUnits="userSpaceOnUse" x1="13" y1="308.3732" x2="857.7324" y2="308.3732">
	<stop  offset="0" style="stop-color:#007194"/>
	<stop  offset="1" style="stop-color:#059FB7"/>
</linearGradient>
<polygon style="fill:url(#SVGID_00000070798010441163414200000018181771198413317285_);stroke:#FFFFFF;stroke-miterlimit:10;" points="
	831.73,334.23 13,334.23 13,282.52 831.73,282.52 857.73,308.37 "/>
<text transform="matrix(1 0 0 1 25.7603 316.4815)" class="st1 st2 st3">We offer training content that is broken down into bite-sized modules, making it easier for employees to consume information in short, focused sessions.</text>
<linearGradient id="SVGID_00000134948466021794560630000015059445792908922029_" gradientUnits="userSpaceOnUse" x1="13" y1="224.3732" x2="667.7324" y2="224.3732">
	<stop  offset="0" style="stop-color:#007194"/>
	<stop  offset="1" style="stop-color:#059FB7"/>
</linearGradient>
<polygon style="fill:url(#SVGID_00000134948466021794560630000015059445792908922029_);stroke:#FFFFFF;stroke-miterlimit:10;" points="
	641.73,250.23 13,250.23 13,198.52 641.73,198.52 667.73,224.37 "/>
<text transform="matrix(1 0 0 1 25.7603 232.4815)" class="st1 st2 st3">We provide mobile-accessible training materials and courses, enabling convenient on-the-go learning for employees.</text>
<linearGradient id="SVGID_00000082326863971829075950000011353141740596528319_" gradientUnits="userSpaceOnUse" x1="13" y1="55.3732" x2="813.5634" y2="55.3732">
	<stop  offset="0" style="stop-color:#007194"/>
	<stop  offset="1" style="stop-color:#059FB7"/>
</linearGradient>
<polygon style="fill:url(#SVGID_00000082326863971829075950000011353141740596528319_);stroke:#FFFFFF;stroke-miterlimit:10;" points="
	788.02,81.23 13,81.23 13,29.52 788.02,29.52 813.56,55.37 "/>
<g>
	<path class="st1" d="M317.68,24.29c0,7.7-6.3,14-14,14H19.01c-7.7,0-14-6.3-14-14V21.3c0-7.7,6.3-14,14-14h284.68
		c7.7,0,14,6.3,14,14V24.29z"/>
	<path class="st11" d="M317.68,24.29c0,7.7-6.3,14-14,14H19.01c-7.7,0-14-6.3-14-14V21.3c0-7.7,6.3-14,14-14h284.68
		c7.7,0,14,6.3,14,14V24.29z"/>
</g>
<text transform="matrix(1 0 0 1 20.6036 27.3311)" class="st12 st3">Learning Management System (LMS) Implementation</text>
<text transform="matrix(1 0 0 1 25.7603 63.4815)" class="st1 st2 st3">We offer LMS solutions for comprehensive training program management, providing easy access to materials, assessments, and progress tracking. </text>
<linearGradient id="SVGID_00000091713332802808185650000005559884660751037105_" gradientUnits="userSpaceOnUse" x1="13" y1="140.3732" x2="887.7324" y2="140.3732">
	<stop  offset="0" style="stop-color:#007194"/>
	<stop  offset="1" style="stop-color:#059FB7"/>
</linearGradient>
<polygon style="fill:url(#SVGID_00000091713332802808185650000005559884660751037105_);stroke:#FFFFFF;stroke-miterlimit:10;" points="
	861.73,166.23 13,166.23 13,114.52 861.73,114.52 887.73,140.37 "/>
<g>
	<path class="st1" d="M199.68,109.29c0,7.7-6.3,14-14,14H19.01c-7.7,0-14-6.3-14-14v-2.99c0-7.7,6.3-14,14-14h166.68
		c7.7,0,14,6.3,14,14V109.29z"/>
	<path class="st11" d="M199.68,109.29c0,7.7-6.3,14-14,14H19.01c-7.7,0-14-6.3-14-14v-2.99c0-7.7,6.3-14,14-14h166.68
		c7.7,0,14,6.3,14,14V109.29z"/>
</g>
<text transform="matrix(1 0 0 1 20.6036 113.3311)" class="st12 st3">Custom Content Development</text>
<text transform="matrix(1 0 0 1 25.7603 148.4815)" class="st1 st2 st3">We develop customized, interactive training content, including modules, videos, simulations, quizzes, and assessments, aligned with organizations&apos; unique goals.</text>
<g>
	<path class="st1" d="M188.68,193.29c0,7.7-6.3,14-14,14H19.01c-7.7,0-14-6.3-14-14v-2.99c0-7.7,6.3-14,14-14h155.68
		c7.7,0,14,6.3,14,14V193.29z"/>
	<path class="st11" d="M188.68,193.29c0,7.7-6.3,14-14,14H19.01c-7.7,0-14-6.3-14-14v-2.99c0-7.7,6.3-14,14-14h155.68
		c7.7,0,14,6.3,14,14V193.29z"/>
</g>
<text transform="matrix(1 0 0 1 20.6036 197.3311)" class="st12 st3">Mobile Learning (mLearning)</text>
<g>
	<path class="st1" d="M109.68,277.29c0,7.7-6.3,14-14,14H19.01c-7.7,0-14-6.3-14-14v-2.99c0-7.7,6.3-14,14-14h76.68
		c7.7,0,14,6.3,14,14V277.29z"/>
	<path class="st11" d="M109.68,277.29c0,7.7-6.3,14-14,14H19.01c-7.7,0-14-6.3-14-14v-2.99c0-7.7,6.3-14,14-14h76.68
		c7.7,0,14,6.3,14,14V277.29z"/>
</g>
<text transform="matrix(1 0 0 1 20.6036 281.3311)" class="st12 st3">Microlearning</text>
<g>
	<path class="st1" d="M162.68,362.29c0,7.7-6.3,14-14,14H19.01c-7.7,0-14-6.3-14-14v-2.99c0-7.7,6.3-14,14-14h129.68
		c7.7,0,14,6.3,14,14V362.29z"/>
	<path class="st11" d="M162.68,362.29c0,7.7-6.3,14-14,14H19.01c-7.7,0-14-6.3-14-14v-2.99c0-7.7,6.3-14,14-14h129.68
		c7.7,0,14,6.3,14,14V362.29z"/>
</g>
<text transform="matrix(1 0 0 1 20.6036 366.3311)" class="st12 st3">Analytics and Reporting</text>
<g>
	<path class="st1" d="M223.68,449.29c0,7.7-6.3,14-14,14H19.01c-7.7,0-14-6.3-14-14v-2.99c0-7.7,6.3-14,14-14h190.68
		c7.7,0,14,6.3,14,14V449.29z"/>
	<path class="st11" d="M223.68,449.29c0,7.7-6.3,14-14,14H19.01c-7.7,0-14-6.3-14-14v-2.99c0-7.7,6.3-14,14-14h190.68
		c7.7,0,14,6.3,14,14V449.29z"/>
</g>
<text transform="matrix(1 0 0 1 20.6036 453.3311)" class="st12 st3">Language and Localization Services</text>
<g>
	<path class="st1" d="M154.68,536.29c0,7.7-6.3,14-14,14H19.01c-7.7,0-14-6.3-14-14v-2.99c0-7.7,6.3-14,14-14h121.68
		c7.7,0,14,6.3,14,14V536.29z"/>
	<path class="st11" d="M154.68,536.29c0,7.7-6.3,14-14,14H19.01c-7.7,0-14-6.3-14-14v-2.99c0-7.7,6.3-14,14-14h121.68
		c7.7,0,14,6.3,14,14V536.29z"/>
</g>
<text transform="matrix(1 0 0 1 20.6036 540.3311)" class="st12 st3">Onboarding Programs</text>
<g>
	<path class="st1" d="M161.68,622.29c0,7.7-6.3,14-14,14H19.01c-7.7,0-14-6.3-14-14v-2.99c0-7.7,6.3-14,14-14h128.68
		c7.7,0,14,6.3,14,14V622.29z"/>
	<path class="st11" d="M161.68,622.29c0,7.7-6.3,14-14,14H19.01c-7.7,0-14-6.3-14-14v-2.99c0-7.7,6.3-14,14-14h128.68
		c7.7,0,14,6.3,14,14V622.29z"/>
</g>
<text transform="matrix(1 0 0 1 20.6036 626.3311)" class="st12 st3">Soft Skills Development</text>
<g>
	<path class="st1" d="M252.68,708.29c0,7.7-6.3,14-14,14H19.01c-7.7,0-14-6.3-14-14v-2.99c0-7.7,6.3-14,14-14h219.68
		c7.7,0,14,6.3,14,14V708.29z"/>
	<path class="st11" d="M252.68,708.29c0,7.7-6.3,14-14,14H19.01c-7.7,0-14-6.3-14-14v-2.99c0-7.7,6.3-14,14-14h219.68
		c7.7,0,14,6.3,14,14V708.29z"/>
</g>
<text transform="matrix(1 0 0 1 20.6036 712.3311)" class="st12 st3">Certification and Credentialing Programs</text>
</svg>
