<?xml version="1.0" encoding="utf-8"?>
<!-- Generator: Adobe Illustrator 27.9.0, SVG Export Plug-In . SVG Version: 6.00 Build 0)  -->
<svg version="1.1" id="Layer_1" xmlns="http://www.w3.org/2000/svg" xmlns:xlink="http://www.w3.org/1999/xlink" x="0px" y="0px"
	 viewBox="0 0 895.82 533.04" style="enable-background:new 0 0 895.82 533.04;" xml:space="preserve">
<style type="text/css">
	.st0{fill:#B3E3FA;}
	.st1{fill:none;stroke:#FFFFFF;stroke-miterlimit:10;}
	.st2{fill:#686868;}
	.st3{fill:#BBE0C3;}
	.st4{fill:#E4B6D5;}
	.st5{fill:#F8B4B4;}
	.st6{fill:#BABADD;}
	.st7{fill:#E2E1B5;}
	.st8{fill:#FFFFFF;}
	.st9{font-family:'Lato-Bold';}
	.st10{font-size:12px;}
	.st11{font-family:'Lato-Regular';}
</style>
<g>
	<path class="st0" d="M293.62,112.59c0,6.6-5.4,12-12,12H18.96c-6.6,0-12-5.4-12-12V18.73c0-6.6,5.4-12,12-12h262.66
		c6.6,0,12,5.4,12,12V112.59z"/>
	<path class="st1" d="M293.62,112.59c0,6.6-5.4,12-12,12H18.96c-6.6,0-12-5.4-12-12V18.73c0-6.6,5.4-12,12-12h262.66
		c6.6,0,12,5.4,12,12V112.59z"/>
</g>
<g>
	<path class="st2" d="M18.96,53.76c-6.6,0-12-5.41-12-12.01V18.73c0-6.6,5.4-12,12-12h262.66c6.6,0,12,5.4,12,12v23.21
		c0,6.6-5.4,12-12,11.99L18.96,53.76z"/>
</g>
<g>
	<path class="st3" d="M591.91,112.59c0,6.6-5.4,12-12,12H317.25c-6.6,0-12-5.4-12-12V18.73c0-6.6,5.4-12,12-12h262.66
		c6.6,0,12,5.4,12,12V112.59z"/>
	<path class="st1" d="M591.91,112.59c0,6.6-5.4,12-12,12H317.25c-6.6,0-12-5.4-12-12V18.73c0-6.6,5.4-12,12-12h262.66
		c6.6,0,12,5.4,12,12V112.59z"/>
</g>
<g>
	<path class="st2" d="M317.25,53.76c-6.6,0-12-5.41-12-12.01V18.73c0-6.6,5.4-12,12-12h262.66c6.6,0,12,5.4,12,12v23.21
		c0,6.6-5.4,12-12,11.99L317.25,53.76z"/>
</g>
<g>
	<path class="st4" d="M890.2,112.59c0,6.6-5.4,12-12,12H615.54c-6.6,0-12-5.4-12-12V18.73c0-6.6,5.4-12,12-12H878.2
		c6.6,0,12,5.4,12,12V112.59z"/>
	<path class="st1" d="M890.2,112.59c0,6.6-5.4,12-12,12H615.54c-6.6,0-12-5.4-12-12V18.73c0-6.6,5.4-12,12-12H878.2
		c6.6,0,12,5.4,12,12V112.59z"/>
</g>
<g>
	<path class="st2" d="M615.54,53.76c-6.6,0-12-5.41-12-12.01V18.73c0-6.6,5.4-12,12-12H878.2c6.6,0,12,5.4,12,12v23.21
		c0,6.6-5.4,12-12,11.99L615.54,53.76z"/>
</g>
<g>
	<path class="st5" d="M293.62,241.96c0,6.6-5.4,12-12,12H18.96c-6.6,0-12-5.4-12-12v-94.98c0-6.6,5.4-12,12-12h262.66
		c6.6,0,12,5.4,12,12V241.96z"/>
	<path class="st1" d="M293.62,241.96c0,6.6-5.4,12-12,12H18.96c-6.6,0-12-5.4-12-12v-94.98c0-6.6,5.4-12,12-12h262.66
		c6.6,0,12,5.4,12,12V241.96z"/>
</g>
<g>
	<path class="st2" d="M18.96,182.01c-6.6,0-12-5.41-12-12.01v-23.02c0-6.6,5.4-12,12-12h262.66c6.6,0,12,5.4,12,12v23.21
		c0,6.6-5.4,12-12,11.99L18.96,182.01z"/>
</g>
<g>
	<path class="st6" d="M591.91,241.96c0,6.6-5.4,12-12,12H317.25c-6.6,0-12-5.4-12-12v-94.98c0-6.6,5.4-12,12-12h262.66
		c6.6,0,12,5.4,12,12V241.96z"/>
	<path class="st1" d="M591.91,241.96c0,6.6-5.4,12-12,12H317.25c-6.6,0-12-5.4-12-12v-94.98c0-6.6,5.4-12,12-12h262.66
		c6.6,0,12,5.4,12,12V241.96z"/>
</g>
<g>
	<path class="st2" d="M317.25,182.01c-6.6,0-12-5.41-12-12.01v-23.02c0-6.6,5.4-12,12-12h262.66c6.6,0,12,5.4,12,12v23.21
		c0,6.6-5.4,12-12,11.99L317.25,182.01z"/>
</g>
<g>
	<path class="st7" d="M890.2,241.96c0,6.6-5.4,12-12,12H615.54c-6.6,0-12-5.4-12-12v-94.98c0-6.6,5.4-12,12-12H878.2
		c6.6,0,12,5.4,12,12V241.96z"/>
	<path class="st1" d="M890.2,241.96c0,6.6-5.4,12-12,12H615.54c-6.6,0-12-5.4-12-12v-94.98c0-6.6,5.4-12,12-12H878.2
		c6.6,0,12,5.4,12,12V241.96z"/>
</g>
<g>
	<path class="st2" d="M615.54,182.01c-6.6,0-12-5.41-12-12.01v-23.02c0-6.6,5.4-12,12-12H878.2c6.6,0,12,5.4,12,12v23.21
		c0,6.6-5.4,12-12,11.99L615.54,182.01z"/>
</g>
<g>
	<path class="st4" d="M293.62,371.51c0,6.6-5.4,12-12,12H18.96c-6.6,0-12-5.4-12-12v-95.32c0-6.6,5.4-12,12-12h262.66
		c6.6,0,12,5.4,12,12V371.51z"/>
	<path class="st1" d="M293.62,371.51c0,6.6-5.4,12-12,12H18.96c-6.6,0-12-5.4-12-12v-95.32c0-6.6,5.4-12,12-12h262.66
		c6.6,0,12,5.4,12,12V371.51z"/>
</g>
<g>
	<path class="st2" d="M18.96,311.22c-6.6,0-12-5.41-12-12.01v-23.02c0-6.6,5.4-12,12-12h262.66c6.6,0,12,5.4,12,12v23.21
		c0,6.6-5.4,12-12,11.99L18.96,311.22z"/>
</g>
<g>
	<path class="st3" d="M591.91,371.51c0,6.6-5.4,12-12,12H317.25c-6.6,0-12-5.4-12-12v-95.32c0-6.6,5.4-12,12-12h262.66
		c6.6,0,12,5.4,12,12V371.51z"/>
	<path class="st1" d="M591.91,371.51c0,6.6-5.4,12-12,12H317.25c-6.6,0-12-5.4-12-12v-95.32c0-6.6,5.4-12,12-12h262.66
		c6.6,0,12,5.4,12,12V371.51z"/>
</g>
<g>
	<path class="st2" d="M317.25,311.22c-6.6,0-12-5.41-12-12.01v-23.02c0-6.6,5.4-12,12-12h262.66c6.6,0,12,5.4,12,12v23.21
		c0,6.6-5.4,12-12,11.99L317.25,311.22z"/>
</g>
<g>
	<path class="st0" d="M890.2,371.51c0,6.6-5.4,12-12,12H615.54c-6.6,0-12-5.4-12-12v-95.32c0-6.6,5.4-12,12-12H878.2
		c6.6,0,12,5.4,12,12V371.51z"/>
	<path class="st1" d="M890.2,371.51c0,6.6-5.4,12-12,12H615.54c-6.6,0-12-5.4-12-12v-95.32c0-6.6,5.4-12,12-12H878.2
		c6.6,0,12,5.4,12,12V371.51z"/>
</g>
<g>
	<path class="st2" d="M615.54,311.22c-6.6,0-12-5.41-12-12.01v-23.02c0-6.6,5.4-12,12-12H878.2c6.6,0,12,5.4,12,12v23.21
		c0,6.6-5.4,12-12,11.99L615.54,311.22z"/>
</g>
<g>
	<path class="st7" d="M293.62,514.55c0,6.6-5.4,12-12,12H18.96c-6.6,0-12-5.4-12-12V405.43c0-6.6,5.4-12,12-12h262.66
		c6.6,0,12,5.4,12,12V514.55z"/>
	<path class="st1" d="M293.62,514.55c0,6.6-5.4,12-12,12H18.96c-6.6,0-12-5.4-12-12V405.43c0-6.6,5.4-12,12-12h262.66
		c6.6,0,12,5.4,12,12V514.55z"/>
</g>
<g>
	<path class="st2" d="M18.96,440.46c-6.6,0-12-5.41-12-12.01v-23.02c0-6.6,5.4-12,12-12h262.66c6.6,0,12,5.4,12,12v23.21
		c0,6.6-5.4,12-12,11.99L18.96,440.46z"/>
</g>
<g>
	<path class="st6" d="M591.91,514.55c0,6.6-5.4,12-12,12H317.25c-6.6,0-12-5.4-12-12V405.43c0-6.6,5.4-12,12-12h262.66
		c6.6,0,12,5.4,12,12V514.55z"/>
	<path class="st1" d="M591.91,514.55c0,6.6-5.4,12-12,12H317.25c-6.6,0-12-5.4-12-12V405.43c0-6.6,5.4-12,12-12h262.66
		c6.6,0,12,5.4,12,12V514.55z"/>
</g>
<g>
	<path class="st2" d="M317.25,440.46c-6.6,0-12-5.41-12-12.01v-23.02c0-6.6,5.4-12,12-12h262.66c6.6,0,12,5.4,12,12v23.21
		c0,6.6-5.4,12-12,11.99L317.25,440.46z"/>
</g>
<g>
	<path class="st5" d="M890.2,514.55c0,6.6-5.4,12-12,12H615.54c-6.6,0-12-5.4-12-12V405.43c0-6.6,5.4-12,12-12H878.2
		c6.6,0,12,5.4,12,12V514.55z"/>
	<path class="st1" d="M890.2,514.55c0,6.6-5.4,12-12,12H615.54c-6.6,0-12-5.4-12-12V405.43c0-6.6,5.4-12,12-12H878.2
		c6.6,0,12,5.4,12,12V514.55z"/>
</g>
<g>
	<path class="st2" d="M615.54,440.46c-6.6,0-12-5.41-12-12.01v-23.02c0-6.6,5.4-12,12-12H878.2c6.6,0,12,5.4,12,12v23.21
		c0,6.6-5.4,12-12,11.99L615.54,440.46z"/>
</g>
<text transform="matrix(1 0 0 1 21.8169 34.4087)" class="st8 st9 st10">Learning Management System (LMS) Integration</text>
<text transform="matrix(1 0 0 1 379.8169 34.4087)" class="st8 st9 st10">Curriculum Development</text>
<text transform="matrix(1 0 0 1 663.8169 34.4087)" class="st8 st9 st10">E-Learning Course Development</text>
<text transform="matrix(1 0 0 1 75.8169 163.4087)" class="st8 st9 st10">Mobile Learning Solutions</text>
<text transform="matrix(1 0 0 1 383.8169 163.4087)" class="st8 st9 st10">Microlearning Modules</text>
<text transform="matrix(1 0 0 1 708.8169 163.4087)" class="st8 st9 st10">Gamification</text>
<text transform="matrix(1 0 0 1 87.8169 292.4087)" class="st8 st9 st10">Video-based Learning</text>
<text transform="matrix(1 0 0 1 356.8169 292.4087)" class="st8 st9 st10">Assessment and Evaluation Tools</text>
<text transform="matrix(1 0 0 1 688.8169 292.4087)" class="st8 st9 st10">Content Localization</text>
<text transform="matrix(1 0 0 1 44.8169 421.4087)" class="st8 st9 st10">Content Migration and Transformation</text>
<text transform="matrix(1 0 0 1 356.8169 421.4087)" class="st8 st9 st10">Educational Game Development</text>
<text transform="matrix(1 0 0 1 654.8169 421.4087)" class="st8 st9 st10">Content Updates and Maintenance</text>
<text transform="matrix(1 0 0 1 15.7827 75.5586)"><tspan x="0" y="0" class="st11 st10">Our custom content can be effortlessly integrated </tspan><tspan x="0" y="17" class="st11 st10">into your LMS for streamlined learning experiences.</tspan></text>
<text transform="matrix(1 0 0 1 313.7827 75.5586)"><tspan x="0" y="0" class="st11 st10">Our expert instructional designers craft customized </tspan><tspan x="0" y="17" class="st11 st10">curricula that precisely align with your </tspan><tspan x="0" y="34" class="st11 st10">organization&apos;s learning goals and requirements.</tspan></text>
<text transform="matrix(1 0 0 1 612.7827 75.5586)"><tspan x="0" y="0" class="st11 st10">We design engaging, market-specific e-learning </tspan><tspan x="0" y="17" class="st11 st10">courses to captivate and cater to diverse learner </tspan><tspan x="0" y="34" class="st11 st10">preferences.</tspan></text>
<text transform="matrix(1 0 0 1 15.7827 203.5586)"><tspan x="0" y="0" class="st11 st10">Our content and apps help learners to embrace the </tspan><tspan x="0" y="17" class="st11 st10">convenience of mobile learning and empower them </tspan><tspan x="0" y="34" class="st11 st10">to access resources anytime, anywhere.</tspan></text>
<text transform="matrix(1 0 0 1 313.7827 203.5586)"><tspan x="0" y="0" class="st11 st10">Our microlearning modules help learners boost </tspan><tspan x="0" y="17" class="st11 st10">knowledge retention with bite-sized learning </tspan><tspan x="0" y="34" class="st11 st10">modules that fit into even the busiest schedules.</tspan></text>
<text transform="matrix(1 0 0 1 612.7827 203.5586)"><tspan x="0" y="0" class="st11 st10">Our gamified content is designed to motivate </tspan><tspan x="0" y="17" class="st11 st10">learners and make education and training an </tspan><tspan x="0" y="34" class="st11 st10">enjoyable experience.</tspan></text>
<text transform="matrix(1 0 0 1 15.7827 333.5586)"><tspan x="0" y="0" class="st11 st10">Our instructional and educational videos, ranging </tspan><tspan x="0" y="17" class="st11 st10">from lectures to animated explainers, are apt tools </tspan><tspan x="0" y="34" class="st11 st10">to deliver impactful messages.</tspan></text>
<text transform="matrix(1 0 0 1 313.7827 333.5586)"><tspan x="0" y="0" class="st11 st10">Our custom assessment tools that are tailored to </tspan><tspan x="0" y="17" class="st11 st10">your organization&apos;s needs help you measure the </tspan><tspan x="0" y="34" class="st11 st10">progress of learning effectively. </tspan></text>
<text transform="matrix(1 0 0 1 612.7827 333.5586)"><tspan x="0" y="0" class="st11 st10">We assist in content adaptation for diverse </tspan><tspan x="0" y="17" class="st11 st10">languages and cultural contexts, enabling global </tspan><tspan x="0" y="34" class="st11 st10">reach through localization.</tspan></text>
<text transform="matrix(1 0 0 1 15.7827 461.5586)"><tspan x="0" y="0" class="st11 st10">Our expertise in content migration and </tspan><tspan x="0" y="17" class="st11 st10">transformation facilitates a smooth transition to </tspan><tspan x="0" y="34" class="st11 st10">digital formats or enhances interactivity in existing </tspan><tspan x="0" y="51" class="st11 st10">content</tspan></text>
<text transform="matrix(1 0 0 1 313.7827 461.5586)"><tspan x="0" y="0" class="st11 st10">Our engaging educational games and simulations </tspan><tspan x="0" y="17" class="st11 st10">are designed to foster active learning that is aligned </tspan><tspan x="0" y="34" class="st11 st10">with your learning objectives.</tspan></text>
<text transform="matrix(1 0 0 1 612.7827 461.5586)"><tspan x="0" y="0" class="st11 st10">You can count on us for ongoing support to keep </tspan><tspan x="0" y="17" class="st11 st10">your custom content up-to-date and relevant.</tspan></text>
</svg>
