<svg version="1.2" xmlns="http://www.w3.org/2000/svg" width="508" height="657"><style>.s3{fill:#000}.s8{fill:#fff}</style><path d="M0 0h508v657H0z" style="fill:#fafafa"/><path d="M508 345.8 0 506.3V282.5L508 122z" style="fill:#1558d8"/><path d="M34 34h440v590.2H34z" style="fill:#fdfdfd"/><path fill-rule="evenodd" class="s3" d="m75.5 393.5-5.3-8h3.1l3.5 6 3.6-6h2.9l-5.3 8v6.1h-2.5zm11.4-3.7c2.9 0 5.2 2 5.2 5s-2.3 5.1-5.2 5.1c-2.9 0-5.2-2.1-5.2-5.1 0-3 2.3-5 5.2-5zm0 8.1c1.9 0 2.7-1.6 2.7-3.1s-.8-3-2.7-3c-1.9 0-2.8 1.5-2.8 3s.9 3.1 2.8 3.1zm15.9 1.7h-2.2v-1.5h-.1c-.4 1-1.5 1.8-3 1.8-2.4 0-3.5-1.9-3.5-3.8v-6h2.4v5.3c0 1.1.3 2.5 1.8 2.5s2.2-1.3 2.2-2.6v-5.2h2.4zm2.6-9.6h2.3v1.6c.5-1.1 1.6-1.9 2.8-1.9.2 0 .4.1.6.1v2.2c-.3-.1-.5-.1-.7-.1-2.2 0-2.6 1.9-2.6 2.6v5.1h-2.4zm11.8-4.6h3.3L127 396h.1v-10.6h2.5v14.1h-3.2l-6.7-10.9v10.9h-2.5zm21 12.9c-.5.9-1.7 1.5-3 1.5-1.5 0-3.6-.7-3.6-3 0-2.8 3.6-3.2 6.6-3.2v-.3c0-1.1-1-1.7-2.2-1.7-1 0-2 .5-2.6 1.1l-1.3-1.5c1.1-1 2.6-1.5 4.1-1.5 3.4 0 4.2 2.1 4.2 4v5.8h-2.2zm0-3.1h-.6c-1.5 0-3.6.2-3.6 1.6 0 .9.8 1.2 1.7 1.2 1.6 0 2.5-.9 2.5-2.5zm19.7-1.6v6h-2.4v-5.3c0-1.1-.3-2.5-1.8-2.5s-2.1 1.3-2.1 2.6v5.2h-2.4v-5.8c0-1.2-.6-2-1.8-2-1.4 0-2.1 1.3-2.1 2.5v5.3h-2.4V390h2.3v1.6c.5-1 1.5-1.8 3-1.8s2.5.7 3 1.8c.6-1.2 1.7-1.8 3.1-1.8 2.5 0 3.6 1.9 3.6 3.8zm11.6 2h-7.3c.1 1.3 1.3 2.3 2.7 2.3 1.2 0 2-.4 2.5-1.2l1.6 1.3q-1.4 1.9-4.1 1.9c-2.9 0-5.1-1.9-5.1-5s2.2-5.1 5.1-5.1c2.6 0 4.6 1.7 4.6 5.1v.7zm-2.4-1.7c0-1.3-.7-2.3-2.3-2.3-1.4 0-2.5.9-2.6 2.3zm9.2-8.4h2.5v5.7h6.6v-5.7h2.5v14.1h-2.5v-6.3h-6.6v6.3h-2.5zm23.4 10.1h-7.3c.1 1.3 1.4 2.3 2.8 2.3 1.2 0 2-.4 2.5-1.2l1.6 1.3q-1.4 1.9-4.1 1.9c-3 0-5.2-1.9-5.2-5s2.2-5.1 5.1-5.1c2.7 0 4.6 1.7 4.6 5.1v.7zm-2.4-1.7c0-1.3-.7-2.3-2.2-2.3-1.4 0-2.6.9-2.7 2.3zm4.4-3.9h2.3v1.6h.1c.5-1.1 1.5-1.8 2.8-1.8h.5v2.2c-.3-.1-.5-.1-.7-.1-2.1 0-2.6 1.9-2.6 2.6v5.1h-2.4zm15.8 5.5h-7.3c.1 1.4 1.3 2.4 2.7 2.4 1.2 0 2-.5 2.5-1.2l1.6 1.2q-1.4 1.9-4.1 1.9c-2.9 0-5.1-1.8-5.1-5 0-3 2.2-5.1 5.1-5.1 2.6 0 4.6 1.8 4.6 5.2v.6zm-2.4-1.7c0-1.2-.7-2.3-2.3-2.3-1.4 0-2.5 1-2.6 2.3z"/><path d="M257.3 534.6h41.5v6.6h-41.5zM70.8 424.1h196v7.4h-196zm0 17.3h219v7.4h-219zm298.6 93.2h41.5v6.7h-41.5zm-112.1 9.9h66.4v6.7h-66.4zm112.1 0h70.5v6.6h-70.5z" style="fill:#cbcbcb"/><path d="M254.8 529.3c3.1-5.5 6.4-11 9-16.7 2-4.1 3.7-8.3 5.7-12.5 1.4-2.9-1.2 3.9-1.3 4.2-1.8 5.7-4.4 11.9-4.8 17.9-.4 5 5-3.9 5.5-4.6 1.4-2.1 2.8-4.2 4.2-6.2.6-.8 2-3.2 1.8-2.3-.5 2.1-3.6 6-2.6 8 .5 1 4.3-2.7 4.9-3.1.8-.5.3.4.2.9-.5 1.1-1.6 2.8-1.3 4 .5 1.8 4.8-.1 5.7-.6 1.7-.8-1.2 1.8-.1 2.2 1.9.7 4.9-2.2 6.6-2.8.4-.2-1.9 3.3 0 2.7 3-1.1 5.5-4.8 8.7-5.3.9-.1-2.2 4.4 1 3.7 3.4-.6 6.4-3.8 9.8-4 .9-.1 1.7.3 2.5.3 2.4 0 4.6-.7 6.8-1.3" style="fill:none;stroke:#000;stroke-linecap:round;stroke-linejoin:round;stroke-width:.8"/><path fill-rule="evenodd" class="s3" d="M216.6 85.7h6c2.4 0 4.8 1.1 4.8 3.9 0 1.8-1.1 3-2.7 3.5 2 .3 3.4 1.6 3.4 3.7 0 3.4-3 4.5-5.9 4.5h-5.6zm2.7 6.4h2.5c1.9 0 2.8-.8 2.8-2.2 0-1.3-.9-1.9-3-1.9h-2.3zm0 6.9h2.5c1.5 0 3.5-.3 3.5-2.3 0-1.6-1.1-2.2-3.4-2.2h-2.6zm10.4-8.3h2.6v1.8c.6-1.2 1.7-2.1 3.1-2.1.2 0 .5.1.6.1v2.4h-.2q-.1 0-.2-.1h-.4c-2.4 0-2.8 2.1-2.8 2.9v5.6h-2.7zm13.7 9.3h-.1c-.5.9-1.8 1.6-3.3 1.6-1.7 0-4-.8-4-3.3 0-3.2 4-3.6 7.3-3.6v-.3c0-1.3-1.1-1.9-2.4-1.9-1.1 0-2.2.5-2.9 1.2l-1.4-1.6c1.2-1.1 2.9-1.7 4.5-1.7 3.8 0 4.7 2.4 4.7 4.5v6.4h-2.4zm-.1-3.5h-.6c-1.7 0-4 .2-4 1.8 0 1 .9 1.3 1.8 1.3 1.8 0 2.8-1 2.8-2.7zm5-5.8h2.7v10.6h-2.7zm1.3-5.2c1 0 1.8.7 1.8 1.6 0 .9-.8 1.6-1.8 1.6-.9 0-1.6-.7-1.6-1.6 0-.8.7-1.6 1.6-1.6zm4 5.2h2.5v1.7h.1c.4-1 1.7-2 3.2-2 2.8 0 3.9 2.1 3.9 4.3v6.6h-2.6v-5.9c0-1.2-.3-2.8-2-2.8s-2.5 1.5-2.5 2.9v5.8h-2.6zm19.8-1.8c-.6-.7-1.8-1.3-2.9-1.3-1.3 0-2.7.6-2.7 2.1s1.2 1.9 2.9 2.4c2.1.6 4.6 1.5 4.6 4.6 0 3.3-2.6 5-5.7 5-2 0-4.1-.8-5.3-2.3l1.9-1.8c.8 1.1 2.2 1.7 3.5 1.7 1.3 0 2.8-.6 2.8-2.3 0-1.6-1.6-2.1-3.6-2.7-1.9-.6-4-1.5-4-4.4 0-3.2 2.9-4.6 5.8-4.6 1.5 0 3.3.5 4.5 1.7zm2.4 3.8v-2.1h1.9v-3h2.6v3h2.6v2.1h-2.6v4.9c0 1 .2 1.7 1.3 1.7.4 0 .9-.1 1.2-.2l.1 2c-.5.2-1.2.3-1.8.3-2.8 0-3.4-1.7-3.4-3.7v-5zm15.4 7.1h-.1c-.5 1-1.8 1.7-3.3 1.7-1.7 0-4-.9-4-3.3 0-3.2 4-3.6 7.3-3.6v-.3c0-1.3-1.1-1.9-2.4-1.9-1.1 0-2.2.5-2.9 1.2l-1.4-1.6c1.2-1.1 2.9-1.7 4.5-1.7 3.8 0 4.7 2.3 4.7 4.5v6.4h-2.4zm-.1-3.5h-.6c-1.6 0-4 .2-4 1.8 0 1 .9 1.3 1.8 1.3 1.9 0 2.8-1 2.8-2.7zm3.6-3.7v-2.1h1.8v-3h2.6v3h2.7v2.1h-2.7v5c0 .9.2 1.6 1.4 1.6.4 0 .8-.1 1.1-.2l.1 2c-.4.2-1.1.3-1.7.3-2.8 0-3.5-1.7-3.5-3.7v-5zm9.1-2.1h2.7v10.6h-2.7zm1.3-5.2c1 0 1.7.7 1.7 1.6 0 .9-.7 1.6-1.7 1.6s-1.7-.7-1.7-1.6c0-.8.7-1.6 1.7-1.6zm8.7 4.9c3.2 0 5.8 2.2 5.8 5.6 0 3.3-2.6 5.6-5.8 5.6-3.2 0-5.7-2.3-5.7-5.6 0-3.4 2.5-5.6 5.7-5.6zm0 9c2.1 0 3.1-1.8 3.1-3.4 0-1.7-1-3.4-3.1-3.4s-3 1.7-3 3.4c0 1.6.9 3.4 3 3.4zm7.4-8.7h2.5v1.7h.1c.4-1.1 1.7-2 3.3-2 2.7 0 3.9 2.1 3.9 4.3v6.6h-2.7v-5.9c0-1.2-.3-2.8-2-2.8-1.6 0-2.4 1.5-2.4 2.9v5.8h-2.7zm10.9-1.6q0-.4.1-.7.2-.4.5-.7.3-.3.6-.4.4-.2.8-.2t.8.2q.4.1.6.4l.3.3.2.4q0 .1.1.3v.4q0 .4-.1.8-.2.3-.4.5-.1.2-.4.4-.2.1-.5.2t-.6.1q-.4 0-.8-.1-.2-.1-.3-.2-.2-.1-.3-.3-.2-.1-.3-.3-.1-.1-.2-.3v-.2q0-.1-.1-.2v-.4zm.3 0q0 .4.1.7.2.3.4.5.1.1.3.2.1.1.3.2.1.1.3.1h.6q.2 0 .4-.1l.2-.2q.2-.1.3-.2.2-.2.4-.5.1-.3.1-.7v-.3q-.1-.2-.1-.3-.1-.2-.2-.3-.1-.1-.2-.3-.1 0-.1-.1-.1 0-.1-.1-.1 0-.2-.1h-.1q-.1-.1-.2-.1h-.2l-.1-.1h-.2q-.2 0-.3.1-.2 0-.3.1-.2 0-.3.1-.2.1-.3.2-.1.2-.2.3-.1.1-.2.3 0 .1-.1.3v.3zm.9-1.1h1.1q.2.1.3.1v.1h.1v.1h.1v.4q.1 0 0 .1v.2q-.1 0-.1.1h-.1q0 .1-.1.1h-.1q0 .1-.1.1l.6 1h-.5l-.5-1h-.3v1h-.4zm.7.9h.4q.1-.1.1-.3 0-.2-.1-.2 0-.1-.1-.1H333.7v.6zm-141.5-7.5q.1.1.1.2.1.1.1.2.1.1.1.2v22.1q0 .1-.1.2 0 .1-.1.2 0 .1-.1.2-.1 0-.2.1l-4.9 1.3h-.5q-.1 0-.1-.1-.1-.1-.2-.1l-5.4-7.4q-.1 0-.1-.1v-.1q-.1-.1-.1-.2v-.1l.8-9.9v-.1q.1-.1.1-.2v-.1q.1 0 .1-.1l6-7q.1 0 .2-.1.1 0 .2-.1h.4l3.4.9q.2.1.3.1zm-.9 21.3v-8.2l-8.3 3.5zm-.4 1.1-7.9-4.5 4.1 5.5zm-8.8-6.6 8.6-3.7-8-4.7zm3-11.4 5.5-3.5-2-.6zm6.3-2.6-7.8 5 7.8 4.5zm14 4.7v.1l.1.1v.2l.8 9.9v.2q-.1.1-.1.2l-.1.1-5.4 7.3q-.1.1-.1.2-.1 0-.2.1h-.5l-4.8-1.4c-.3-.1-.6-.3-.6-.7V82q0-.2.1-.3 0-.1.1-.2t.2-.1.2-.1l3.5-.9q.1-.1.2 0h.2q.1 0 .1.1.1 0 .2.1l6 7 .1.1zm-1.3 11.6-7.9 4.5 3.7 1zm-8.3 3.4 8.3-4.7-8.3-3.5zm0-19.6v9.5l7.8-4.6zm.7-.9 5.6 3.5-3.5-4zm8.5 15-.7-8.3-7.9 4.6zM144.4 188.6c2.5 2.6 4.1 6.7 4.1 10.7 0 6.5-3.4 12.2-9.1 14.8-2.6 1.3-5.7 1.9-9 1.9-1.8 0-9.4-.2-10.9-.2h-4c-1.1 0-1.2-.5-1.2-.6 0-.3.7-.6 1.2-.7 2.7-.3 3.4-1 3.5-3.7.2-3 .1-8.4.1-11 0-1.9.1-4.7 0-9.6-.1-3.8-.2-4.1-3.2-4.8-.4-.1-1.1-.3-1.1-.7 0-.3.6-.5 1.2-.5h3.1c2.4 0 8.7-.4 12-.4 6.8 0 11 2.5 13.3 4.8zm-17.5-3c-.5.2-.8.8-.9 1.3-.1.6-.1 4.2-.1 8.5v5.4c0 3.2.2 8.5.4 10.4.1.7.7 1.6 1.2 2.1.9.8 2.8 1.4 3.7 1.4 1.5 0 3.5-.6 5.6-2.3 3-2.4 4.1-7.3 4.1-12.4 0-3.5-1.1-8.1-3.7-11.1-2.1-2.3-5-3.7-8-3.7-.4 0-1.5.2-2.3.4zm35.5 9.8q.6.1 1.2.3.6.2 1.1.6.5.3.9.7c1.2 1.3 2 2.5 2 5.7v.1c0 2.2-.1 6.8-.1 7.3 0 1.9 1 2.5 1.8 2.5.4 0 .9-.1 1.4-.4.1-.1.3 0 .4.2v.7c-.7 2.4-3.1 3.2-5.4 3.2-2.4 0-3.5-1.4-4-2.6-.1-.1-.2-.2-.4-.1-2.7 1.9-3.6 2.7-5.7 2.7-1.6 0-4-1.6-4-4.8 0-2 1.2-3 2.6-3.6.8-.3 6.9-2 7.3-2.2.1-.1.2-.3.2-.5.1-.8.2-3.2.1-4.4-.2-1.3-.7-3.7-2.9-3.7-1.4 0-2.1.5-2.1 3.3 0 .1-.2.6-.4.7-.1.1-3.5 1.8-4 1.8-.1 0-.8-.2-.8-.6 0-1.3 1.1-3 5.1-5.4 1.7-1.2 3.3-1.6 4.5-1.6q.6 0 1.2.1zm-1.1 17.1c.4-.9.4-4.4.4-5.4 0 0-.1-.3-.3-.2-1.2.3-4.2.6-4.2 3.5 0 1.8 1.6 2.8 2.7 2.8.3 0 .9 0 1.4-.7zm23.6-16.6c.3 0 .5.9.5 2.3 0 .3-.5.7-.7.7-1.6 0-3.4-.2-5-.2-.1 0-.2.3-.2.3l.1 11.3c0 .4.3 1.2.8 1.7.3.3 1.1.9 2.3.9.7 0 1.4-.3 2.2-.7.1 0 .4-.1.5-.1.1 0 .3.1.3.5 0 .6-.9 1.6-1.2 1.8-1 .9-2.9 1.8-5.2 1.8-2.8 0-4.2-.8-5.2-2.3-.7-.8-.9-1.9-.9-3.1 0-3.6.2-7.6.2-11.6v-.2q-.1 0-.1-.1t-.1-.1q-.1-.1-.2-.1c-.2-.1-.7-.2-1.4-.4-.1 0-.5-.3-.5-.4 0-.3.2-.8.5-1 2-1.4 4.1-2.5 5.8-4.3.3-.3.9-.9 1.2-.9.4 0 .9.6.9.8v3c0 .1.1.4.3.4zm13.1-.5q.6.1 1.2.3.6.2 1.1.6.5.3.9.7c1.2 1.3 2 2.5 2 5.7v.1c0 2.2-.1 6.8-.1 7.3 0 1.9 1 2.5 1.7 2.5.5 0 1-.1 1.5-.4.1-.1.3 0 .4.2v.7c-.7 2.4-3.1 3.2-5.4 3.2-2.4 0-3.5-1.4-4-2.6-.1-.1-.2-.2-.4-.1-2.7 1.9-3.6 2.7-5.7 2.7-1.6 0-4-1.6-4-4.8 0-2 1.2-3 2.6-3.6.8-.3 6.9-2 7.3-2.2.1-.1.2-.3.2-.5.1-.8.2-3.2.1-4.4-.2-1.3-.7-3.7-2.9-3.7-1.4 0-2.1.5-2.1 3.3 0 .1-.2.6-.4.7-.1.1-3.5 1.8-4 1.8-.1 0-.8-.2-.8-.6 0-1.3 1.1-3 5-5.4 1.8-1.2 3.4-1.6 4.6-1.6q.6 0 1.2.1zm-1.1 17.1c.4-.9.4-4.4.4-5.4 0 0-.1-.3-.3-.2-1.2.3-4.2.6-4.2 3.5 0 1.8 1.6 2.8 2.7 2.8.3 0 .9 0 1.4-.7zm35.2-28.2c.1.5.3 1 .6 1.7 3.3 9.6 7.9 20.5 8.8 23.1 1.9 4.2 2.5 4.7 4.7 5.4q.4.1.7.3.2-.2.5-.3c1.5-.5 1.9-.7 2-2.4.1-1.6.2-6.2.2-11.5 0-.4-.5-1.1-1.4-2-.4-.4-.6-.7-.6-.9 0-.3.4-.6.7-.7 2.3-.6 4.1-1 6-1.8.5-.2.8-.3 1.1-.3.3 0 .4.4.4.7 0 .3-.1 1.8-.1 2.3 0 0 .1.2.2.1 1.9-1.4 3.9-2.7 6.3-2.7s3.8 1.3 4.4 2.1c1.1 1.1 1.5 3.3 1.6 5.9.1 2.9.2 9 .3 9.3.1.7.4 1.6 1.9 1.9.7.2.8.5.8.7 0 .4-.6.6-1.2.6-1.3 0-3.8-.2-5.2-.2-1.3 0-3.2.2-3.8.2-.6 0-1.2-.1-1.2-.6 0-.1.2-.5.9-.7 1.1-.4 1.5-.7 1.5-4.1v-5.5c0-2.9-.3-4.7-1.3-5.7-.3-.2-1.1-.9-2.1-.9s-1.9.2-2.6.7c-.3.2-.5.7-.5 1 0 5.1-.2 10.6.3 13 .1.4.1 1 1.5 1.5.4.1.9.3.9.7 0 .4-.6.6-1.2.6-.4 0-3.5-.2-4.6-.2-1.9 0-4.1.2-4.9.2q-.4 0-.6-.1c-.2.1-.5.2-1 .2-1.3 0-6.9-.3-8-.3-1.5 0-3.2.2-4.6.2-.9 0-1.3-.3-1.3-.5 0-.4.3-.6 1-.8 2.1-.7 2.2-1.2 2.2-2.1 0-.7-2.2-6.4-2.7-7.8-.2-.4-.4-1-.8-1-1.2-.1-5.3-.1-8.1 0-.1 0-.5.5-.6.9-.8 2.1-2.1 6.6-2.1 7.5 0 1.2.6 1.9 2.8 2.6 1 .3 1.1.5 1.1.8.1.2-.3.5-1 .5-2 0-3.2-.3-5.1-.3-1.7 0-3.1.3-4.4.3-.5 0-1.1-.1-1.1-.6 0-.3.4-.5 1-.6 2.7-.7 3.4-1.8 4.8-4.9 1.4-3.1 6.8-18.8 8.3-23.3.2-.4.3-1.1.3-1.4 0-.3.1-.2.1-.5s.4-.7.6-.7c.4-.2 2.7-.2 3.2-.1.1.1.4.3.4.5zm-.9 16.3c-.8-2.4-2.4-7-3.2-9-.2-.5-.5-.5-.6-.2-.3 1-2.5 6.9-3 9.2 0 .3 0 .6.3.6 1.4 0 5.9.1 6.4 0 .1 0 .3-.3.1-.6zm52.6-5.2q.6.1 1.1.3.6.2 1.1.6.5.3 1 .7c1.2 1.3 1.9 2.5 1.9 5.7V210.1c0 1.9.9 2.5 1.7 2.5.4 0 .9-.1 1.4-.4.2-.1.3 0 .4.2q.1.1.1.2V212.9q0 .1-.1.2c-.7 2.4-3.1 3.2-5.4 3.2-2.4 0-3.5-1.4-4-2.6 0-.1-.2-.2-.3-.1-2.8 1.9-3.7 2.7-5.8 2.7-1.6 0-4-1.6-4-4.8 0-2 1.2-3 2.7-3.6.7-.3 6.8-2 7.2-2.2.1-.1.2-.3.3-.5 0-.8.2-3.2 0-4.4-.2-1.3-.7-3.7-2.9-3.7-1.4 0-2 .5-2 3.3 0 .1-.3.6-.5.7-.1.1-3.4 1.8-3.9 1.8-.2 0-.9-.2-.9-.6 0-1.3 1.2-3 5.1-5.4 1.7-1.2 3.4-1.6 4.6-1.6q.6 0 1.2.1zm-1.2 17.1c.5-.9.5-4.4.4-5.4 0 0 0-.3-.2-.2-1.3.3-4.3.6-4.3 3.5 0 1.8 1.7 2.8 2.7 2.8.3 0 1 0 1.4-.7zm12.9-26.1c0-.5-.2-.9-1.3-2-.7-.6-.9-.7-.9-1 0-.2.4-.6.8-.7 2.1-.6 6.2-2.1 7.5-2.1.1 0 .3.1.4.9 0 .4-.2 6.5-.2 15.2 0 8.3.2 14.7.3 15.6.2 1.1.6 1.7 2.2 2.2.6.2.8.5.8.8 0 .4-.9.5-1.1.5-1.2 0-3.1-.2-5-.2-3.1 0-4.1.2-5.1.2-1.3 0-1.4-.2-1.4-.5 0-.5.7-.7 1-.8 1.8-.5 2.2-1.1 2.2-3.9.1-1.3.2-7 .2-11 0-3.7-.1-11.1-.4-13.2zm9.8 9.4c1.4 0 3.5.2 5.2.2 1.5 0 4.2-.2 4.9-.2.5 0 1 .2 1 .6 0 .3-.4.6-.9.8-1.4.5-2 .9-1.5 2 1.3 3.5 3 7.1 3.8 9.1.1.2.2 0 .2-.1.4-.8 2.4-6.2 3.1-8.6.4-1.2.2-1.9-1.8-2.4-.6-.2-.9-.6-.9-.7 0-.3.5-.6 1-.6 1 0 2.5.1 3.1.1.8 0 2.1-.2 3.5-.2.6 0 1 .3 1 .5 0 .4-.5.6-1 .8-1.3.4-1.9 1-2.8 2.4-.9 1.5-4.7 11-5.5 12.9-.5 1.4-1.1 2.6-1.5 3.8-1.4 3.4-1.9 5.5-3.6 9.2-.7 1.6-1.9 2.1-3 2.1-1.7 0-2.6-1.5-2.6-2.5 0-1.5.8-2.6 2.4-2.6.5 0 1.4.3 1.9.3.7 0 1-.6 1.2-.9.4-.9 1.5-3.6 1.8-4.7.2-.4.4-1.3.1-1.8-.1-.3-.5-1.3-1.3-3.3-.6-1.4-3-6.6-4.7-10.6-1.5-3.5-1.9-3.8-3.2-4.2-.6-.2-1.1-.3-1.1-.9 0-.3.4-.5 1.2-.5zm35.1.1c.3 0 .5.9.5 2.3 0 .3-.5.7-.7.7-1.6 0-3.5-.2-5-.2-.2 0-.3.3-.3.3l.1 11.3c0 .4.4 1.3.8 1.7.3.3 1.1.9 2.3.9.8 0 1.4-.3 2.3-.7.1 0 .4-.1.5-.1.1 0 .3.1.3.5 0 .6-.9 1.6-1.2 1.8-1 .9-2.9 1.8-5.2 1.8-2.8 0-4.2-.8-5.2-2.3-.7-.8-.9-1.9-.9-3.1 0-3.6.2-7.6.2-11.6q0-.1-.1-.2v-.1l-.1-.1q-.1-.1-.2-.1c-.2-.1-.7-.2-1.4-.4-.1 0-.5-.3-.5-.4 0-.3.2-.8.5-1 2-1.4 4.1-2.5 5.7-4.3.3-.3.9-.9 1.3-.9s.8.6.8.8v3c0 .1.2.4.3.4zm3.8 1.3c2-.4 5.3-1.7 6.4-2 .1 0 .5.5.5.6 0 .1-.1 7.7-.1 10.5v5.7c0 1.6 1 2.1 2.1 2.4.7.2.8.6.8.8 0 .1-.2.6-1 .6-.1 0-4.2-.2-5.4-.2-1.7 0-3.6.2-4.4.2-.7 0-1-.5-1-.6 0-.2.1-.5 1-.7 1.1-.3 1.5-.9 1.6-1.4.3-.7.3-2.8.3-4.8 0-5-.2-6.9-.2-7.9-.1-.4-.5-.7-1.5-1.7-.3-.2-.5-.3-.5-.7 0-.2.3-.5 1.4-.8zm7-8.6c0 1.9-1.8 3-2.9 3-1.2 0-3-.7-3-3.1 0-1.4 1.1-3.1 3.2-3.1 1.9 0 2.7 1.9 2.7 3.2zm21.3 7.6c.5.3.9 1.1.9 1.5 0 .9-.9 2.7-1.7 2.7-.5 0-.8-.2-2.1-1.4-1.1-.9-3-2.4-4.1-2.4-.7 0-1.3.4-2 1.1-1 1-1.8 3.2-1.8 6.4 0 4.9 3.3 8.6 6.9 8.6 1.8 0 3.3-.5 4.6-1.7.2-.2.4 0 .4.2 0 .5-.4 1.2-.6 1.5-1.1 1.7-3.4 3.5-7.4 3.5-4.1 0-6.7-1.6-8.4-4.1-.8-1.2-1.7-3.7-1.7-5.7 0-4.6 2.2-7.2 5.1-9.1 1.6-1.1 5-2.1 7.3-2.1 2 0 3.8.4 4.6 1zm14.4-.6c.7.2 1.8.4 1.8.4.1.1.4.5.5.9.1.6.1 3 .1 3.3 0 .1-.4.9-.7.9-.2 0-.5-.3-.7-.7-1.1-2.5-2.9-4-4.4-4-.7 0-2.4.9-2.4 2.6 0 1.6 1.7 2.7 3.1 3.6 3.2 2 6 3.5 6 7.2 0 2.2-1.4 3.8-3.1 5.1-1 .6-3.7 1.3-5.7 1.3q-1.9 0-3.1-.3c-1.1-.2-1.7-.5-1.9-.7-.7-.7-1-2.2-1-4.2 0-.7.3-1.3.5-1.3.5 0 .5.4.9 1 1.9 3.5 4.1 4.2 5 4.2 2 0 2.9-1.6 2.9-2.5 0-.5 0-1.5-1.5-2.6s-2.5-1.6-3.4-2.3c-1.9-1.4-3.7-3.4-3.7-6.1 0-1.8.7-3.8 3-5 1.2-.6 3.1-1.1 4.7-1.1 1 0 2 .1 3.1.3zm-193.2 68.5c-.9 1.2-2.5 2.1-4.5 2.1-3.6 0-6.2-2.6-6.2-6.2 0-3.7 2.7-6.2 6.3-6.2 1.6 0 3.3.7 4.2 1.9l-1.3 1c-.6-.8-1.7-1.4-2.9-1.4-2.8 0-4.5 2.1-4.5 4.7s1.7 4.7 4.4 4.7c1.3 0 2.5-.5 3.2-1.5zm7.3.3h6.1v1.5h-7.8v-11.8h7.6v1.5H201v3.5h5.5v1.4H201zm13.9 1.5h-1.6v-11.8h3.7c2.3 0 4.2.9 4.2 3.3 0 1.7-1.2 2.8-2.8 3.1l3.3 5.4h-2l-3-5.2h-1.8zm0-6.7h1.9c1.6 0 2.8-.4 2.8-1.8 0-1.5-1.2-1.9-2.7-1.9h-2zm16.5 6.6h-1.7v-10.3H226V254h9.1v1.5h-3.7zm10.9 0h-1.6V254h1.6zm8.5 0h-1.6v-11.7h7.3v1.4h-5.7v3.7h5.4v1.4h-5.4zm13.5 0h-1.7V254h1.7zm16.9-1.8c-.9 1.3-2.4 2.1-4.5 2.1-3.6 0-6.2-2.5-6.2-6.2 0-3.6 2.7-6.1 6.3-6.1 1.6 0 3.3.6 4.2 1.8l-1.3 1c-.6-.8-1.7-1.4-2.9-1.4-2.8 0-4.5 2.2-4.5 4.7 0 2.7 1.7 4.8 4.4 4.8 1.3 0 2.5-.6 3.2-1.6zm5.9 1.8h-1.8l5.1-11.7h1.5l5 11.7h-1.8l-1.2-2.9h-5.6zm1.8-4.3h4.3l-2.1-5.5zm16.6 4.3h-1.6v-10.3h-3.8v-1.4h9.2v1.4h-3.8zm11-1.4h6.1v1.4h-7.7v-11.7h7.5v1.4h-5.9v3.5h5.5v1.4h-5.5z"/><path d="M232.8 297.8h39.9v3.3h-39.9z" style="fill:#ffcf00"/><path d="M402.5 365.4q.1 0 .2-.1h.6q.1.1.2.1l4.5 3.7q.1.1.2.1.1.1.2.1h.2q.1 0 .2-.1l5.3-2.4h.5q.2 0 .3.1l.2.2 3.3 4.7.2.2q.1 0 .2.1h.5l5.6-.9h.3q.2 0 .3.1l.2.2.2.2 2 5.4q0 .1.1.2t.1.2q.1 0 .2.1h.3l5.7.6q.1 0 .3.1.1 0 .2.1t.2.3q0 .1.1.2l.5 5.8q0 .1.1.2 0 .1.1.2 0 .1.1.2.1 0 .2.1l5.4 2q.2 0 .3.1l.2.2q0 .2.1.3v.3l-1 5.7v.2q0 .1.1.2 0 .1.1.2l.2.2 4.6 3.3q.2.1.2.2.1.1.2.3v.3q0 .1-.1.2l-2.4 5.3v.2q-.1.1 0 .2v.3q.1.1.1.2l3.7 4.4q.1.1.1.2.1.2.1.3 0 .2-.1.3 0 .1-.1.3l-3.7 4.4q0 .1-.1.2v.2q-.1.1 0 .2v.3l2.4 5.2q.1.1.1.3v.3l-.2.2q0 .1-.2.2l-4.6 3.4q-.1 0-.2.1t-.1.2q-.1.1-.1.3v.2l1 5.7v.2q-.1.2-.1.3l-.2.2q-.1.1-.3.2l-5.4 2q-.1 0-.2.1t-.1.2-.1.2-.1.2l-.5 5.7q-.1.2-.1.3l-.2.2-.2.2q-.2 0-.3.1l-5.7.5q-.1 0-.3.1-.1 0-.2.1 0 .1-.1.1-.1.1-.1.3l-2 5.3q-.1.2-.2.3l-.2.2q-.1 0-.3.1h-.3l-5.6-1h-.3q-.1 0-.2.1-.1 0-.2.1l-.2.2-3.3 4.6q-.1.2-.2.2-.1.1-.3.2h-.2q-.2 0-.3-.1l-5.3-2.4h-.2q-.1-.1-.2 0h-.2q-.1.1-.2.1l-4.5 3.7q-.1.1-.2.1-.2.1-.3.1-.1 0-.3-.1-.1 0-.2-.1l-4.5-3.7q-.1 0-.2-.1h-.2q-.1-.1-.2 0h-.2l-5.3 2.4q-.1.1-.3.1h-.2q-.2-.1-.3-.2-.1 0-.2-.2l-3.4-4.6q0-.1-.1-.2t-.2-.1-.2-.1h-.3l-5.6 1h-.3q-.2-.1-.3-.1l-.2-.2q-.1-.1-.2-.3l-2-5.3q0-.2-.1-.3-.1 0-.2-.1 0-.1-.2-.1-.1-.1-.2-.1l-5.7-.5q-.2-.1-.3-.1l-.2-.2-.2-.2q0-.1-.1-.3l-.5-5.7q0-.1-.1-.2 0-.1-.1-.2t-.1-.2q-.1-.1-.2-.1l-5.4-2q-.2-.1-.3-.2l-.2-.2q0-.1-.1-.3v-.2l1-5.7v-.2q0-.2-.1-.3 0-.1-.1-.2t-.2-.1l-4.6-3.4q-.2-.1-.2-.2l-.2-.2v-.3q0-.2.1-.3l2.4-5.2v-.7q-.1-.1-.1-.2l-3.7-4.4q-.1-.2-.1-.3-.1-.1-.1-.3 0-.1.1-.3 0-.1.1-.2l3.7-4.4q0-.1.1-.2v-.7l-2.4-5.3q-.1-.1-.1-.2v-.3q.1-.2.2-.3 0-.1.2-.2l4.6-3.3.2-.2q.1-.1.1-.2.1-.1.1-.2v-.2l-1-5.7v-.3q.1-.1.1-.3l.2-.2q.1-.1.3-.1l5.4-2q.1-.1.2-.1 0-.1.1-.2t.1-.2.1-.2l.5-5.8q.1-.1.1-.2.1-.2.2-.3.1-.1.2-.1.1-.1.3-.1l5.7-.6h.2l.2-.1.2-.2q.1-.1.1-.2l2-5.4.2-.2.2-.2q.1-.1.3-.1h.3l5.6.9h.5q.1-.1.2-.1.1-.1.1-.2l3.4-4.7.2-.2q.1-.1.3-.1h.5l5.3 2.4q.1.1.2.1h.2q.1 0 .2-.1.1 0 .2-.1z" style="fill:#fdce01"/><path fill-rule="evenodd" class="s8" d="M401.7 396.1V423.3q0 .5-.2.8-.1.2-.2.3-.2.2-.4.3-.1.2-.3.3-.2.1-.5.1l-.4.1-6.6 1.2h-.2c-.4 0-.9-.2-1.1-.6l-.3-.4-1.7-2.7-2.3-3.7-.7-1q0-.1-.1-.3-.1-.1-.1-.3 0-.1-.1-.3v-.3l.1-.5.2-4.1.6-8.9v-.3l.2-.4q0-.1.1-.3l.2-.2 1.9-2 5.8-6.3q.1-.1.3-.2.1-.1.3-.1.2-.1.3-.1.2 0 .4.1h.4l2.6.7.2.1h.2c.8.2 1.3.8 1.5 1.5v.1s0 .1-.1.2zm-11.5 6.7 9.8 4.6V397l-3.9 2.3-4.6 2.8zm-1 14.3 10.8 5.5v-12.3zm-.6-6-.3 4.4 10.7-6.6-7.6-3.5-2.3-1.1zm8.1-15.8h-.2l-3.4 3.7 5.4-3.2zm-5.6 26.2 1.9 3q.1.1.2.1l4.9-.9-8.3-4.3zM419 418l-2.7 4.2-2.3 3.6q-.1.2-.2.3l-.2.2q-.2.1-.4.1-.1.1-.3.1-.1 0-.2-.1h-.5l-3.6-.7-2.5-.5-.4-.1c-.6-.1-1.1-.5-1.4-1q-.2-.3-.2-.7v-27.5q.1-.3.2-.5.2-.3.4-.5.1-.2.4-.3.2-.1.5-.2l.2-.1 2.8-.7.4-.1c.5-.1 1 0 1.3.4l5.8 6.2 1.9 2q.1.2.2.3.1.1.2.3 0 .2.1.3v.4l.6 8.9.2 4 .1.6c0 .4-.1.8-.4 1.1zm-13.1 4.6 10.8-5.4-10.8-6.8zm11.6-7-.3-4.5-.4-6.8-9.9 4.6zM405.9 397v10.4l9.8-4.5-1.3-.7zm3.2-1.8-1.8.5 5.4 3.3-3.4-3.7q0-.1-.1-.1 0 .1-.1 0zm5.5 26.5 1.5-2.3-8.3 4.2 4.9 1q.1 0 .2-.1z"/><path fill-rule="evenodd" class="s8" d="M368.5 409.9c0-19.1 15.4-34.5 34.5-34.5s34.5 15.4 34.5 34.5-15.4 34.5-34.5 34.5-34.5-15.4-34.5-34.5zM403 377c-18.2 0-32.9 14.8-32.9 32.9 0 18.2 14.7 32.9 32.9 32.9s32.9-14.7 32.9-32.9c0-18.1-14.7-32.9-32.9-32.9z"/></svg>