<svg width="33" height="33" viewBox="0 0 33 33" fill="none" xmlns="http://www.w3.org/2000/svg">
<path d="M16.1924 0.140625C7.3623 0.140625 0.208008 7.29492 0.208008 16.125C0.208008 24.9551 7.3623 32.1094 16.1924 32.1094C25.0225 32.1094 32.1768 24.9551 32.1768 16.125C32.1768 7.29492 25.0225 0.140625 16.1924 0.140625ZM28.6318 9.9375H23.2822C22.7021 7.10156 21.7354 4.65234 20.5107 2.91211C24.0557 4.13672 26.9561 6.65039 28.6318 9.9375ZM21.8643 16.125C21.8643 17.6074 21.7354 19.0254 21.542 20.25H10.7783C10.585 19.0254 10.5205 17.6074 10.5205 16.125C10.5205 14.707 10.585 13.2891 10.7783 12H21.542C21.7354 13.2891 21.8643 14.707 21.8643 16.125ZM16.1924 2.20312C17.8682 2.20312 20.124 5.10352 21.2197 9.9375H11.1006C12.1963 5.10352 14.4521 2.20312 16.1924 2.20312ZM11.8096 2.91211C10.585 4.65234 9.61816 7.10156 9.03809 9.9375H3.68848C5.36426 6.65039 8.26465 4.13672 11.8096 2.91211ZM2.27051 16.125C2.27051 14.707 2.46387 13.3535 2.85059 12H8.71582C8.52246 13.3535 8.45801 14.707 8.45801 16.125C8.45801 17.6074 8.52246 18.9609 8.71582 20.25H2.85059C2.46387 18.9609 2.27051 17.6074 2.27051 16.125ZM3.68848 22.3125H9.03809C9.61816 25.2129 10.585 27.6621 11.8096 29.4023C8.26465 28.1777 5.36426 25.6641 3.68848 22.3125ZM16.1924 30.0469C14.4521 30.0469 12.1963 27.2109 11.1006 22.3125H21.2197C20.124 27.2109 17.8682 30.0469 16.1924 30.0469ZM20.5107 29.4023C21.7354 27.6621 22.7021 25.2129 23.2822 22.3125H28.6318C26.9561 25.6641 24.0557 28.1777 20.5107 29.4023ZM23.6045 20.25C23.7979 18.9609 23.9268 17.6074 23.9268 16.125C23.9268 14.707 23.7979 13.3535 23.6045 12H29.4697C29.8564 13.3535 30.1143 14.707 30.1143 16.125C30.1143 17.6074 29.8564 18.9609 29.4697 20.25H23.6045Z" fill="black"/>
</svg>
