<svg height="18" viewBox="0 0 134 18" width="134" xmlns="http://www.w3.org/2000/svg"><g fill="none"><path d="m13.113 10.777 1.13 5.97a.372.372 0 0 1 -.14.366.36.36 0 0 1 -.385.032l-4.998-2.619-5 2.617a.36.36 0 0 1 -.386-.033.372.372 0 0 1 -.138-.367l1.163-5.962-4.24-3.86a.373.373 0 0 1 -.104-.377.366.366 0 0 1 .29-.26l5.59-.916 2.52-4.98a.364.364 0 0 1 .324-.2c.137 0 .262.077.324.2l2.521 4.98 5.588.916a.373.373 0 0 1 .186.638zm58.625 0 1.13 5.97a.372.372 0 0 1 -.14.366.36.36 0 0 1 -.385.032l-4.998-2.619-5 2.617a.36.36 0 0 1 -.386-.033.372.372 0 0 1 -.138-.367l1.163-5.962-4.24-3.86a.373.373 0 0 1 -.104-.377.366.366 0 0 1 .29-.26l5.59-.916 2.52-4.98a.364.364 0 0 1 .324-.2c.137 0 .262.077.324.2l2.521 4.98 5.588.916a.373.373 0 0 1 .186.638zm-29.312 0 1.13 5.97a.372.372 0 0 1 -.14.366.36.36 0 0 1 -.385.032l-4.999-2.619-5 2.617a.36.36 0 0 1 -.385-.033.372.372 0 0 1 -.138-.367l1.163-5.962-4.24-3.86a.373.373 0 0 1 -.104-.377.366.366 0 0 1 .29-.26l5.589-.916 2.52-4.98a.364.364 0 0 1 .325-.2c.136 0 .261.077.323.2l2.521 4.98 5.588.916a.373.373 0 0 1 .186.638zm57.578 0 1.13 5.97a.372.372 0 0 1 -.14.366.36.36 0 0 1 -.385.032l-4.999-2.619-4.999 2.617a.36.36 0 0 1 -.386-.033.372.372 0 0 1 -.138-.367l1.163-5.962-4.24-3.86a.373.373 0 0 1 -.104-.377.366.366 0 0 1 .29-.26l5.589-.916 2.521-4.98a.364.364 0 0 1 .324-.2c.136 0 .261.077.324.2l2.52 4.98 5.588.916a.373.373 0 0 1 .186.638z" fill="#000" opacity=".5"/><path d="m129.316 10.777 1.13 5.97a.372.372 0 0 1 -.14.366.36.36 0 0 1 -.385.032l-4.998-2.619-5 2.617a.36.36 0 0 1 -.386-.033.372.372 0 0 1 -.138-.367l1.163-5.962-4.24-3.86a.373.373 0 0 1 -.104-.377.366.366 0 0 1 .29-.26l5.59-.916 2.52-4.98a.364.364 0 0 1 .324-.2c.137 0 .262.077.324.2l2.521 4.98 5.588.916a.373.373 0 0 1 .186.638z" fill="#dbe1e4"/><path d="m123.531 15.255-3.608 1.888a.36.36 0 0 1 -.386-.033.372.372 0 0 1 -.138-.367l1.163-5.962-4.24-3.86a.373.373 0 0 1 -.104-.377.366.366 0 0 1 .29-.26l5.59-.916 1.433-2.832z" fill="#000" opacity=".5"/></g></svg>