<svg height="30" viewBox="0 0 90 30" width="90" xmlns="http://www.w3.org/2000/svg"><path d="m22.142 10.756h-10.585v3.144h7.534c-.368 4.411-4.001 6.292-7.43 6.292-4.388 0-8.217-3.487-8.217-8.374 0-4.762 3.65-8.428 8.226-8.428 3.53 0 5.611 2.273 5.611 2.273l2.18-2.28s-2.797-3.148-7.901-3.148c-6.501.001-11.53 5.542-11.53 11.528 0 5.864 4.73 11.583 11.694 11.583 6.125 0 10.608-4.238 10.608-10.505 0-1.322-.19-2.086-.19-2.086m8.961-2.278c-4.306 0-7.392 3.401-7.392 7.367 0 4.025 2.993 7.489 7.443 7.489 4.028 0 7.328-3.11 7.328-7.402 0-4.92-3.839-7.454-7.379-7.454zm.043 2.918c2.118 0 4.124 1.73 4.124 4.516 0 2.728-1.998 4.506-4.134 4.506-2.347 0-4.198-1.898-4.198-4.528 0-2.572 1.828-4.494 4.208-4.494zm15.944-2.918c-4.307 0-7.393 3.401-7.393 7.367 0 4.025 2.994 7.489 7.443 7.489 4.028 0 7.328-3.11 7.328-7.402 0-4.92-3.838-7.454-7.378-7.454zm.042 2.918c2.118 0 4.125 1.73 4.125 4.516 0 2.728-1.998 4.506-4.134 4.506-2.347 0-4.199-1.898-4.199-4.528 0-2.572 1.829-4.494 4.208-4.494zm15.728-2.91c-3.954 0-7.06 3.497-7.06 7.422 0 4.47 3.602 7.436 6.991 7.436 2.096 0 3.21-.84 4.033-1.805v1.464c0 2.563-1.54 4.098-3.866 4.098-2.246 0-3.372-1.687-3.764-2.645l-2.826 1.194c1.003 2.141 3.02 4.374 6.614 4.374 3.93 0 6.925-2.5 6.925-7.744v-13.53h-3.083v1.441c-.948-1.032-2.244-1.705-3.965-1.705zm.285 2.912c1.938 0 3.928 1.671 3.928 4.526 0 2.901-1.986 4.5-3.97 4.5-2.108 0-4.069-1.728-4.069-4.473 0-2.851 2.037-4.553 4.111-4.553zm20.198-2.929c-3.729 0-6.86 2.996-6.86 7.417 0 4.679 3.49 7.454 7.218 7.454 3.111 0 5.02-1.72 6.16-3.26l-2.542-1.708c-.66 1.034-1.762 2.044-3.603 2.044-2.067 0-3.017-1.143-3.606-2.25l9.86-4.134-.512-1.21c-.953-2.372-3.175-4.353-6.115-4.353zm.128 2.856c1.344 0 2.31.722 2.721 1.587l-6.584 2.78c-.284-2.152 1.734-4.367 3.863-4.367zm-11.506 11.574h3.02v-21.894h-3.02z" fill-rule="evenodd" opacity=".5"/></svg>