<svg xmlns="http://www.w3.org/2000/svg" width="148" height="36" fill="none" viewBox="0 0 148 36">
    <path fill="#000" fill-rule="evenodd" d="M123.161 35.5h8.658l1.073-4.879c2.471 0 5.022.016 7.493.016 1.207 0 2.275-.375 3.224-1.016 1.146-.774 2.001-1.96 2.322-3.423.544-2.476 1.09-4.95 1.637-7.425.311-1.413.717-3.008-.296-4.284-.932-1.174-2.169-1.266-3.526-1.266-9.776.011-19.553 0-29.329 0-.987 0-1.814.32-2.676.764-.809-.572-1.54-.764-2.532-.764H95.79l1.1-4.946h-8.673l-1.072 4.825h-7.627c-1.053 0-2.065.33-2.949.898-.856-.532-1.517-.764-2.531-.764H48.864l1.152-5.013-8.658-.013-4.992 22.327 8.65.003 2.602-11.427h2.928c.348 0 .28.198.221.46L48.306 30.54h57.35c.973 0 1.734-.201 2.61-.648.863.577 1.626.768 2.681.76l13.282-.112-1.068 4.96zM85.704 19.129h-2.552c-.448 0-.569.204-.658.606l-.959 4.3c-.091.412.118.48.478.48h2.485l1.206-5.386zm14.644.104h2.727c.524 0 .496.275.401.7l-.937 4.213c-.108.49-.414.482-.835.482h-2.775c-.408 0-.411-.241-.339-.57l.933-4.213c.115-.52.32-.612.825-.612zm17.949 0h2.727c.525 0 .496.275.402.7l-.937 4.213c-.109.49-.414.482-.836.482h-2.775c-.407 0-.411-.241-.338-.57l.933-4.213c.115-.52.32-.612.824-.612zm16.007 5.435h2.553c.448 0 .569-.204.658-.605l.959-4.301c.091-.412-.118-.48-.478-.48h-2.485l-1.207 5.386z" clip-rule="evenodd"/>
    <path fill="#1F1917" fill-rule="evenodd" d="M98.352 14.478h10.875c1.698 0 2.779 1.388 2.403 3.085l-1.938 8.747c-.376 1.697-2.072 3.086-3.769 3.086H95.047c-1.697 0-2.778-1.389-2.403-3.086l1.938-8.747c.376-1.697 2.072-3.085 3.77-3.085zm1.971 3.511h5.377c.899 0 1.47.735 1.272 1.633l-1.026 4.63c-.199.898-1.097 1.632-1.995 1.632h-5.377c-.898 0-1.47-.734-1.272-1.632l1.026-4.63c.199-.898 1.096-1.633 1.995-1.633zM116.28 14.478h10.876c1.697 0 2.778 1.388 2.402 3.085l-1.938 8.747c-.376 1.697-2.072 3.086-3.769 3.086h-10.876c-1.697 0-2.778-1.389-2.402-3.086l1.937-8.747c.376-1.697 2.072-3.085 3.77-3.085zm1.971 3.511h5.378c.898 0 1.47.735 1.271 1.633l-1.026 4.63c-.199.898-1.096 1.632-1.994 1.632h-5.378c-.898 0-1.47-.734-1.271-1.632l1.025-4.63c.199-.898 1.097-1.633 1.995-1.633zM131.132 14.478h13.053c1.697 0 2.778 1.389 2.402 3.085l-1.938 8.747c-.375 1.697-2.072 3.087-3.769 3.086l-13.053-.006 3.305-14.912zm3.412 3.511h6.114c.898 0 1.47.735 1.271 1.633l-1.025 4.63c-.199.897-1.097 1.632-1.995 1.632h-6.119M91.067 29.279H78.013c-1.697 0-2.778-1.39-2.402-3.086l1.938-8.747c.376-1.697 2.073-3.087 3.77-3.086l13.052.007-3.304 14.912zm-3.413-3.512H81.54c-.898 0-1.47-.735-1.27-1.633l1.025-4.63c.198-.897 1.096-1.632 1.994-1.632h6.12M46.365 14.478h9.977c1.697 0 2.778 1.388 2.403 3.086l-1.417 6.394h-4.202l.96-4.336c.2-.898-.373-1.633-1.271-1.633h-6.181c-.898 0-.093.735-.292 1.633l-.948 4.278h-4.202l1.404-6.336c.376-1.698 2.072-3.086 3.769-3.086z" clip-rule="evenodd"/>
    <path fill="#1F1917" fill-rule="evenodd" d="M40.007 29.279l2.868-12.91h4.19l-2.873 12.91M74.037 29.279H60.085c-1.697 0-2.778-1.39-2.402-3.086l.562-2.538h.003l.108-.488c.375-1.697 2.072-3.087 3.769-3.086l9.762.005.144-.648c.153-.846-.38-1.532-1.218-1.566H59.512l.778-3.51 14.024.004c1.662.033 2.714 1.408 2.342 3.085l-.264 1.19h.002l-.32 1.446h.003l-1.645 7.426h-.004l-.39 1.766zm-10.845-3.512h7.433l.483-2.174h-7.305c-.036-.004-.072-.006-.109-.006-.598 0-1.196.49-1.328 1.088-.13.591.241 1.076.827 1.088l-.001.004" clip-rule="evenodd"/>
    <path fill="#6CF" fill-rule="evenodd" d="M98.352 14.478h10.875c1.698 0 2.779 1.388 2.403 3.085l-1.938 8.747c-.376 1.697-2.072 3.086-3.769 3.086H95.047c-1.697 0-2.778-1.389-2.403-3.086l1.938-8.747c.376-1.697 2.072-3.085 3.77-3.085zm1.971 3.511h5.377c.899 0 1.47.735 1.272 1.633l-1.026 4.63c-.199.898-1.097 1.632-1.995 1.632h-5.377c-.898 0-1.47-.734-1.272-1.632l1.026-4.63c.199-.898 1.096-1.633 1.995-1.633zM116.28 14.478h10.876c1.697 0 2.778 1.388 2.402 3.085l-1.938 8.747c-.376 1.697-2.072 3.086-3.769 3.086h-10.876c-1.697 0-2.778-1.389-2.402-3.086l1.937-8.747c.376-1.697 2.072-3.085 3.77-3.085zm1.971 3.511h5.378c.898 0 1.47.735 1.271 1.633l-1.026 4.63c-.199.898-1.096 1.632-1.994 1.632h-5.378c-.898 0-1.47-.734-1.271-1.632l1.025-4.63c.199-.898 1.097-1.633 1.995-1.633zM131.134 14.475l-2.725 12.28-.581 2.633-1.105 5h4.182l1.112-5 8.865.007c1.697 0 3.39-1.388 3.766-3.084l1.937-8.744c.376-1.697-.706-3.092-2.403-3.092h-13.048zm3.407 3.515h6.119c.898 0 1.469.738 1.27 1.635l-1.026 4.627c-.199.897-1.096 1.635-1.994 1.635h-6.119l1.75-7.897zM91.295 9.368l-1.112 5-8.866-.008c-1.696 0-3.39 1.388-3.765 3.085l-1.944 8.75c-.376 1.697.705 3.085 2.403 3.085h13.055l3.306-14.913 1.105-5h-4.182zm-8.005 8.507h6.119l-1.758 7.89H81.54c-.898 0-1.469-.73-1.27-1.628l1.026-4.634c.199-.897 1.096-1.628 1.994-1.628zM44.412 9.368L42.719 17h.022l-.072.301c-.027.087-.052.176-.072.266L41.191 23.9h.015l-1.198 5.38h4.182l1.198-5.38h.007l.947-4.275c.001-.007-.002-.015 0-.021l.365-1.614h6.105c.898 0 1.475.737 1.276 1.635l-.96 4.333-1.177 5.322h4.189l1.184-5.322h.007l1.413-6.391c.376-1.698-.706-3.092-2.403-3.092h-8.873L48.6 9.368h-4.189zM74.037 29.279H60.085c-1.697 0-2.778-1.39-2.402-3.086l.562-2.538h.003l.108-.488c.375-1.697 2.072-3.087 3.769-3.086l9.762.005.144-.648c.153-.846-.38-1.532-1.218-1.566H59.512l.778-3.51 14.024.004c1.662.033 2.714 1.408 2.342 3.085l-.264 1.19h.002l-.32 1.446h.003l-1.645 7.426h-.004l-.39 1.766zm-10.845-3.512h7.433l.483-2.174h-7.305c-.036-.004-.072-.006-.109-.006-.598 0-1.196.49-1.328 1.088-.13.591.241 1.076.827 1.088l-.001.004" clip-rule="evenodd"/>
    <path fill="#000" fill-rule="evenodd" d="M4.764 20.122l-.515 1.401-1.275 1.263c-.465.46-.565.457-.456 1.108.128.766.496 1.554 1.173 2.233.712.713 2.207 1.724 3.283 1.248-.1.36-.233.74-.402 1.11-.721 1.582 1.037 1.892 2.267 2.225 1.022.276 3.532 1.013 3.894-.331.163-.605.188-.93.13-1.507.318-.71.42-.823.683-1.214.361-.536.335-.74.256-1.405-.015-.128-.034-.268-.055-.415 1.217.183 2.388.181 3.581.033-.362.211-.725.396-1.204.642-1.138.585-.066 2.31.424 3.065 1.029 1.585 1.95 2.675 3.689 1.735.583-.316.628-.652.993-1.197.2-.11 1.238-.992 1.855-1.49.233.28.68.332 1.36.381.34.025 1.68.016 2.035.019 1.064.006 1.703-.104 1.787-1.265.04-.55.016-.667-.255-1.148l-.049-1.821c-.018-.684-.149-1.103-.417-1.742-.244-.58-.38-1.075-.666-1.638.04-.22.07-.448.091-.686l1.086 1.047c.69.664 1.26 1.207 2.313 1.157 1.096-.051 2.35-.915 2.671-1.97l.321-1.058c1.653.313 3.584.241 5.023-.527 2.116-1.129 3.106-3.4 3.35-5.801.197-1.944-.182-5.21-1.109-6.984-.272-.521-1.502-1.18-2.041-.634-.407.411-.686 1.039-1.124 1.414-.34.29-.761.434-1.13.585-.285-.77-.696-1.37-1.198-1.968-.4-.476-.776-.713-1.303-1.043-1.04-.651-1.849-1.474-2.796-2.255-2.866-2.364-5.328-2.291-8.9-.788-1.703.717-2.525 1.69-3.57 3.088-.632.033-1.066.156-1.733.745-.493.435-.952.882-1.396 1.346-3.339.532-5.412 1.168-7.606 3.113-.892.791-1.541 1.668-2.047 2.654-.47.519-.937 1.051-1.558 1.29-.436.168-.428.168-.582-.243.52-.39.511-1.125.56-1.79.327.016.45.383.672.664.132-.588.208-1.5-.41-1.821.1-.27.214-.54.318-.837-.913.159-4.042 2.268-2.372 3.876.11.447.196.755.341 1.057.382.794 1.241.93 1.99.638-.205.94-.247 1.964-.123 3.4.03.345.079.692.146 1.04z" clip-rule="evenodd"/>
    <path fill="#000" d="M4.962 20.194l-.207.564-.396-.145.207-.564.396.145zm-.207.564l-.308.838-.396-.145.308-.838.396.145zm-.308.838l-.05.077-.148-.15.198.073zm-.05.077l-.675.669-.297-.3.675-.668.298.299zm-.675.669l-.6.594-.297-.3.6-.593.297.299zm-.6.594c-.09.09-.122.12-.15.146l-.292-.305.145-.14.298.299zm-.15.146c-.27.26-.323.312-.245.778l-.417.069c-.115-.685-.034-.763.37-1.152l.293.305zm-.245.778c.063.374.187.756.383 1.128l-.375.197c-.216-.41-.354-.836-.425-1.256l.417-.07zm.383 1.128c.181.346.423.68.731.99l-.299.297c-.342-.343-.609-.711-.807-1.09l.375-.197zm.731.99c.395.396 1.039.886 1.71 1.14l-.15.396c-.732-.279-1.432-.81-1.859-1.238l.3-.298zm1.71 1.14c.466.178.941.239 1.338.063l.17.387c-.512.226-1.096.159-1.657-.054l.148-.395zm1.338.063l.408-.18-.119.43-.204-.057-.085-.193zm.29.25c-.054.191-.116.388-.187.585l-.398-.143c.067-.188.126-.374.176-.555l.408.113zm-.187.585c-.067.185-.142.371-.227.557l-.385-.175c.079-.173.15-.349.214-.525l.398.143zm-.227.557c-.357.783.017 1.196.598 1.46l-.175.386c-.795-.363-1.305-.931-.808-2.021l.385.175zm.598 1.46c.37.17.82.287 1.236.395l-.105.408c-.438-.114-.91-.237-1.306-.417l.175-.385zm1.236.395l.294.078-.107.408-.292-.078.105-.408zm.294.078c.503.135 1.373.385 2.154.434l-.026.423c-.82-.052-1.716-.309-2.235-.45l.107-.407zm2.154.434c.707.045 1.336-.074 1.482-.615l.408.108c-.216.802-1.022.987-1.916.93l.026-.423zm1.482-.615c.077-.286.122-.508.14-.727l.423.035c-.02.238-.07.482-.155.8l-.408-.108zm.14-.727c.02-.22.012-.435-.016-.706l.42-.04c.03.306.04.543.02.78l-.423-.034zm-.016-.706l.017-.106.193.086-.21.02zm.017-.106c.284-.635.402-.806.609-1.11l.348.238c-.191.28-.3.44-.57 1.044l-.387-.172zm.609-1.11l.092-.136.35.236-.094.138-.348-.238zm.092-.136c.162-.24.236-.4.26-.565l.418.058c-.034.237-.128.447-.327.743l-.35-.236zm.26-.565c.024-.174 0-.381-.038-.698l.42-.048c.04.348.069.575.036.804l-.418-.058zm-.038-.698l-.025-.2.418-.053.027.205-.42.048zm-.025-.2l-.03-.208.418-.062.03.217-.418.053zm-.03-.208l-.04-.282.28.042-.03.209-.21.03zm.24-.24c.599.09 1.186.134 1.77.138l-.002.423c-.603-.004-1.21-.05-1.83-.143l.063-.418zm1.77.138c.586.004 1.168-.033 1.756-.106l.05.42c-.606.075-1.206.113-1.808.11l.002-.424zm1.756-.106l.13.393-.105-.183-.025-.21zm.13.393c-.341.2-.682.374-1.117.598l-.193-.377c.43-.22.766-.393 1.099-.587l.211.366zm-1.117.598l-.096.05-.194-.377.097-.05.194.377zm-.096.05c-.447.23-.451.711-.293 1.216l-.404.126c-.216-.692-.187-1.364.503-1.72l.194.378zm-.293 1.216c.178.574.559 1.177.797 1.545l-.353.23c-.252-.388-.653-1.025-.848-1.649l.404-.125zm.797 1.545c.5.77.97 1.418 1.512 1.75l-.22.36c-.612-.376-1.116-1.065-1.645-1.88l.353-.23zm1.512 1.75c.51.313 1.109.341 1.9-.087l.2.374c-.946.512-1.678.465-2.32.072l.22-.36zm1.9-.087c.374-.202.5-.422.669-.718l.368.208c-.204.358-.356.623-.837.884l-.2-.374zm.669-.718c.067-.118.14-.247.249-.409l.35.235c-.086.129-.162.261-.23.382l-.37-.208zm.249-.409l.073-.068.102.185-.175-.117zm.073-.068c.124-.068.651-.504 1.164-.928l.27.326c-.53.438-1.076.889-1.23.973l-.204-.371zm1.164-.928c.264-.218.525-.433.66-.542l.266.33c-.247.2-.451.368-.656.538l-.27-.326zm.66-.542l.162-.131.134.16-.163.136-.133-.165zm.296.03c.084.1.217.163.399.207l-.098.41c-.27-.064-.477-.168-.627-.347l.326-.27zm.399.207c.208.05.481.074.813.098l-.03.422c-.347-.025-.637-.05-.88-.11l.097-.41zm.813.098c.26.018 1.09.018 1.625.018v.423c-.547 0-1.395 0-1.655-.018l.03-.424zm1.625.018h.396l-.002.423h-.394v-.423zm.396 0c.5.003.895-.019 1.157-.167l.208.368c-.345.196-.802.226-1.367.222l.002-.423zm1.157-.167c.238-.135.382-.402.418-.9l.423.03c-.048.66-.266 1.03-.633 1.238l-.208-.368zm.418-.9c.018-.257.022-.41-.006-.54l.413-.091c.04.185.037.366.016.66l-.423-.03zm-.006-.54c-.03-.131-.097-.267-.223-.49l.37-.207c.145.257.225.42.266.606l-.413.09zm-.223-.49l-.026-.1.211-.004-.185.103zm-.026-.1l-.025-.91.423-.01.025.911-.423.01zm-.025-.91l-.024-.91.423-.01.024.91-.423.01zm-.024-.91c-.009-.326-.044-.587-.108-.842l.41-.102c.072.286.111.576.121.934l-.423.01zm-.108-.842c-.065-.256-.162-.512-.293-.823l.39-.164c.138.327.24.6.313.885l-.41.102zm-.293-.823c-.092-.22-.172-.434-.25-.644l.397-.145c.074.2.15.403.243.625l-.39.164zm.147-.79l-.198.074.198-.074zm-.396.147c-.121-.326-.238-.642-.41-.982l.378-.19c.18.357.303.686.428 1.025l-.396.147zm-.41-.982l-.02-.131.209.036-.19.095zm-.02-.131c.021-.118.039-.228.052-.327l.418.053c-.017.13-.035.244-.053.346l-.417-.072zm.052-.327c.012-.09.024-.203.036-.34l.423.034c-.009.1-.023.22-.041.359l-.418-.053zm.036-.34l.04-.442.318.306-.146.153-.212-.017zm.358-.136l.621.599-.292.306-.621-.6.292-.305zm.621.599l.465.448-.293.305-.464-.447.292-.306zm.465.448c.335.323.642.616.982.817l-.215.365c-.38-.225-.705-.535-1.06-.877l.293-.305zm.982.817c.327.193.695.304 1.174.282l.02.423c-.573.027-1.015-.108-1.41-.34l.216-.365zm1.174.282c.517-.024 1.076-.246 1.54-.589l.251.34c-.529.39-1.17.643-1.77.672l-.02-.423zm1.54-.589c.443-.326.796-.76.94-1.232l.404.123c-.171.563-.582 1.072-1.093 1.45l-.251-.34zm.94-1.232l.148-.488.405.122-.149.489-.405-.123zm.148-.488l.172-.569.405.122-.172.57-.405-.123zm.172-.569l.056-.181.186.035-.04.207-.202-.06zm.242-.146c.856.162 1.788.218 2.685.124l.041.42c-.937.098-1.91.04-2.804-.13l.078-.414zm2.685.124c.787-.082 1.546-.282 2.2-.63l.197.373c-.7.374-1.514.589-2.356.677l-.041-.42zm2.2-.63c.955-.51 1.674-1.264 2.19-2.16l.367.21c-.555.962-1.328 1.773-2.36 2.323l-.198-.373zm2.19-2.16l.184.105-.184-.105zm0 0c.591-1.024.922-2.232 1.048-3.475l.42.04c-.132 1.303-.48 2.57-1.1 3.646l-.367-.212zm1.048-3.475c.103-1.014.046-2.396-.166-3.733l.416-.066c.218 1.37.276 2.792.17 3.838l-.42-.04zM41.36 9.82c-.187-1.18-.495-2.32-.92-3.133l.375-.195c.446.853.767 2.04.961 3.261l-.416.067zm-.92-3.133c-.033-.064-.089-.134-.16-.204l.296-.302c.102.1.185.206.24.31l-.376.196zm-.16-.204c-.18-.179-.45-.348-.73-.444l.138-.4c.339.117.667.323.888.542l-.296.302zm-.73-.444c-.258-.09-.519-.114-.705-.016l-.195-.375c.3-.157.679-.132 1.038-.009l-.137.4zm-.705-.016c-.04.02-.075.047-.108.08l-.302-.296c.065-.066.137-.119.215-.16l.195.376zm-.108.08c-.173.175-.325.396-.477.619l-.348-.238c.164-.24.328-.48.523-.677l.302.295zm-.477.619c-.2.292-.4.585-.66.808l-.275-.323c.22-.188.404-.456.587-.723l.348.238zm-.66.808c-.32.272-.689.42-1.031.557l-.157-.393c.311-.125.647-.26.913-.487l.274.323zm-1.031.557l-.156.063-.16-.391.158-.065.158.393zm-.156.063l-.202.083-.077-.206.199-.073.08.196zm-.279-.123c-.136-.37-.304-.699-.498-1.01l.358-.224c.208.332.388.687.537 1.089l-.397.145zm-.498-1.01c-.197-.312-.42-.604-.663-.895l.323-.271c.258.307.492.614.698.942l-.358.225zm-.663-.895c-.19-.225-.372-.394-.57-.544l.256-.336c.222.17.427.358.637.609l-.323.27zm-.57-.544c-.197-.15-.422-.292-.684-.455l.225-.359c.265.166.492.309.715.478l-.256.336zm-.684-.455c-.737-.462-1.355-1.004-1.986-1.557l.278-.32c.617.542 1.222 1.073 1.933 1.518l-.225.359zm-1.986-1.557c-.265-.233-.533-.468-.832-.715l.27-.327c.276.228.56.477.84.723l-.277.319zm-.832-.715c-1.397-1.152-2.69-1.71-4.064-1.796l.026-.423c1.467.092 2.838.68 4.307 1.892l-.27.327zm-4.064-1.796c-1.384-.087-2.863.3-4.62 1.04l-.163-.39C23.868.942 25.406.54 26.863.633l-.027.423zm-4.62 1.04c-.827.348-1.44.758-1.97 1.249l-.287-.31c.567-.525 1.218-.96 2.094-1.33l.164.39zm-1.97 1.249c-.536.495-.996 1.08-1.513 1.77l-.338-.252c.528-.707 1.002-1.308 1.564-1.829l.286.311zm-1.513 1.77l-.06.08-.098.006-.011-.212.17.127zm-.158.086c-.294.015-.54.05-.785.149l-.157-.394c.296-.118.583-.16.92-.178l.022.423zm-.785.149c-.25.099-.505.265-.82.542l-.279-.317c.354-.312.649-.501.942-.619l.157.394zm-.82.542c-.241.214-.477.432-.708.656l-.294-.304c.232-.225.472-.447.723-.669l.28.317zm-.708.656l-.147-.152.147.152zm0 0c-.23.222-.454.448-.674.678l-.305-.293c.223-.233.451-.463.686-.69l.292.306zm-.674.678l-.12.062-.033-.208.153.146zm-.12.062c-1.653.263-2.992.552-4.189 1.016l-.152-.395c1.223-.474 2.59-.769 4.275-1.038l.066.417zM11.28 8.304c-1.186.46-2.233 1.093-3.31 2.047l-.279-.317c1.117-.99 2.204-1.647 3.437-2.125l.152.395zM7.97 10.35c-.436.387-.812.794-1.14 1.224l-.336-.256c.346-.453.741-.88 1.197-1.285l.28.317zm-1.14 1.224c-.328.43-.61.885-.858 1.368l-.377-.192c.258-.503.554-.98.9-1.432l.335.256zm-.858 1.368l-.032.045-.157-.141.189.096zm-.032.045c-.24.266-.48.535-.738.767l-.282-.316c.248-.224.477-.48.706-.733l.314.282zm-.738.767c-.27.243-.562.45-.9.58l-.152-.395c.282-.11.534-.288.77-.5l.282.315zm-.9.58H4.3l-.075-.198.076.197zm-.001 0c-.271.104-.404.156-.554.092l.163-.39c.007.003.075-.034.24-.097l.151.395zm-.554.092h-.001l.083-.195-.082.195zm-.001 0c-.159-.068-.203-.198-.3-.46l.396-.147c.055.15.054.212.07.218l-.166.389zm-.3-.46l-.056-.147.127-.096.126.17-.198.073zm.071-.243c.389-.292.425-.873.46-1.433l.424.026c-.042.655-.085 1.335-.631 1.746l-.253-.339zm.46-1.433l.014-.202.423.03c-.006.076-.01.138-.013.198l-.423-.026zm.014-.202l.015-.206.206.01-.01.211-.211-.015zm.221-.196c.35.016.508.262.68.528l-.356.228c-.11-.17-.21-.327-.343-.333l.02-.423zm.68.528c.047.074.097.15.149.216l-.33.263c-.066-.083-.121-.168-.175-.251l.356-.228zm.19.393l-.097.432-.274-.346.165-.132.206.046zm-.413-.091c.072-.32.126-.738.049-1.081l.411-.093c.095.419.034.902-.047 1.265l-.413-.091zm.049-1.081c-.05-.218-.154-.405-.35-.507l.193-.377c.324.168.493.459.568.791l-.411.093zm-.35-.507L4.2 11.05l.065-.176.199.074-.097.188zm-.102-.262l.124-.318.393.153c-.037.094-.073.187-.12.312l-.397-.147zm.124-.318c.062-.16.126-.323.193-.514l.4.139c-.06.17-.131.352-.2.528l-.393-.153zm.358-.653l.355-.062-.12.34-.2-.07-.035-.208zm.07.416c-.409.071-1.31.577-1.965 1.257l-.306-.293c.714-.74 1.729-1.298 2.2-1.38l.072.416zm-1.965 1.257c-.237.246-.438.512-.566.783l-.383-.177c.15-.32.378-.623.643-.899l.306.293zm-.566.783c-.12.259-.176.523-.131.78l-.417.071c-.06-.348.01-.695.165-1.028l.383.177zm-.131.78c.04.233.165.468.401.695l-.292.306c-.306-.295-.47-.61-.526-.93l.417-.07zm.401.695l.059.103-.205.05.146-.153zm.059.103c.054.218.102.403.154.57l-.403.125c-.054-.174-.105-.366-.16-.594l.409-.101zm.154.57c.05.16.105.303.173.446l-.381.181c-.077-.159-.138-.32-.195-.502l.403-.125zm.173.446c.153.316.393.509.67.598l-.128.403c-.384-.123-.715-.387-.923-.82l.381-.181zm.67.598c.324.104.7.072 1.052-.065l.154.393c-.44.171-.917.209-1.334.075l.129-.403zm1.052-.065l.368-.143-.084.384-.207-.045-.077-.196zm.284.24c-.1.458-.16.937-.18 1.478l-.423-.015c.02-.565.084-1.068.19-1.551l.413.089zm-.18 1.478c-.02.54 0 1.148.061 1.861l-.423.035c-.062-.724-.082-1.346-.061-1.911l.423.015zm.061 1.861c.016.182.035.349.056.502l-.418.056c-.026-.19-.047-.365-.06-.523l.422-.035zm.056.502c.024.168.053.34.086.516l-.414.08c-.034-.178-.064-.358-.09-.54l.418-.056zm.086.516l-.009.112-.198-.072"/>
    <path fill="#FF0" fill-rule="evenodd" stroke="#1F1917" stroke-miterlimit="10" stroke-width=".27" d="M15.551 7.416l-2.784.453-2.54 1.114-2.158 1.357-2.054 2.506-1.16 1.228-1.121.414-.297-.725.519-.75.116-1.055.348.014.38.346-.103-1.075-.421-.283.013-.41-.997.564-.903 1.066-.188.951.386.763.36 1.295.732.346.77-.037.731-.425-.487 2.471.487 2.75-.536 1.27-1.757 1.892.312 1.13.832 1.31 1.57 1.105.832.114.925.031-.577 2.37 2.123.87 2.645.349.905-.592.07-1.601 1.009-1.67.07-1.323 2.436.174 2.262-.209-2.262 1.357.382 1.636 1.427 2.227 1.393.592 1.113-.452.453-.905 2.331-1.775.453.383 3.654.139.731-.592.07-1.044-.244-.452-.174-2.82-1.218-2.436.209-1.078.73.382 2.054 1.915 1.01.07 1.113-.453 1.114-.835.556-1.81 3.272.209 1.984-.766 1.6-1.497 1.15-2.158.278-2.54-.244-2.958-.626-2.645-.627-.836-.87-.278-1.531 1.67-1.392.488-1.218-2.019-1.219-1.114-.66-.417-2.646-2.193-2.123-1.148-2.123-.174-2.47.417-2.159.8-1.496 1.219-1.184 1.427-1.218.348-2.123 2.018z" clip-rule="evenodd"/>
    <path fill="#FFC" fill-rule="evenodd" d="M7.476 13.698c-2.385 2.782-1.855 6.155-1.194 9.46l-1.058-2.673-.39-2.45.111-2.507 1.003-2.396 1.504-2.228 2.34-1.95 2.562-1.058 3.007-.39-2.785 3.175c-2.236.726-3.555 1.214-5.1 3.017z" clip-rule="evenodd"/>
    <path fill="#FFC" fill-rule="evenodd" d="M18.703 5.223C17.045 6.84 16.14 8.06 15.085 9.954c-.755 1.355-1.602 2.66-2.395 3.996-.402.676-.44 1.243-.56 2.023l-1.17-1.392.558-1.671 1.894-3.398 4.01-3.955 1.281-.334zM26.892 1.212c-1.328.498-3.533.662-3.686 2.187-.11 1.082.081 1.626.734 2.77-1.612-1.667-2.01-1.408-5.125-.89l1.337-1.894 2.34-1.448 3.007-.669 1.393-.056z" clip-rule="evenodd"/>
    <path fill="#CC0" fill-rule="evenodd" d="M30.556 21.829c.442.273.432.47.359.657l1.046-.418.678-.91.503-1.297-.643-.483-2.81.358-.21.568.06.807.27.479.418.209.329.03zM30.294 17.024c-1.408.406-1.397.518-1.813 1.915.55-.88.956-1.325 1.813-1.915zM39.66 6.567c-.251.116-.495.172-.651.4-.337.494-.626.908-1.183 1.255-.28.174-.571.287-.869.38-.247.076-.395.008-.605.159l.374.065h.824l1.017-.628.598-.627.494-1.004zM17.225 9.693c-.554 1.516-1.038 2.816-1.878 4.188 1.076-1.159 1.728-2.143 2.344-3.454.239-.508.284-1.106.95-.884.03.509.138 1.017.168 1.525.36-2.582 1.376-3.661 3.736-4.663l-2.002.239-1.883.418-.927 1.346-.508 1.285zM21.798 9.633c.509 2.396 1.242 4.696 1.56 7.13.207 1.582.23 2.341-.566 3.706-.87-.056-1.41.042-2.25.317-3.35 1.098-5.27 2.712-7.527-.54l2.161 1.019 1.54-.303 2.72-1.584 2.123-.419.687-2.87-.508-3.795-.06-1.794.12-.867zM27.567 24.459c-.281 1.947.648 2.993.263 3.53-.109.153-.256.418-.421.491-.589.26-1.398-.048-1.456.104H24.01l-.777-.329 1.195-1.405 1.166-2.54.747-2.571h.389l.837 2.72z" clip-rule="evenodd"/>
    <path fill="#CC0" fill-rule="evenodd" d="M24.301 18.8c.158.884.432 1.094.848 1.95-.277 1.395-.721 3.055-1.256 4.287-.226.52-.408.805-.806 1.207-.671.678-1.35 1.269-2.112 1.857-.548.422-.931.21-1.607.114-.288.522-.368.812-.897 1.076-.814.407-1.543-.47-2.182-.986l1.384 2.162.957.897.807.12c.358-.22.717-.44 1.076-.658l.567-1.076 1.196-.897 1.465-1.255.926-1.316.837-1.554L26.58 21.5l.09-1.226-1.345-.598c-.329-.308-.695-.567-1.024-.876zM13.578 25.027c1.509 0 3.102-.084 4.484-.717.39-.587.777-1.066 1.255-1.585-.435.823-.572 1.288-.687 2.212l-.449.658-3.407.09-1.106-.12-.12-.12.03-.418zM13.369 23.98c-.04-.353-.078-.707-.117-1.06-.258 1.55-.196 2.59-.91 3.98-.534.618-1.19 1.18-1.942 1.482.063.38.082.619.045.898-.132 1.005-2.142.561-2.97.521l3.98 1.025.897-.359.3-1.734.836-1.554.15-.956-.27-2.242zM11.127 15.223c-.042.754-.09 1.069.242 1.735.423.847.943 1.643 1.402 2.48l.15-1.674-1.794-2.541zM4.99 20.922l-.387.826c.356 1.2.672 1.96 1.35 3.007-.118.425-.206.61-.478.957-.597-.092-1.127-.119-1.731-.117l2.002 1.554.987-.179.986-.986-1.405-2.182-1.323-2.88zM39.663 6.17c.407 1.83.931 3.518.883 5.39-.06 2.3-.508 5.202-2.638 6.588-2.384 1.553-5.184.819-7.8.154l3.198 1.315 2.989.15 2.032-.599 1.585-1.315 1.195-2.51.449-2.9-.359-2.84-.658-2.81-.876-.623zM4.074 11.622c-1.083.705-1.508 1.014-1.39 2.32l.324 1.174.459.31.566.189 1.025-.243.527-1.632-1.457.715H3.79l-.378-.58.459-.675.242-1.281.31.094.378.297-.054-.674-.256-.432-.256-.216-.162.634zM28.364 1.331c.96.893 2.14 1.668 2.908 2.759.298.422.628.638-.005 1.234.67-.191.918-.17 1.453-.105.974.117 1.887 1.502 1.945 2.494-.012.093-.27.303-1.024.511-.015.029-.425-.056-.414-.028.078.214.182.247.342.347.035.238.057.605.22.866.473-.009.936.043 1.4.135.156.259.133.518.12.777l.538-.09-.15-1.225.478-.807-.687-1.555-1.315-1.255-.127-.006-1.479-.908L30.155 2.5l-1.791-1.17zM29.982 8.696c-.05.089-.127.23-.225.328.4.379.598.632.74 1.168l-1.357.674-1.149 1.1c-.503-.27-.629-.479-.873-.996-.284.075-.553.148-.787.062.149 0 .24-.036.389-.128l.73-.76 1.291-.977.845-.276c.108-.044.289-.15.396-.195z" clip-rule="evenodd"/>
    <path fill="#CC0" fill-rule="evenodd" d="M31.231 10.046c-1.44.775-2.818 1.555-3.554 3.027 0-1.869 1.876-2.691 3.554-3.027zM27.391 6.371c-1.069.729-1.824 2.2-1.73 3.633-.348-1.241-.224-2.414.845-3.271l.54-.263.345-.099z" clip-rule="evenodd"/>
    <path fill="#000" fill-rule="evenodd" d="M29.434 17.435c.221-.12.622-.285.843-.406-.227.039-.635.122-.862.16-.607.103-.678.249-.772.846-.045.282-.106.631-.15.913.119-.319.262-.689.4-.992.147-.321.23-.351.541-.521zM18.172 2.044c.477-.716.752-.949 1.486-1.402-.997.24-1.187.425-1.486 1.402zm-.157 1.576c.835-1.678 1.467-2.296 3.214-3.12-1.976.484-2.557.829-3.214 3.12zM.14 12.354c.183-.84.354-1.157.872-1.847-.84.587-.95.829-.872 1.847zm18.71 14.063l-.076-.611c-.046-.37-.044-.67-.015-1.042l.085-1.08c-.105.366-.314.732-.419 1.098-.042.146-.077.265-.096.374-1.564.32-3.117.34-4.682.06-.1-.579-.221-1.182-.323-1.615-.03.485-.011 1.824-.014 2.575-.001.58-.026.78-.325 1.274-.281.463-.4.568-.793 1.35.033.493.034.82-.098 1.288-.218.778-2.417.175-2.997.016-.714-.195-2.191-.486-1.82-1.438.327-.839.534-1.723.694-2.896-1.31-1.885-2.526-4.47-2.76-6.759-.181-1.778-.073-2.872.312-3.96.61-1.722 1.462-3.214 2.83-4.415 1.847-1.62 3.572-2.27 6.274-2.68-.65.726-1.293 1.495-1.993 2.32-.71.835-1.131 1.678-1.581 2.591-.622 1.261-.61 1.741.216 2.848.71.954 1.094 1.384 1.404 2.317-.256.529-.35.975-.435 1.696.87.951 1.516 1.603 2.361 1.804.829.197 1.521.159 2.262-.22 1.647-.842 3.17-1.93 5.028-1.974.86-2.113.773-3.878.36-5.922-.282-1.396-.394-2.718-.482-4.141-.349 1.465-.414 2.754-.155 4.214.311 1.76.553 3.703-.313 5.25-1.68.128-3.12 1.15-4.633 1.934-.609.316-1.242.346-1.916.161-.625-.171-1.047-.585-1.72-1.362-.011-.78.165-1.14.523-1.846.575-1.134 1.21-2.19 1.907-3.306-.853 1.03-1.662 1.89-2.333 2.927-.257-.732-.624-1.103-1.232-1.927-.594-.805-.657-1.157-.212-2.088.446-.935.825-1.758 1.585-2.578 1.313-1.419 2.517-2.997 3.953-4.394.78-.759 1.096-.732 2.13-.89.936-.14 1.849-.32 2.802-.541-.922.086-1.813.117-2.711.14h-.028c.883-1.128 1.396-1.757 2.83-2.38 3.533-1.534 5.777-1.7 8.551.633.72.604 1.347 1.19 2.076 1.712-.264.023-.492.07-.793.189.367-.07.79 0 1.17.069.108.069.217.136.33.203.514.303.807.47 1.155.956.368.512.674 1.024.945 1.589-.177-.063-.326-.117-.458-.156-.098-.045-.204-.074-.316-.085-.223-.022-.436.033-.613.142l-.022.01c-.284.139-.725.297-1.02.345.15.052.483.071.64.01.02-.01.042-.016.064-.02-.07.12-.117.257-.131.405-.019.196.02.384.105.547l.001.002c.027.063.064.12.105.162-.135.05-.273.107-.415.168.658-.1 1.252-.117 1.894-.033.042.203.085.417.125.636l-.239.018-.02.002c-.303-.243-.642-.202-1.105-.096-1.406.32-1.076 1.11-1.723 2.3.672-.822.622-1.682 1.717-1.941.256-.06.43-.136.602-.11-.31.156-.58.416-.687.717-.3.848-.113 1.564-.444 2.357.41-.71.434-1.401.8-2.147.131-.268.619-.696.918-.703l.246-.005c.073.472.116.94.089 1.329-.051.709-.236 1.761-.346 2.164.37-.476.54-1.485.702-2.195.17-.74.127-1.627-.022-2.422-.203-1.09.92-.912 1.571-1.426.48-.378.809-.98 1.248-1.408.436-.423 1.122.199 1.293.613.743 1.798 1.081 4.626.885 6.438-.22 2.033-1.202 4.253-2.996 5.254-2.286 1.276-4.982.497-7.253-.269-.485-.163-.822-.4-1.248-.67.116.523.169 1.076.014 1.598-.245.828-.64 2.182.483 2.432.428.095.622.082 1.226-.23-.489.11-.735.083-1.071.021-.305-.056-.466-.25-.551-.477.106.076.28.118.576.19.834.2 1.628-.2 1.783-.779.09-.337.075-.514.267-.974.172.053.35.101.534.145l-.31 1.01c-.268.874-1.311 1.578-2.233 1.562-.852-.015-1.391-.548-1.98-1.071-.404-.36-.794-.706-1.18-1.047-1.06-.335-1.91-.726-2.894-1.454.7.823 1.175 1.278 2.151 1.688-.142 1.448-.645 2.504-1.074 3.89-.194.628-1.728 3.139-2.153 3.384-.303.175-2.201 1.773-2.558 1.984-.266.353-.5.841-.9 1.052-1.217.645-2-.589-2.656-1.63-.298-.475-1.127-1.842-.405-2.225.684-.362 1.066-.62 1.763-1.078.103.187.278.367.393.553zm4.235 2.209c-.617.498-1.654 1.38-1.855 1.49-.364.544-.41.881-.993 1.197-1.738.94-2.66-.15-3.689-1.735-.49-.756-1.561-2.48-.424-3.065.479-.246.842-.43 1.204-.642-1.193.148-2.364.15-3.581-.033.021.147.04.287.056.415.079.665.105.869-.257 1.405-.263.39-.365.504-.683 1.214.058.577.033.902-.13 1.507-.362 1.344-2.871.607-3.894.33-1.23-.332-2.988-.642-2.267-2.224.17-.37.302-.75.402-1.11-1.076.476-2.57-.534-3.282-1.248-.678-.68-1.045-1.468-1.174-2.233-.109-.65-.009-.648.456-1.108l1.275-1.263.515-1.4c-.067-.35-.117-.697-.146-1.042-.124-1.436-.082-2.459.123-3.4-.749.293-1.607.156-1.99-.638-.145-.302-.231-.61-.34-1.056-1.67-1.61 1.458-3.718 2.371-3.877-.104.297-.219.568-.32.837.62.32.544 1.233.413 1.821-.223-.28-.346-.648-.674-.664-.048.665-.04 1.4-.559 1.79.154.41.146.411.583.243.62-.239 1.087-.77 1.557-1.29.506-.986 1.155-1.863 2.048-2.654 2.193-1.945 4.266-2.581 7.604-3.113.445-.464.904-.911 1.397-1.346.668-.59 1.101-.712 1.733-.745 1.045-1.398 1.867-2.371 3.57-3.088 3.572-1.503 6.034-1.576 8.9.788.948.78 1.755 1.604 2.797 2.255.526.33.903.567 1.302 1.043.503.599.913 1.197 1.198 1.968.37-.152.79-.295 1.13-.585.438-.375.718-1.003 1.124-1.414.539-.547 1.769.113 2.041.634.927 1.773 1.306 5.04 1.109 6.984-.243 2.402-1.234 4.672-3.35 5.801-1.439.768-3.37.84-5.022.527l-.321 1.057c-.322 1.056-1.576 1.92-2.672 1.971-1.052.05-1.622-.493-2.312-1.157-.362-.35-.725-.698-1.087-1.046-.02.237-.052.465-.09.685.284.563.421 1.058.665 1.638.268.639.399 1.058.417 1.742l.05 1.821c.27.481.293.598.254 1.149-.083 1.16-.722 1.27-1.787 1.264-.355-.003-1.694.006-2.035-.019-.679-.049-1.126-.1-1.36-.381zm3.59-6.329c-.214.765-.502 1.488-.764 2.315-.25.784-1.525 3.059-2.276 3.61.146.11.415.152.892.193.339.03 1.672.036 2.006.041.737.013 1.017-.042 1.091-.881.037-.411.005-.488-.2-.848-.02-.642-.037-1.284-.055-1.927-.017-.608-.134-.96-.374-1.527-.143-.34-.22-.656-.32-.976zM4.233 11.787c.165-.018.267.069.395.197-.023-.306-.08-.532-.294-.657-.015.05-.03.1-.043.15-.026.098-.044.202-.058.31zm1.039 2.208c-.12.308-.23.626-.334.954l-.05.163c-.629.267-1.456.436-1.773-.225-.154-.32-.24-.636-.353-1.041-1.036-1.074.513-2.49 1.357-3-.122.263-.209.462-.268.666-.257.887.116 1.678-.689 2.32.379.764.361 1.068 1.24.716.34-.136.62-.327.87-.553zm-.243 7.224c.477 1.65 1.29 3.27 2.19 4.633v.023c-.057.235-.122.463-.259.646-.643.861-2.28-.403-2.754-.887-.518-.529-.865-1.155-.948-1.742-.06-.429-.001-.44.298-.742l1.209-1.224.264-.707zM35.504 7.98c.092.09.166.199.217.319.028-.026.057-.05.089-.073-.038-.085-.077-.169-.116-.251l-.19.005zm-7.884 2.967c-.084-.176-.124-.362-.125-.545-.309.247-.645.48-.993.616.48-.43 1.134-1.443 1.608-1.763.537-.363 1.267-.293 1.893-.583-.213.195-.488.351-.767.5.308.113.573.34.725.659.064.134.102.274.118.414.42-.138.834-.204 1.183-.199-1.249.35-2.577 1.17-3.494 2.257.103-.284.247-.54.42-.767-.24-.126-.442-.326-.568-.589zm-5.792-4.518c-.69.269-1.318.47-1.99.64-.614.806-.988 1.224-1.13 2.304-.165-1.063-.2-1.26.273-2.054-.137.07-.264.166-.447.322-.661.565-1.523 2.787-1.867 3.58.218-.955.902-3.344 1.607-4.04.463-.459.569-.448 1.222-.51.778-.074 1.555-.154 2.332-.242zm14.397 2.317c.559.053.879.14 1.38-.108.934-.462 1.62-1.217 2.066-2.119-.272 1.077-.82 1.991-1.958 2.397-.56.2-.92-.006-1.488-.17zm-10.739.106c.211-.934.586-1.833 2.035-2.53-1.921.482-2.282 1.289-2.035 2.53zM.57 13.879c.165-1.867.528-2.673 1.854-4.078C.76 10.974.344 11.506.57 13.88z" clip-rule="evenodd"/>
    <path fill="#FFC" fill-rule="evenodd" d="M27.871 11.248c-.128-.269-.013-.592.256-.72.27-.129.593-.014.722.255.012.025.022.051.03.078-.258.19-.493.415-.69.676-.134-.054-.252-.151-.318-.29zM33.887 8.92c.021-.222.211-.386.434-.365.222.022.386.22.365.443-.005.047-.017.092-.037.133-.203.034-.407.094-.617.171-.087-.09-.157-.254-.145-.382z" clip-rule="evenodd"/>
</svg>
