<svg width="51" height="40" viewBox="0 0 51 40" fill="none" xmlns="http://www.w3.org/2000/svg">
<path d="M8.53571 33.7729H4.9541V34.8536H5.95581V38.799H4.9541V39.8818H8.53571V38.799H7.5318V34.8536H8.53571V33.7729Z" fill="black"/>
<path d="M14.4162 33.6522C13.9515 33.6522 13.5219 33.7267 13.1296 33.8736C12.7372 34.0204 12.4084 34.2309 12.1432 34.5027C11.867 34.7832 11.6566 35.1208 11.5119 35.5153C11.3673 35.9099 11.2949 36.3483 11.2949 36.8327C11.2949 37.3522 11.3716 37.8103 11.5229 38.207C11.6741 38.6037 11.8889 38.9347 12.1651 39.1999C12.4413 39.4652 12.7701 39.6668 13.1537 39.8005C13.5395 39.9342 13.9581 40 14.4118 40C14.7165 40 14.9576 39.9868 15.133 39.9562C15.3083 39.9255 15.4946 39.8816 15.6941 39.8246C15.8475 39.7808 15.9944 39.7282 16.1325 39.669C16.2728 39.6076 16.4196 39.5441 16.5709 39.4761V38.0163H16.4087C16.3342 38.0821 16.2399 38.1588 16.1259 38.2486C16.0097 38.3385 15.8848 38.4218 15.7511 38.5007C15.5933 38.5994 15.4201 38.6761 15.2338 38.7331C15.0453 38.7901 14.8568 38.8186 14.6661 38.8186C14.4666 38.8186 14.2628 38.7879 14.0589 38.7221C13.8529 38.6585 13.6688 38.5511 13.5 38.4021C13.3378 38.253 13.2019 38.0514 13.0923 37.7949C12.9849 37.5385 12.9301 37.2184 12.9301 36.8371C12.9301 36.471 12.9805 36.1598 13.0813 35.9033C13.18 35.6468 13.3115 35.4408 13.4715 35.2852C13.6425 35.123 13.8266 35.009 14.0261 34.9389C14.2255 34.8687 14.4359 34.8336 14.6573 34.8336C14.8568 34.8336 15.0431 34.8643 15.2185 34.9235C15.3938 34.9827 15.556 35.0572 15.7073 35.1449C15.8541 35.2304 15.9856 35.3202 16.1018 35.4101C16.218 35.5 16.3144 35.5767 16.3911 35.6425H16.5709V34.1607C16.4591 34.1059 16.3298 34.0467 16.1807 33.9832C16.0317 33.9174 15.8651 33.8604 15.6832 33.8078C15.5078 33.7618 15.3171 33.7245 15.1111 33.696C14.9028 33.6675 14.6727 33.6522 14.4162 33.6522Z" fill="black"/>
<path d="M22.952 33.7729H21.1393L18.8838 39.8818H20.4729L20.8982 38.65H23.158L23.5811 39.8818H25.2075L22.952 33.7729ZM21.2774 37.5277L22.027 35.3424L22.7766 37.5277H21.2774Z" fill="black"/>
<path d="M33.4798 33.7729H32.0332V37.2713L29.804 33.7729H27.9189V39.8818H29.3656V35.6887L31.9587 39.8818H33.4798V33.7729Z" fill="black"/>
<path d="M42.4291 33.7725H40.9824V37.2708L38.7532 33.7725H36.8682V39.8813H38.3148V35.6882L40.9079 39.8813H42.4291V33.7725Z" fill="black"/>
<path d="M25.4979 -3.43323e-05C24.5615 -5.72205e-06 23.6069 0.0949516 22.6463 0.286591C21.0506 0.641685 19.6412 1.40666 18.2296 2.1848C13.5762 4.46439 10.6105 9.24937 11.0204 14.4289L13.2868 13.7713C13.0106 10.1196 13.9992 6.87551 16.2788 4.22767C17.6641 11.5816 20.6561 18.2647 25.1101 24.3561C25.5168 24.3823 25.9104 24.4084 26.3008 24.4084C26.6952 24.4084 27.0862 24.3817 27.4839 24.3013C25.9145 22.7209 24.6629 21.02 23.396 19.319C25.3336 18.4357 27.2976 17.5261 29.0511 16.2876C28.8144 15.6958 28.6434 15.0492 28.341 14.5209C26.4954 15.9194 24.584 17.1315 22.5411 18.0412C21.592 16.6186 20.7744 15.1544 19.9832 13.6771V13.5324C22.1575 12.649 24.253 11.5553 26.2038 10.1196C25.8619 9.48609 25.4936 8.82633 25.1101 8.26081C23.2776 9.68337 21.3926 11.0029 19.4154 12.0572H19.2182C18.0192 9.51239 17.0701 6.8492 16.3709 4.083C17.0175 3.35748 17.7562 2.65825 18.5058 2.09274L20.6955 1.47243C26.2038 7.65365 29.7898 14.6678 31.7538 22.2584C32.2689 21.7455 32.7292 21.191 32.8476 20.5071C32.4662 19.4374 32.19 18.3437 31.7012 17.3288C31.4513 16.577 30.9625 15.8799 30.8047 15.1412C32.2426 14.0869 33.6257 12.9406 34.9825 11.6736C34.9562 10.7245 34.7195 9.85653 34.2723 9.06524H34.1671C32.8344 10.5667 31.3198 12.0309 29.803 13.2956C28.9854 11.9652 28.2336 10.6062 27.3392 9.30198C28.867 8.14244 30.3444 6.74399 31.7012 5.26884C31.2146 4.63537 30.5811 3.96245 29.8556 3.71257C28.696 5.0058 27.3919 6.3626 26.0592 7.45638C24.4525 5.4135 22.7121 3.38377 20.7876 1.52503C21.5712 1.34749 22.4639 1.25871 23.3552 1.25871C24.2464 1.25871 25.1364 1.34749 25.9145 1.52503C30.4496 2.34262 34.8641 6.7966 35.5896 11.3448C36.5519 16.4323 34.7326 21.112 30.5679 24.2092C29.0922 24.7445 27.5188 25.0158 25.9511 25.0158C22.5756 25.0158 19.2283 23.7571 16.9517 21.1646C18.5321 20.9016 20.0358 20.426 21.5526 19.9394C21.3268 19.558 21.0506 19.2007 20.8797 18.793C16.6906 20.4757 12.1251 21.4439 7.31092 21.4439C6.73191 21.4439 6.14846 21.4299 5.5625 21.4014C7.20189 21.6122 8.87574 21.7037 10.56 21.7037C11.6254 21.7037 12.695 21.6671 13.7625 21.6008C14.8826 22.9971 16.3051 24.1172 17.7562 24.9216C19.411 25.8426 21.4672 26.3018 23.5376 26.3018C26.0004 26.3018 28.4831 25.6517 30.3312 24.3561C32.4135 23.4728 34.417 21.9165 35.8264 19.9394C38.4896 16.5375 38.8973 10.924 36.9201 7.07497L36.0653 5.61078C33.5723 1.92331 29.7136 -0.000196457 25.4979 -3.43323e-05Z" fill="black"/>
<path d="M17.9408 12.7697C14.2759 14.4816 10.3217 15.5228 6.07812 15.8538C6.36755 15.8582 6.65732 15.8604 6.94691 15.8604C8.3702 15.8604 9.78704 15.8074 11.113 15.7091C11.3892 17.3815 11.9569 18.9509 12.8665 20.3604C13.8156 20.1762 14.7647 20.0184 15.659 19.7422C14.8568 18.6748 14.2891 17.4867 13.8682 16.2352C13.8025 15.9327 13.5767 15.5754 13.763 15.286C15.396 14.9836 16.9917 14.6131 18.5063 14.0476L17.9408 12.7697Z" fill="black"/>
<path d="M25.1449 29.9056C16.5087 29.9058 7.86366 30.753 0 32.4224C7.88605 31.5646 16.1256 31.1605 24.3744 31.1605C33.1126 31.1605 41.861 31.614 50.2082 32.4619C42.3787 30.7493 33.7663 29.9054 25.1449 29.9056Z" fill="black"/>
</svg>
