<?xml version="1.0" encoding="utf-8"?>
<!-- Generator: Adobe Illustrator 27.9.0, SVG Export Plug-In . SVG Version: 6.00 Build 0)  -->
<svg version="1.1" id="_x2018_ëîé_x5F_1" xmlns="http://www.w3.org/2000/svg" xmlns:xlink="http://www.w3.org/1999/xlink"
	 x="0px" y="0px" viewBox="0 0 269.53 477.31" style="enable-background:new 0 0 269.53 477.31;" xml:space="preserve">
<style type="text/css">
	.st0{clip-path:url(#SVGID_00000056405076556210171110000011432167234454600107_);}
	.st1{opacity:0.2;fill:#585858;}
	.st2{fill:#585858;}
	.st3{clip-path:url(#SVGID_00000037685587500327384360000001763553076278460808_);}
</style>
<g>
	<defs>
		<rect id="SVGID_1_" x="-20" y="-4.01" width="300" height="500"/>
	</defs>
	<clipPath id="SVGID_00000024692157537737664010000015059023797732114866_">
		<use href="#SVGID_1_"  style="overflow:visible;"/>
	</clipPath>
	<g style="clip-path:url(#SVGID_00000024692157537737664010000015059023797732114866_);">
		<path class="st1" d="M209.96,856.35l0.44-0.26l0.02-0.04L226.05,829l15.68,27.17c0.05,0.09,0.13,0.15,0.23,0.17
			c0.1,0.03,0.2,0.01,0.28-0.04c0.09-0.05,0.15-0.13,0.17-0.23c0.03-0.1,0.01-0.2-0.04-0.28l-15.68-27.16h31.37
			c0.21,0,0.37-0.17,0.37-0.37c0-0.21-0.17-0.37-0.37-0.37h-31.8l-15.79-27.35l15.79-27.35h31.8c0.21,0,0.37-0.17,0.37-0.37
			c0-0.21-0.17-0.37-0.37-0.37l-63.82,0l-15.58-26.98h31.59l0.11-0.19l15.9-27.54h31.8c0.21,0,0.37-0.17,0.37-0.37
			c0-0.21-0.17-0.38-0.37-0.38H226.7l15.79-27.35l-0.11-0.19l-31.91-55.27l15.58-26.98l15.68,27.17c0.05,0.09,0.13,0.15,0.23,0.17
			c0.1,0.03,0.2,0.01,0.28-0.04c0.09-0.05,0.15-0.13,0.18-0.23c0.02-0.1,0.01-0.2-0.04-0.28l-15.68-27.17h31.37
			c0.21,0,0.37-0.17,0.37-0.37c0-0.21-0.17-0.37-0.37-0.37H226.7l15.79-27.36l-0.11-0.19l-32.12-55.64h-32.02l-15.79-27.35
			l15.58-26.98l15.79,27.35l0.1,0l32.59-0.42l0.05-0.08l15.93-27.6l-0.11-0.19l-15.68-27.17h31.37c0.21,0,0.37-0.17,0.37-0.37
			c0-0.21-0.17-0.37-0.37-0.37H226.7l15.68-27.17c0.05-0.08,0.07-0.18,0.04-0.28c-0.02-0.1-0.09-0.18-0.17-0.23
			c-0.18-0.1-0.41-0.04-0.51,0.14l-15.68,27.17l-15.79-27.35h-31.59l15.58-26.98h32.01l0.11-0.19l16.01-27.73
			c0.05-0.08,0.06-0.18,0.04-0.28c-0.03-0.1-0.09-0.18-0.18-0.23c-0.09-0.05-0.19-0.06-0.28-0.04c-0.1,0.03-0.18,0.09-0.23,0.17
			l-15.68,27.17l-15.58-26.98l16.01-27.73l-0.11-0.19l-16.12-27.91h-3.89v0h-27.69l15.58-26.98h31.85l0.04-0.02c0,0,0.01,0,0.02,0
			c0.02,0,0.05,0,0.08-0.02l0,0c0,0,0,0,0,0l0,0l0.04-0.02l0.02-0.03l0,0c0.03-0.03,0.05-0.06,0.06-0.08
			c0.01-0.01,0.04-0.04,0.05-0.09l0.01-0.04l0-0.01l0-0.04c0,0,0,0,0,0v-0.04l-0.02-0.04c0,0,0-0.01,0-0.01v-0.02l-0.02-0.07l0,0
			c0,0,0,0,0,0l-15.9-27.54l15.92-27.58l0-0.05c0.01-0.02,0.03-0.06,0.03-0.1l-0.01-0.06c0-0.01,0-0.02-0.01-0.03l-0.01-0.04
			l-0.05-0.06c-0.01-0.02-0.03-0.05-0.05-0.07l-0.01-0.02l-0.05-0.04c-0.03-0.02-0.07-0.03-0.09-0.03l-0.01-0.01l-0.08-0.01h-31.8
			l-15.58-26.98h31.59l16.28-28.19l-0.85-0.28h-31.44l-15.58-26.98h31.29l0.44-0.25l0.02-0.04l15.62-27.06l15.68,27.17
			c0.05,0.09,0.13,0.15,0.23,0.17c0.1,0.03,0.2,0.01,0.28-0.03c0.09-0.05,0.15-0.13,0.18-0.23c0.03-0.1,0.01-0.2-0.04-0.28
			l-16.11-27.91h-32.02L178.67,80h31.59l0.11-0.19l15.69-27.17l15.68,27.17c0.05,0.09,0.13,0.15,0.23,0.17
			c0.1,0.03,0.2,0.01,0.28-0.04c0.09-0.05,0.15-0.13,0.18-0.23c0.03-0.1,0.01-0.2-0.04-0.28l-15.8-27.37v-0.33l15.91-27.56
			L226.7-3.18h31.37c0.21,0,0.37-0.17,0.37-0.37c0-0.21-0.17-0.37-0.37-0.37h-64.25l-0.11,0.19l-15.68,27.17L162.45-3.56
			l15.79-27.35h32.02l0.11-0.19l16.05-27.79l-0.21-0.6l-15.73-27.25l15.7-27.19l0.29-0.17h31.61c0.21,0,0.37-0.17,0.37-0.37
			c0-0.2-0.17-0.37-0.37-0.37H226.7L242.38-142c0.05-0.08,0.06-0.18,0.04-0.28c-0.03-0.1-0.09-0.18-0.17-0.23
			c-0.09-0.05-0.19-0.06-0.28-0.04c-0.1,0.03-0.18,0.09-0.23,0.18l-15.68,27.17l-15.58-26.98l32.02-55.45L226.7-225h31.37
			c0.21,0,0.37-0.17,0.37-0.37c0-0.21-0.17-0.38-0.37-0.38h-31.8l-16.01-27.73h-31.59l15.58-26.98l63.82,0
			c0.21,0,0.37-0.17,0.37-0.37c0-0.21-0.17-0.37-0.37-0.37h-31.8l-15.79-27.35l15.79-27.35h31.8c0.21,0,0.37-0.17,0.37-0.37
			c0-0.21-0.17-0.37-0.37-0.37H226.7l15.68-27.17c0.05-0.08,0.07-0.18,0.04-0.28c-0.03-0.1-0.09-0.18-0.18-0.23
			c-0.08-0.05-0.18-0.06-0.28-0.04c-0.1,0.03-0.18,0.09-0.23,0.18l-15.68,27.16l-15.65-27.1l-0.44-0.26h-64.17L130-337.03
			l-15.79-27.35H50.04l-0.44,0.26l-0.02,0.04l-15.62,27.06l-15.68-27.17c-0.05-0.09-0.13-0.15-0.23-0.18
			c-0.1-0.03-0.2-0.01-0.28,0.04c-0.09,0.05-0.15,0.13-0.17,0.23c-0.03,0.1-0.01,0.2,0.04,0.28l15.68,27.16H1.93
			c-0.21,0-0.37,0.17-0.37,0.37c0,0.21,0.17,0.37,0.37,0.37h31.8l15.79,27.35L33.74-281.2H1.93c-0.21,0-0.37,0.17-0.37,0.37
			c0,0.21,0.17,0.37,0.37,0.37l63.82,0l15.58,26.98H49.74l-0.11,0.19l-15.9,27.54H1.93c-0.21,0-0.37,0.17-0.37,0.37
			c0,0.21,0.17,0.38,0.37,0.38H33.3l-15.79,27.35l0.11,0.19l31.91,55.27l-15.58,26.98l-15.68-27.17c-0.05-0.09-0.13-0.15-0.23-0.17
			c-0.1-0.03-0.2-0.01-0.28,0.04c-0.09,0.05-0.15,0.13-0.18,0.23c-0.02,0.1-0.01,0.2,0.04,0.28l15.68,27.17H1.93
			c-0.21,0-0.37,0.17-0.37,0.37c0,0.21,0.17,0.37,0.37,0.37H33.3L17.51-86.73l0.11,0.19l32.12,55.64h32.02L97.55-3.56L81.98,23.42
			L66.18-3.93l-0.1,0L33.49-3.51l-0.05,0.08l-15.93,27.6l0.11,0.19L33.3,51.53H1.93c-0.21,0-0.37,0.17-0.37,0.37
			c0,0.21,0.17,0.37,0.37,0.37H33.3L17.62,79.44c-0.05,0.08-0.07,0.18-0.04,0.28c0.02,0.1,0.09,0.18,0.17,0.23
			c0.18,0.1,0.41,0.04,0.51-0.14l15.68-27.17L49.74,80h31.59l-15.58,26.98H33.74l-0.11,0.19l-16.01,27.73
			c-0.05,0.08-0.06,0.18-0.04,0.28c0.03,0.1,0.09,0.18,0.18,0.23c0.09,0.05,0.19,0.06,0.28,0.04c0.1-0.03,0.18-0.09,0.23-0.17
			l15.68-27.17l15.58,26.98L33.52,162.8l0.11,0.19l16.12,27.91h3.89v0h27.69l-15.58,26.98H33.91l-0.04,0.02c0,0-0.01,0-0.02,0
			c-0.02,0-0.05,0-0.08,0.02l0,0c0,0,0,0,0,0l0,0l-0.04,0.02l-0.02,0.03l0,0c-0.03,0.03-0.04,0.05-0.06,0.08c0,0,0,0,0,0v0
			c0,0,0,0,0,0c-0.01,0.01-0.04,0.04-0.05,0.09l-0.01,0.04l0,0.01l0,0.04c0,0,0,0,0,0v0.04l0.02,0.04c0,0,0,0.01,0,0.01v0.02
			l0.02,0.07l0,0c0,0,0,0,0,0l15.9,27.54L33.6,273.56l0,0.05c-0.01,0.02-0.03,0.06-0.03,0.1l0.01,0.06c0,0.01,0,0.02,0.01,0.03
			l0.01,0.04l0.05,0.06c0.01,0.02,0.03,0.05,0.05,0.07l0.01,0.02l0.05,0.04c0.03,0.02,0.07,0.03,0.09,0.03l0.01,0.01l0.08,0.01h31.8
			l15.58,26.98H49.74l-16.28,28.19l0.85,0.28h31.44l15.58,26.98H50.04l-0.44,0.25l-0.02,0.04l-15.62,27.06l-15.68-27.17
			c-0.05-0.09-0.13-0.15-0.23-0.17c-0.1-0.03-0.2-0.01-0.28,0.03c-0.09,0.05-0.15,0.13-0.18,0.23c-0.03,0.1-0.01,0.2,0.04,0.28
			l16.11,27.91h32.02l15.58,26.98H49.74l-0.11,0.19l-15.69,27.17l-15.68-27.17c-0.05-0.09-0.13-0.15-0.23-0.17
			c-0.1-0.03-0.2-0.01-0.28,0.04c-0.09,0.05-0.15,0.13-0.18,0.23c-0.03,0.1-0.01,0.2,0.04,0.28l15.8,27.37v0.33L17.51,467.8
			l15.79,27.35H1.93c-0.21,0-0.37,0.17-0.37,0.37c0,0.21,0.17,0.37,0.37,0.37h64.25l0.11-0.19l15.68-27.17l15.58,26.98l-15.79,27.35
			H49.74l-0.11,0.19l-16.05,27.79l0.21,0.6l15.73,27.25l-15.7,27.19l-0.29,0.17H1.93c-0.21,0-0.37,0.17-0.37,0.37
			c0,0.2,0.17,0.37,0.37,0.37H33.3l-15.68,27.17c-0.05,0.08-0.06,0.18-0.04,0.28c0.03,0.1,0.09,0.18,0.17,0.23
			c0.09,0.05,0.19,0.06,0.28,0.04c0.1-0.03,0.18-0.09,0.23-0.18l15.68-27.17l15.58,26.98l-32.02,55.45l15.79,27.35H1.93
			c-0.21,0-0.37,0.17-0.37,0.37c0,0.21,0.17,0.38,0.37,0.38h31.8l16.01,27.73h31.59l-15.58,26.98l-63.82,0
			c-0.21,0-0.37,0.17-0.37,0.37c0,0.21,0.17,0.37,0.37,0.37h31.8l15.79,27.35l-15.79,27.35H1.93c-0.21,0-0.37,0.17-0.37,0.37
			c0,0.21,0.17,0.37,0.37,0.37H33.3l-15.68,27.17c-0.05,0.08-0.07,0.18-0.04,0.28c0.03,0.1,0.09,0.18,0.18,0.23
			c0.08,0.05,0.18,0.06,0.28,0.04c0.1-0.03,0.18-0.09,0.23-0.18L33.95,829l15.65,27.1l0.44,0.26h64.17L130,829l15.79,27.35H209.96z
			 M242.16,634.34L242.16,634.34L242.16,634.34L242.16,634.34z M242.16,79.81L242.16,79.81L242.16,79.81
			C242.16,79.81,242.16,79.81,242.16,79.81z M17.84-142.37L17.84-142.37L17.84-142.37L17.84-142.37z M225.4-58.63l-15.58,26.98
			h-31.16l15.58-26.98H225.4z M178.02-32.03l-15.58-26.98l15.58-26.98l15.58,26.98L178.02-32.03z M177.38-31.66h-31.15l-15.58-26.98
			h31.15L177.38-31.66z M209.83-86.36l15.58,26.98h-31.16l-15.58-26.98H209.83z M177.38-86.36L161.8-59.38h-31.15l15.58-26.98
			H177.38z M145.58-86.74L130-59.76l-15.58-26.98L130-113.71L145.58-86.74z M129.35-59.38H98.2L82.62-86.36h31.15L129.35-59.38z
			 M225.4-114.09l-15.58,26.98h-31.15l15.58-26.98H225.4z M193.6-114.46l-15.79,27.35h-31.58l-15.58-26.98h31.58l15.79-27.35
			L193.6-114.46z M209.83-141.82l15.58,26.98h-31.16l-15.58-26.98H209.83z M177.38-141.82l-15.58,26.98h-31.15l15.58-26.98H177.38z
			 M193.66-169.92c0,0.21,0.17,0.37,0.37,0.37h31.37l-15.58,26.98h-31.59l-15.79-27.35l15.79-27.35h31.59l15.58,26.98h-31.37
			C193.83-170.29,193.66-170.12,193.66-169.92z M177.38-142.56h-31.15l-15.57-26.98h31.15L177.38-142.56z M130-224.62l15.58,26.98
			L130-170.67l-15.58-26.98L130-224.62z M113.78-198.02H82.62L98.2-225h31.15L113.78-198.02z M130.65-225h31.15l15.58,26.98h-31.15
			l-8.36-14.49L130.65-225z M113.78-197.27l15.58,26.98H98.2l-15.58-26.98H113.78z M146.22-197.27h31.15l-15.58,26.98h-31.15
			L146.22-197.27z M241.63-197.64l-15.58,26.98l-15.58-26.98l15.58-26.98L241.63-197.64z M225.4-225l-15.58,26.98h-31.15L194.25-225
			H225.4z M193.6-225.37l-15.58,26.98l-15.58-26.98l15.58-26.98L193.6-225.37z M161.8-225.75h-31.15l15.57-26.98h31.15L161.8-225.75
			z M209.83-252.72l15.58,26.98h-31.16l-15.58-26.98H209.83z M177.38-253.47h-31.15l-15.58-26.98h31.15L177.38-253.47z
			 M193.6-280.82l-10.58,18.33l-4.99,8.65l-15.58-26.98l15.58-26.98L193.6-280.82z M209.83-308.18l15.58,26.98h-31.16l-15.58-26.98
			H209.83z M177.38-308.18L161.8-281.2h-31.15l15.58-26.98H177.38z M225.4-335.9l-15.58,26.98h-31.15l15.58-26.98H225.4z
			 M193.6-336.28l-15.58,26.98l-15.58-26.98l15.58-26.98L193.6-336.28z M177.38-308.93h-31.15l-15.58-26.98h31.15L177.38-308.93z
			 M209.83-363.63l15.58,26.98h-31.16l-15.58-26.98H209.83z M146.22-363.63h31.15l-15.58,26.98h-31.15L146.22-363.63z
			 M113.78-363.63l15.58,26.98H98.2l-15.58-26.98H113.78z M34.6-336.65l15.58-26.98h31.15l-15.58,26.98H34.6z M66.4-336.28
			l15.58-26.98l15.58,26.98L81.98-309.3L66.4-336.28z M50.17-308.93L34.6-335.9h31.15l15.58,26.98H50.17z M82.62-308.93L98.2-335.9
			h31.15l-15.58,26.98H82.62z M130-335.53l15.58,26.98L130-281.57l-15.58-26.98L130-335.53z M129.35-281.2H98.2l-15.58-26.98h31.15
			L129.35-281.2z M34.6-281.2l15.58-26.98h31.15L65.75-281.2H34.6z M66.4-280.82l15.58-26.98l15.58,26.98l-15.58,26.98L66.4-280.82z
			 M82.62-253.47l15.58-26.98h31.15l-15.58,26.98H82.62z M130-280.07l15.58,26.98L130-226.12l-15.58-26.98L130-280.07z
			 M129.35-225.75H98.2l-15.58-26.98h31.15L129.35-225.75z M34.6-225.74l15.58-26.98h31.15l-15.58,26.98H34.6z M66.4-225.37
			l15.58-26.98l15.58,26.98l-15.58,26.98L66.4-225.37z M65.75-225l15.58,26.98H50.17L34.6-225H65.75z M18.37-197.64l15.58-26.98
			l15.58,26.98l-15.58,26.98L18.37-197.64z M50.17-142.56L34.6-169.54h31.37c0.21,0,0.37-0.17,0.37-0.37c0-0.21-0.17-0.37-0.37-0.37
			H34.6l15.58-26.98h31.58l15.79,27.35l-15.79,27.35H50.17z M82.62-142.56l15.58-26.98h31.15l-15.58,26.98H82.62z M130-169.17
			l15.58,26.98L130-115.21l-15.58-26.98L130-169.17z M129.35-114.84H98.2l-15.58-26.98h31.15L129.35-114.84z M34.6-114.84
			l15.58-26.98h31.15l-15.58,26.98H34.6z M66.4-114.46l15.58-26.98l15.79,27.35h31.59l-15.58,26.98H82.19L66.4-114.46z
			 M65.75-114.09l15.58,26.98H50.17L34.6-114.09H65.75z M18.37-86.74l15.58-26.98l15.58,26.98L33.95-59.76L18.37-86.74z M34.6-59.38
			l15.58-26.98h31.15L65.75-59.38H34.6z M81.98-85.99l15.58,26.98L81.98-32.03L66.4-59.01L81.98-85.99z M50.17-31.66L34.6-58.63
			h31.15l15.58,26.98H50.17z M82.62-31.66L98.2-58.63h31.15l-15.58,26.98H82.62z M114.42-31.28L130-58.26l15.58,26.98L130-4.3
			L114.42-31.28z M98.2-3.93L82.62-30.91h31.15l15.58,26.98H98.2z M130.65-3.93l15.58-26.98h31.15L161.8-3.93H130.65z M17.84,412.16
			L17.84,412.16L17.84,412.16C17.84,412.16,17.84,412.16,17.84,412.16z M194.25,495.15l-15.58-26.98h31.15l15.58,26.98H194.25z
			 M241.63,467.8l-7.9,13.68l-7.68,13.3l-15.58-26.98l15.58-26.98L241.63,467.8z M130,440.82l15.58,26.98L130,494.78l-15.58-26.98
			L130,440.82z M113.78,467.43H82.62l15.58-26.98h31.15L113.78,467.43z M130.65,440.45h31.15l15.58,26.98h-31.15L130.65,440.45z
			 M225.4,440.45l-15.58,26.98h-31.15l15.58-26.98H225.4z M193.6,440.07l-15.58,26.98l-15.58-26.98l15.58-26.98L193.6,440.07z
			 M209.83,412.72l15.58,26.98h-31.15l-15.58-26.98H209.83z M177.38,412.72L161.8,439.7h-31.15l15.57-26.98H177.38z M177.81,411.97
			h-31.58l-15.58-26.98h31.58l0.11-0.18l15.69-27.17l15.58,26.98L177.81,411.97z M209.83,357.27l15.58,26.98h-31.15l-15.58-26.98
			H209.83z M177.38,357.27l-15.58,26.98h-31.15l15.58-26.98H177.38z M66.4,273.71l13.7-23.74l1.87-3.24l15.58,26.98l-13.12,22.72
			l-2.46,4.26l-13.08-22.66L66.4,273.71z M66.4,218.26l11.44-19.82l4.13-7.16l2.53,4.37l13.05,22.6l-15.58,26.98L66.4,218.26z
			 M161.8,162.43h-31.15l15.58-26.98h31.15L161.8,162.43z M177.38,134.7h-31.15l-15.58-26.98h31.15L177.38,134.7z M193.6,162.8
			l-15.58,26.98l-15.58-26.98l12.2-21.14l3.37-5.84l6.74,11.68L193.6,162.8z M193.6,218.26l-13.7,23.74l-1.87,3.24l-15.58-26.98
			l13.05-22.6l2.53-4.37l15.21,26.35L193.6,218.26z M161.8,218.63l15.58,26.98h-31.15l-15.58-26.98H161.8z M113.78,245.61H82.62
			l15.58-26.98h31.15l-7.33,12.7L113.78,245.61z M146.23,190.91h31.15l-15.58,26.98h-31.15l1.71-2.97L146.23,190.91z M161.8,163.18
			l15.58,26.98h-31.15l-15.58-26.98H161.8z M145.58,190.53L130,217.51l-15.58-26.98L130,163.55L145.58,190.53z M82.62,190.91h31.15
			l13.36,23.14l2.22,3.84H98.2l-13.92-24.11L82.62,190.91z M34.6,218.63h31.15l14.42,24.98l1.15,2H50.17L38.33,225.1L34.6,218.63z
			 M130,219.01l15.58,26.98L130,272.96l-15.58-26.98L130,219.01z M193.6,273.71l-11.62,20.13l-3.96,6.86l-2.46-4.26l-13.12-22.72
			l15.58-26.98L193.6,273.71z M114.42,301.44L130,274.46l15.58,26.98L130,328.42L114.42,301.44z M129.35,328.79H98.2l-15.58-26.98
			h31.15L129.35,328.79z M177.38,301.07h-31.15l-13.87-24.01l-1.71-2.97h31.15l13.92,24.11L177.38,301.07z M113.77,301.07H82.62
			l15.58-26.98h31.15l-2.22,3.84L113.77,301.07z M146.23,246.36h31.15l-15.58,26.98h-31.15l8.25-14.28L146.23,246.36z
			 M129.35,273.34H98.2l-15.58-26.98h31.15L129.35,273.34z M225.4,273.34h-31.15l-15.58-26.98h31.15l11.77,20.39L225.4,273.34z
			 M98.2,329.54h31.15l-15.58,26.98H82.62L98.2,329.54z M66.4,329.17l15.58-26.98l15.58,26.98l-12.2,21.14l-3.37,5.84l-6.74-11.68
			L66.4,329.17z M82.62,357.27h31.15l15.58,26.98H98.2L82.62,357.27z M130,383.87l-15.58-26.98L130,329.91l15.58,26.98L130,383.87z
			 M130.65,329.54h31.15l15.58,26.98h-31.15L130.65,329.54z M225.4,329.54l-15.58,26.98h-31.15l15.58-26.98H225.4z M193.6,329.17
			l-15.58,26.98l-15.58-26.98l15.58-26.98L193.6,329.17z M209.83,301.81l15.58,26.98h-31.15l-15.58-26.98H209.83z M177.38,301.81
			l-15.58,26.98h-31.15l15.58-26.98H177.38z M209.83,245.61h-31.16l7.38-12.78l8.2-14.2h31.15L209.83,245.61z M225.4,163.18
			l-15.58,26.98h-31.15l4.45-7.72l11.12-19.26H225.4z M225.4,107.72l-15.58,26.98h-31.15l15.58-26.98H225.4z M177.81,80l15.79,27.35
			l-15.58,26.98l-15.71-27.21l-0.08-0.14h-31.58L146.23,80H177.81z M225.4,52.27l-15.58,26.98h-31.15l15.58-26.98H225.4z
			 M193.6,51.9l-15.58,26.98L162.45,51.9l15.58-26.98L193.6,51.9z M177.38,79.25h-31.15l-15.57-26.98h31.15L177.38,79.25z
			 M113.78,24.54l15.58,26.98H98.2L82.62,24.54H113.78z M114.42,24.17L130-2.81l15.58,26.98L130,51.15L114.42,24.17z M146.22,24.54
			h31.15L161.8,51.53h-31.15L146.22,24.54z M194.25,51.53l-15.58-26.98h31.15l15.58,26.98H194.25z M241.63,24.17l-15.57,26.98
			l-15.58-26.98l15.58-26.98L241.63,24.17z M194.25-3.18h31.16L209.83,23.8h-31.15L194.25-3.18z M161.8-3.18l15.58,26.98h-31.15
			L130.65-3.18H161.8z M98.2-3.18h31.15L113.78,23.8H82.62L98.2-3.18z M65.75-3.18L81.33,23.8H50.17L34.6-3.18H65.75z M18.37,24.17
			l7.9-13.68l7.68-13.3l15.58,26.98L33.95,51.15L18.37,24.17z M34.6,51.53l15.58-26.98h31.15L65.75,51.53H34.6z M66.4,51.9
			l15.58-26.98L97.55,51.9L81.98,78.88L66.4,51.9z M50.17,79.25L34.6,52.27h31.15l15.58,26.98H50.17z M82.62,79.25L98.2,52.27h31.15
			l-15.57,26.98H82.62z M114.42,79.62L130,52.64l15.58,26.98L130,106.6L114.42,79.62z M82.19,80h31.58l15.58,26.98H97.77l-0.11,0.18
			l-15.69,27.17L66.4,107.35L82.19,80z M50.17,134.7L34.6,107.72h31.16l15.58,26.98H50.17z M82.62,134.7l15.58-26.98h31.15
			l-15.58,26.98H82.62z M130,108.1l15.58,26.98L130,162.06l-15.58-26.98L130,108.1z M129.35,162.43H98.2l-15.58-26.98h31.15
			L129.35,162.43z M34.6,162.43l15.58-26.98h31.15l-15.58,26.98H34.6z M66.4,162.8l15.58-26.98l15.58,26.98l-15.58,26.98L66.4,162.8
			z M50.17,190.16L34.6,163.18h31.15l15.58,26.98H50.17z M82.62,190.16l15.58-26.98h31.15l-15.58,26.98H82.62z M34.6,273.34
			l15.58-26.98h31.16l-15.58,26.98H34.6z M34.6,328.79l15.58-26.98h31.15l-4.89,8.47l-10.69,18.51H34.6z M34.6,384.25l15.58-26.98
			h31.15l-15.58,26.98H34.6z M82.19,411.97L66.4,384.62l15.58-26.98l15.71,27.21l0.08,0.14h31.58l-15.58,26.98H82.19z M130,385.37
			l15.58,26.98L130,439.33l-15.58-26.98L130,385.37z M129.35,439.7H98.2l-15.58-26.98h31.15L129.35,439.7z M34.6,439.7l15.58-26.98
			h31.15L65.75,439.7H34.6z M66.4,440.07l15.58-26.98l15.58,26.98l-15.58,26.98L66.4,440.07z M65.75,440.45l15.58,26.98H50.17
			L34.6,440.45H65.75z M18.37,467.8l15.57-26.98l15.58,26.98l-15.58,26.98L18.37,467.8z M65.75,495.15H34.6l15.58-26.98h31.15
			L65.75,495.15z M98.2,495.15l-15.58-26.98h31.15l15.58,26.98H98.2z M130.65,495.15l15.58-26.98h31.15l-15.58,26.98H130.65z
			 M193.6,828.25l-15.58,26.98l-15.58-26.98l15.58-26.98L193.6,828.25z M209.83,800.9l15.58,26.98h-31.15l-15.58-26.98H209.83z
			 M177.38,800.9l-15.58,26.98h-31.15l15.58-26.98H177.38z M225.4,773.17l-15.58,26.98h-31.16l15.58-26.98H225.4z M193.6,772.79
			l-15.58,26.98l-15.58-26.98l15.58-26.98L193.6,772.79z M177.38,800.15h-31.15l-15.58-26.98h31.15L177.38,800.15z M177.38,745.44
			l-15.58,26.98h-31.15l15.58-26.98H177.38z M225.4,717.71l-15.58,26.98h-31.16l15.58-26.98H225.4z M193.6,717.34l-15.58,26.98
			l-15.58-26.98l15.58-26.98L193.6,717.34z M177.38,744.69h-31.15l-15.58-26.98h31.15L177.38,744.69z M113.78,744.69H82.62
			l15.58-26.98h31.15L113.78,744.69z M130,662.64l15.58,26.98L130,716.59l-15.58-26.98L130,662.64z M113.78,689.24H82.62
			l15.58-26.98h31.15L113.78,689.24z M130.65,662.26h31.15l15.58,26.98h-31.15L130.65,662.26z M113.78,689.99l8.36,14.49l7.21,12.49
			H98.2l-15.58-26.98H113.78z M146.22,689.99h31.15l-15.58,26.98h-31.15L146.22,689.99z M194.25,716.97l-15.58-26.98h31.15
			l15.58,26.98H194.25z M241.63,689.61l-15.58,26.98l-15.58-26.98l15.58-26.98L241.63,689.61z M209.83,634.53l15.58,26.98h-31.37
			c-0.21,0-0.37,0.17-0.37,0.37c0,0.21,0.17,0.37,0.37,0.37h31.37l-15.58,26.98h-31.58l-15.79-27.35l15.79-27.35H209.83z
			 M177.38,634.53l-15.58,26.98h-31.15l15.58-26.98H177.38z M225.4,606.81l-15.58,26.98h-31.16l15.58-26.98H225.4z M193.6,606.43
			l-15.58,26.98l-15.79-27.35h-31.59l15.58-26.98h31.58L193.6,606.43z M177.38,633.79h-31.15l-15.58-26.98h31.15L177.38,633.79z
			 M194.25,606.06l-15.58-26.98h31.15l15.58,26.98H194.25z M241.63,578.71l-15.58,26.98l-15.58-26.98l15.58-26.98L241.63,578.71z
			 M225.4,551.35l-15.58,26.98h-31.15l15.58-26.98H225.4z M178.02,577.96l-15.58-26.98L178.02,524l15.58,26.98L178.02,577.96z
			 M177.38,578.34h-31.15l-15.58-26.98h31.15L177.38,578.34z M209.83,523.63l15.58,26.98h-31.15l-15.58-26.98H209.83z
			 M177.38,523.63l-15.58,26.98h-31.15l15.58-26.98H177.38z M161.8,495.9l15.58,26.98h-31.15l-15.58-26.98H161.8z M82.62,522.88
			L98.2,495.9h31.15l-15.58,26.98H82.62z M130,496.27l15.58,26.98L130,550.23l-15.58-26.98L130,496.27z M129.35,550.61H98.2
			l-15.58-26.98h31.15L129.35,550.61z M34.6,550.61l15.58-26.98h31.16l-15.58,26.98H34.6z M81.98,524l15.58,26.98l-15.58,26.98
			L66.4,550.98L81.98,524z M50.17,578.34L34.6,551.35h31.16l15.58,26.98H50.17z M82.62,578.34l15.58-26.98h31.15l-15.58,26.98H82.62
			z M114.42,578.71L130,551.73l15.58,26.98L130,605.68L114.42,578.71z M34.6,606.06l15.58-26.98h31.15l-15.58,26.98H34.6z
			 M66.4,606.43l15.79-27.35h31.58l15.58,26.98H97.77l-15.79,27.35L66.4,606.43z M50.17,633.79L34.6,606.81h31.16l15.58,26.98H50.17
			z M82.62,633.79l15.58-26.98h31.15l-15.58,26.98H82.62z M130,607.18l15.58,26.98L130,661.14l-15.58-26.98L130,607.18z
			 M129.35,661.51H98.2l-15.58-26.98h31.15L129.35,661.51z M66.34,661.89c0-0.21-0.17-0.37-0.37-0.37H34.6l15.58-26.98h31.59
			l15.79,27.35l-15.79,27.35H50.17L34.6,662.26h31.37C66.17,662.26,66.34,662.09,66.34,661.89z M18.37,689.61l15.58-26.98
			l15.58,26.98l-15.58,26.98L18.37,689.61z M34.6,716.97l15.58-26.98h31.15l-15.58,26.98H34.6z M66.4,717.34l15.58-26.98
			l15.58,26.98l-15.58,26.98L66.4,717.34z M50.17,744.7L34.6,717.71h31.16l15.58,26.98H50.17z M130,718.09l15.58,26.98L130,772.04
			l-15.58-26.98L130,718.09z M82.62,745.44h31.15l15.58,26.98H98.2L82.62,745.44z M66.4,772.79l10.58-18.33l4.99-8.65l15.58,26.98
			l-15.58,26.98L66.4,772.79z M50.17,800.15L34.6,773.17h31.16l15.58,26.98H50.17z M82.62,800.15l15.58-26.98h31.15l-15.58,26.98
			H82.62z M114.42,800.52L130,773.54l15.58,26.98L130,827.5L114.42,800.52z M129.35,827.87H98.2L82.62,800.9h31.15L129.35,827.87z
			 M34.6,827.87l15.58-26.98h31.15l-15.58,26.98H34.6z M66.4,828.25l15.58-26.98l15.58,26.98l-15.58,26.98L66.4,828.25z
			 M50.17,855.6L34.6,828.62h31.15l15.58,26.98H50.17z M113.78,855.6H82.62l15.58-26.98h31.15L113.78,855.6z M146.23,855.6
			l-15.58-26.98h31.15l15.58,26.98H146.23z M178.67,855.6l15.58-26.98h31.15l-15.58,26.98H178.67z"/>
		<path class="st2" d="M162.09,662.26h63.96c0.15,0,0.28-0.09,0.34-0.21h0.04l0-0.16c0,0,0,0,0-0.01v-0.16h-0.04
			c-0.06-0.13-0.19-0.21-0.34-0.21h-31.8l-16.01-27.73h-31.59l15.58-26.98l63.82,0c0.21,0,0.37-0.17,0.37-0.37s-0.17-0.37-0.37-0.37
			h-31.8l-15.79-27.35l15.79-27.35h31.8c0.21,0,0.37-0.17,0.37-0.37c0-0.21-0.17-0.37-0.37-0.37h-31.37l15.68-27.17
			c0.05-0.08,0.06-0.19,0.04-0.28c-0.03-0.1-0.09-0.18-0.18-0.23c-0.18-0.1-0.41-0.04-0.51,0.14l-15.68,27.17l-15.58-26.98
			l15.79-27.35h31.8c0.21,0,0.37-0.17,0.37-0.37c0-0.21-0.17-0.37-0.37-0.37h-31.37l15.79-27.35l-0.11-0.19l-15.68-27.17h31.37
			c0.21,0,0.37-0.17,0.37-0.37c0-0.21-0.17-0.37-0.37-0.37h-31.8l-15.79-27.35l31.91-55.27c0.05-0.09,0.06-0.19,0.04-0.28
			c-0.03-0.1-0.09-0.18-0.18-0.23c-0.18-0.1-0.41-0.04-0.51,0.14l-15.68,27.17l-15.79-27.35h-31.59l15.58-26.98h31.85l0.05-0.02
			c0.02,0,0.06-0.01,0.09-0.03l0.05-0.03l0.02-0.03c0.03-0.03,0.05-0.06,0.07-0.09c0.01-0.02,0.03-0.05,0.04-0.09l0.01-0.02
			l0.01-0.06c0-0.04-0.01-0.08-0.02-0.1l0-0.02l-0.03-0.07l-15.9-27.54l16.01-27.73l-0.05-0.08l-16.18-28.02h-31.59l15.79-27.35l0,0
			l0,0l-0.1-0.18l-15.69-27.17h31.37c0.21,0,0.37-0.17,0.37-0.37c0-0.21-0.17-0.37-0.37-0.37h-31.8l0,0h-31.58l15.58-26.98h32.01
			l16.22-28.1l-0.05-0.08l-15.96-27.65l16.01-27.73l-15.79-27.35h31.58l16.12-27.91c0.1-0.18,0.03-0.41-0.14-0.51
			c-0.18-0.1-0.41-0.04-0.51,0.14l-15.9,27.54h-31.15l15.79-27.35l-0.1-0.18L162.66-3.18h31.37c0.21,0,0.37-0.17,0.37-0.37
			c0-0.21-0.17-0.37-0.37-0.37h-31.37l15.58-26.98h31.85l0.05-0.03c0.02,0,0.06-0.01,0.09-0.03l0.06-0.06
			c0.13-0.12,0.15-0.31,0.07-0.45l-16.12-27.92l-31.58,0l15.79-27.35l-15.79-27.35h31.58l16.22-28.1l-0.05-0.08l-16.18-28.02h-64.17
			l-0.44,0.26l-0.02,0.04l-15.62,27.06l-15.65-27.1l-0.44-0.26H33.95c-0.15,0-0.28,0.09-0.34,0.21h-0.04l0,0.16c0,0,0,0,0,0.01v0.16
			h0.04c0.06,0.13,0.19,0.21,0.34,0.21h31.8l16.01,27.73h31.59l-15.58,26.98l-63.82,0c-0.21,0-0.37,0.17-0.37,0.37
			c0,0.21,0.17,0.37,0.37,0.37h31.8l15.79,27.35L65.75-59.39h-31.8c-0.21,0-0.37,0.17-0.37,0.37c0,0.21,0.17,0.37,0.37,0.37h31.37
			L49.64-31.47c-0.05,0.08-0.06,0.19-0.04,0.28c0.03,0.1,0.09,0.18,0.18,0.23c0.18,0.1,0.41,0.04,0.51-0.14l15.68-27.17l15.58,26.98
			L65.75-3.93h-31.8c-0.21,0-0.37,0.17-0.37,0.37c0,0.21,0.17,0.37,0.37,0.37h31.37L49.53,24.17l0.11,0.19l15.68,27.17H33.95
			c-0.21,0-0.37,0.17-0.37,0.37s0.17,0.37,0.37,0.37h31.8l15.79,27.35l-31.91,55.27c-0.05,0.09-0.06,0.19-0.04,0.28
			c0.03,0.1,0.09,0.18,0.18,0.23c0.18,0.1,0.41,0.04,0.51-0.14l15.68-27.17l15.79,27.35h31.59l-15.58,26.98H65.92l-0.05,0.02
			c-0.02,0-0.06,0.01-0.09,0.03l-0.05,0.03l-0.02,0.03c-0.03,0.03-0.05,0.06-0.07,0.09c-0.01,0.02-0.03,0.05-0.04,0.09l-0.01,0.02
			l-0.01,0.06c0,0.04,0.01,0.08,0.02,0.1l0,0.02l0.03,0.07l15.9,27.54l-16.01,27.73l0.05,0.08l16.18,28.02h31.59l-15.79,27.35l0,0
			l0,0l0.1,0.18l15.69,27.17H81.98c-0.21,0-0.37,0.17-0.37,0.37c0,0.21,0.17,0.37,0.37,0.37h31.8l0,0h31.58l-15.58,26.98H97.77
			l-16.22,28.1l0.05,0.08l15.96,27.65l-16.01,27.73l15.79,27.35H65.75l-16.12,27.91c-0.1,0.18-0.03,0.41,0.14,0.51
			c0.18,0.1,0.41,0.04,0.51-0.14l15.9-27.54h31.15L81.55,467.8l0.11,0.18l15.69,27.17H65.97c-0.21,0-0.37,0.17-0.37,0.37
			c0,0.21,0.17,0.37,0.37,0.37h31.37l-15.58,26.98H49.91l-0.05,0.03c-0.02,0-0.06,0.01-0.09,0.03l-0.06,0.06
			c-0.13,0.12-0.15,0.31-0.07,0.45l16.12,27.92l31.58,0l-15.79,27.35l15.79,27.35H65.75l-16.22,28.1l0.05,0.08l16.18,28.02h64.17
			l0.44-0.26l0.02-0.04l15.62-27.06l15.65,27.1L162.09,662.26z M177.81,579.08l15.58,26.98h-31.15l-15.58-26.98H177.81z
			 M193.39,551.36l-15.58,26.98h-31.15l15.58-26.98H193.39z M177.81,523.63l15.58,26.98h-31.16l-15.58-26.98H177.81z M193.39,495.9
			l-15.58,26.98h-31.15l15.58-26.98H193.39z M209.61,467.8l-15.58,26.98l-15.58-26.98l15.58-26.98L209.61,467.8z M193.39,440.45
			l-15.79,27.35l15.79,27.35h-31.16l-15.79-27.35l15.79-27.35H193.39z M177.81,412.72l15.58,26.98h-31.16l-15.58-26.98H177.81z
			 M177.81,357.27l15.58,26.98h-31.16l-15.58-26.98H177.81z M193.39,328.79h-31.15l-15.58-26.98h31.15L193.39,328.79z
			 M146.01,300.69l-15.57-26.98l15.57-26.98l15.58,26.98L146.01,300.69z M145.36,301.06h-30.72L130,274.46L145.36,301.06z
			 M145.36,246.36L130,272.97l-15.36-26.61H145.36z M129.35,273.34H98.63l15.36-26.61L129.35,273.34z M129.35,274.09l-15.36,26.6
			l-15.36-26.6H129.35z M193.39,274.09l-15.58,26.98h-31.15l15.58-26.98H193.39z M193.39,273.34h-31.15l-15.58-26.98h31.15
			L193.39,273.34z M113.99,191.28l15.57,26.98l-15.57,26.98l-15.58-26.98L113.99,191.28z M114.64,190.91h30.72L130,217.51
			L114.64,190.91z M130,219l15.36,26.61h-30.72L130,219z M130.65,218.63h30.72l-15.36,26.61L130.65,218.63z M130.65,217.88
			l15.36-26.6l15.36,26.6H130.65z M177.59,79.62l-15.58,26.98l-15.58-26.98l15.58-26.98L177.59,79.62z M177.59,24.17l-15.58,26.98
			l-15.58-26.98l15.58-26.98L177.59,24.17z M161.37,51.52h-31.15l-15.57-26.98h31.15L161.37,51.52z M161.37-3.18L145.79,23.8h-31.15
			l15.58-26.98H161.37z M193.82-58.64l15.58,26.98h-31.15l-15.58-26.98H193.82z M161.37-59.39h-31.15l-15.57-26.98h31.15
			L161.37-59.39z M209.39-141.82l-15.58,26.98h-31.15l15.58-26.98H209.39z M193.82-169.55l15.58,26.98h-31.15l-15.58-26.98H193.82z
			 M82.19-142.57l-15.58-26.98h31.15l15.58,26.98H82.19z M114.42-142.19l15.79-27.35h31.15l-15.68,27.17
			c-0.1,0.18-0.04,0.4,0.14,0.51c0.18,0.1,0.4,0.04,0.51-0.13l15.68-27.17l15.58,26.98l-15.79,27.35h-31.58L114.42-142.19z
			 M98.41-114.47l15.58-26.98l15.58,26.98l-15.58,26.98L98.41-114.47z M82.19-87.11l-15.58-26.98h31.15l15.58,26.98H82.19z
			 M114.64-87.11l15.58-26.98h31.15l-15.58,26.98H114.64z M162.02-113.72l15.58,26.98l-15.58,26.98l-15.58-26.98L162.02-113.72z
			 M66.61-59.39l15.58-26.98h31.15L97.77-59.39H66.61z M98.41-59.01l15.58-26.98l15.58,26.98l-15.58,26.98L98.41-59.01z
			 M82.19-31.66L66.61-58.64h31.16l15.58,26.98H82.19z M114.64-31.66l15.58-26.98h31.15l-15.58,26.98H114.64z M162.02-58.26
			l15.58,26.98L161.8-3.93h-31.58l-15.57-26.98h31.58L162.02-58.26z M66.61-3.93l15.58-26.98h31.15L97.77-3.93H66.61z M98.41-3.56
			l15.58-26.98l15.58,26.98l-15.58,26.98L98.41-3.56z M50.39,24.17L65.97-2.81l15.58,26.98L65.97,51.15L50.39,24.17z M66.61,51.52
			l15.79-27.35L66.61-3.18h31.16l15.79,27.35L97.77,51.52H66.61z M98.41,51.9l15.58-26.98l15.58,26.98l-15.58,26.98L98.41,51.9z
			 M82.19,79.25L66.61,52.27h31.16l15.58,26.98H82.19z M130.22,52.27h31.15l-15.79,27.35l0.1,0.18l15.69,27.17h-31.15l-15.79-27.35
			L130.22,52.27z M66.61,106.98L82.19,80h31.59l15.79,27.35l-15.58,26.98L98.2,106.98H66.61z M82.19,134.7l-15.58-26.98h31.16
			l15.58,26.98H82.19z M114.64,134.7l15.58-26.98h31.15l-15.58,26.98H114.64z M146.44,135.08l15.58-26.98l15.58,26.98l-15.58,26.98
			L146.44,135.08z M145.79,135.45l15.57,26.98h-31.15l-15.57-26.98H145.79z M113.99,135.82l15.58,26.98l-15.58,26.98L98.41,162.8
			L113.99,135.82z M66.61,163.18h31.15l15.58,26.98H82.19L66.61,163.18z M66.61,217.88l15.58-26.98h31.16l-15.58,26.98H66.61z
			 M66.61,218.63h31.15l15.58,26.98H82.19L66.61,218.63z M146.01,302.19l15.58,26.98l-15.58,26.98l-15.58-26.98L146.01,302.19z
			 M129.79,329.54l15.57,26.98h-31.15l-15.57-26.98H129.79z M82.41,356.89l15.58-26.98l15.58,26.98l-15.58,26.98L82.41,356.89z
			 M98.63,384.25l15.58-26.98h31.15l-15.58,26.98H98.63z M130.43,384.62l15.58-26.98L161.8,385h31.59l-15.58,26.98h-31.59
			L130.43,384.62z M82.41,412.35l15.58-26.98l15.58,26.98l-15.58,26.98L82.41,412.35z M98.63,439.7l15.79-27.35l-0.1-0.18L98.63,385
			h31.15l15.79,27.35l-15.79,27.35H98.63z M130.43,440.07l15.58-26.98l15.58,26.98l-15.58,26.98L130.43,440.07z M129.79,440.45
			l15.57,26.98h-31.15l-15.57-26.98H129.79z M82.41,467.8l15.58-26.98l15.58,26.98l-15.58,26.98L82.41,467.8z M98.63,495.15
			l15.58-26.98h31.15l-15.58,26.98H98.63z M130.43,495.53l15.58-26.98l15.58,26.98l-15.58,26.98L130.43,495.53z M82.41,523.26
			L98.2,495.9h31.58l15.57,26.98h-31.58l-15.79,27.35L82.41,523.26z M66.18,550.61l-15.58-26.98h31.15l15.58,26.98H66.18z
			 M98.63,550.61l15.58-26.98h31.15l-15.58,26.98H98.63z M130.43,550.98L146.01,524l15.58,26.98l-15.58,26.98L130.43,550.98z
			 M98.63,551.36h31.15l15.57,26.98h-31.15L98.63,551.36z M82.41,578.71l15.58-26.98l15.58,26.98l-15.58,26.98L82.41,578.71z
			 M98.63,606.06l15.58-26.98h31.15l-15.58,26.98H98.63z M146.01,579.46l15.58,26.98l-15.58,26.98l-15.58-26.98L146.01,579.46z
			 M50.61,633.79l15.58-26.98h31.15l-15.58,26.98H50.61z M66.18,661.52l-15.58-26.98h31.15l15.58,26.98H66.18z M129.78,661.52H98.63
			l15.68-27.17c0.1-0.18,0.04-0.4-0.14-0.51c-0.18-0.1-0.4-0.04-0.51,0.13l-15.68,27.17l-15.58-26.98l15.79-27.35h31.58l15.79,27.35
			L129.78,661.52z M162.23,661.52l-15.58-26.98h31.16l15.58,26.98H162.23z"/>
	</g>
</g>
<g>
	<defs>
		<rect id="SVGID_00000153685341409374872250000014497920607472013726_" x="-148" y="-4.01" width="300" height="500"/>
	</defs>
	<clipPath id="SVGID_00000042003249942581479310000002352127918730386863_">
		<use href="#SVGID_00000153685341409374872250000014497920607472013726_"  style="overflow:visible;"/>
	</clipPath>
	<g style="clip-path:url(#SVGID_00000042003249942581479310000002352127918730386863_);">
		<path class="st1" d="M81.96,856.35l0.44-0.26l0.02-0.04L98.05,829l15.68,27.17c0.05,0.09,0.13,0.15,0.23,0.17
			c0.1,0.03,0.2,0.01,0.28-0.04c0.09-0.05,0.15-0.13,0.17-0.23c0.03-0.1,0.01-0.2-0.04-0.28L98.7,828.62h31.37
			c0.21,0,0.37-0.17,0.37-0.37c0-0.21-0.17-0.37-0.37-0.37h-31.8l-15.79-27.35l15.79-27.35h31.8c0.21,0,0.37-0.17,0.37-0.37
			c0-0.21-0.17-0.37-0.37-0.37l-63.82,0l-15.58-26.98h31.59l0.11-0.19l15.9-27.54h31.8c0.21,0,0.37-0.17,0.37-0.37
			c0-0.21-0.17-0.38-0.37-0.38H98.7l15.79-27.35l-0.11-0.19l-31.91-55.27l15.58-26.98l15.68,27.17c0.05,0.09,0.13,0.15,0.23,0.17
			c0.1,0.03,0.2,0.01,0.28-0.04c0.09-0.05,0.15-0.13,0.18-0.23c0.02-0.1,0.01-0.2-0.04-0.28L98.7,606.81h31.37
			c0.21,0,0.37-0.17,0.37-0.37c0-0.21-0.17-0.37-0.37-0.37H98.7l15.79-27.36l-0.11-0.19l-32.12-55.64H50.24l-15.79-27.35
			l15.58-26.98l15.79,27.35l0.1,0l32.59-0.42l0.05-0.08l15.93-27.6l-0.11-0.19L98.7,440.45h31.37c0.21,0,0.37-0.17,0.37-0.37
			c0-0.21-0.17-0.37-0.37-0.37H98.7l15.68-27.17c0.05-0.08,0.07-0.18,0.04-0.28c-0.02-0.1-0.09-0.18-0.17-0.23
			c-0.18-0.1-0.41-0.04-0.51,0.14l-15.68,27.17l-15.79-27.35H50.67l15.58-26.98h32.01l0.11-0.19l16.01-27.73
			c0.05-0.08,0.06-0.18,0.04-0.28c-0.03-0.1-0.09-0.18-0.18-0.23c-0.09-0.05-0.19-0.06-0.28-0.04c-0.1,0.03-0.18,0.09-0.23,0.17
			l-15.68,27.17l-15.58-26.98l16.01-27.73l-0.11-0.19l-16.12-27.91h-3.89v0H50.67l15.58-26.98h31.85l0.04-0.02c0,0,0.01,0,0.02,0
			c0.02,0,0.05,0,0.08-0.02l0,0c0,0,0,0,0,0l0,0l0.04-0.02l0.02-0.03l0,0c0.03-0.03,0.05-0.06,0.06-0.08
			c0.01-0.01,0.04-0.04,0.05-0.09l0.01-0.04l0-0.01l0-0.04c0,0,0,0,0,0v-0.04l-0.02-0.04c0,0,0-0.01,0-0.01v-0.02l-0.02-0.07l0,0
			c0,0,0,0,0,0l-15.9-27.54l15.92-27.58l0-0.05c0.01-0.02,0.03-0.06,0.03-0.1l-0.01-0.06c0-0.01,0-0.02-0.01-0.03l-0.01-0.04
			l-0.05-0.06c-0.01-0.02-0.03-0.05-0.05-0.07l-0.01-0.02l-0.05-0.04c-0.03-0.02-0.07-0.03-0.09-0.03l-0.01-0.01l-0.08-0.01h-31.8
			L50.67,190.9h31.59l16.28-28.19l-0.85-0.28H66.25l-15.58-26.98h31.29l0.44-0.25l0.02-0.04l15.62-27.06l15.68,27.17
			c0.05,0.09,0.13,0.15,0.23,0.17c0.1,0.03,0.2,0.01,0.28-0.03c0.09-0.05,0.15-0.13,0.18-0.23c0.03-0.1,0.01-0.2-0.04-0.28
			l-16.11-27.91H66.25L50.67,80h31.59l0.11-0.19l15.69-27.17l15.68,27.17c0.05,0.09,0.13,0.15,0.23,0.17
			c0.1,0.03,0.2,0.01,0.28-0.04c0.09-0.05,0.15-0.13,0.18-0.23c0.03-0.1,0.01-0.2-0.04-0.28l-15.8-27.37v-0.33l15.91-27.56
			L98.7-3.18h31.37c0.21,0,0.37-0.17,0.37-0.37c0-0.21-0.17-0.37-0.37-0.37H65.82l-0.11,0.19L50.02,23.42L34.45-3.56l15.79-27.35
			h32.02l0.11-0.19l16.05-27.79l-0.21-0.6L82.47-86.74l15.7-27.19l0.29-0.17h31.61c0.21,0,0.37-0.17,0.37-0.37
			c0-0.2-0.17-0.37-0.37-0.37H98.7L114.38-142c0.05-0.08,0.06-0.18,0.04-0.28c-0.03-0.1-0.09-0.18-0.17-0.23
			c-0.09-0.05-0.19-0.06-0.28-0.04c-0.1,0.03-0.18,0.09-0.23,0.18l-15.68,27.17l-15.58-26.98l32.02-55.45L98.7-225h31.37
			c0.21,0,0.37-0.17,0.37-0.37c0-0.21-0.17-0.38-0.37-0.38h-31.8l-16.01-27.73H50.67l15.58-26.98l63.82,0
			c0.21,0,0.37-0.17,0.37-0.37c0-0.21-0.17-0.37-0.37-0.37h-31.8l-15.79-27.35l15.79-27.35h31.8c0.21,0,0.37-0.17,0.37-0.37
			c0-0.21-0.17-0.37-0.37-0.37H98.7l15.68-27.17c0.05-0.08,0.07-0.18,0.04-0.28c-0.03-0.1-0.09-0.18-0.18-0.23
			c-0.08-0.05-0.18-0.06-0.28-0.04c-0.1,0.03-0.18,0.09-0.23,0.18l-15.68,27.16l-15.65-27.1l-0.44-0.26H17.79L2-337.03l-15.79-27.35
			h-64.17l-0.44,0.26l-0.02,0.04l-15.62,27.06l-15.68-27.17c-0.05-0.09-0.13-0.15-0.23-0.18c-0.1-0.03-0.2-0.01-0.28,0.04
			c-0.09,0.05-0.15,0.13-0.17,0.23c-0.03,0.1-0.01,0.2,0.04,0.28l15.68,27.16h-31.37c-0.21,0-0.37,0.17-0.37,0.37
			c0,0.21,0.17,0.37,0.37,0.37h31.8l15.79,27.35l-15.79,27.35h-31.8c-0.21,0-0.37,0.17-0.37,0.37c0,0.21,0.17,0.37,0.37,0.37
			l63.82,0l15.58,26.98h-31.59l-0.11,0.19l-15.9,27.54h-31.8c-0.21,0-0.37,0.17-0.37,0.37c0,0.21,0.17,0.38,0.37,0.38h31.37
			l-15.79,27.35l0.11,0.19l31.91,55.27l-15.58,26.98l-15.68-27.17c-0.05-0.09-0.13-0.15-0.23-0.17c-0.1-0.03-0.2-0.01-0.28,0.04
			c-0.09,0.05-0.15,0.13-0.18,0.23c-0.02,0.1-0.01,0.2,0.04,0.28l15.68,27.17h-31.37c-0.21,0-0.37,0.17-0.37,0.37
			c0,0.21,0.17,0.37,0.37,0.37h31.37l-15.79,27.36l0.11,0.19l32.12,55.64h32.02l15.79,27.35l-15.58,26.98L-61.82-3.93l-0.1,0
			l-32.59,0.42l-0.05,0.08l-15.93,27.6l0.11,0.19l15.68,27.17h-31.37c-0.21,0-0.37,0.17-0.37,0.37c0,0.21,0.17,0.37,0.37,0.37h31.37
			l-15.68,27.17c-0.05,0.08-0.07,0.18-0.04,0.28c0.02,0.1,0.09,0.18,0.17,0.23c0.18,0.1,0.41,0.04,0.51-0.14l15.68-27.17L-78.26,80
			h31.59l-15.58,26.98h-32.02l-0.11,0.19l-16.01,27.73c-0.05,0.08-0.06,0.18-0.04,0.28c0.03,0.1,0.09,0.18,0.18,0.23
			c0.09,0.05,0.19,0.06,0.28,0.04c0.1-0.03,0.18-0.09,0.23-0.17l15.68-27.17l15.58,26.98l-16.01,27.73l0.11,0.19l16.12,27.91h3.89v0
			h27.69l-15.58,26.98h-31.85l-0.04,0.02c0,0-0.01,0-0.02,0c-0.02,0-0.05,0-0.08,0.02l0,0c0,0,0,0,0,0l0,0l-0.04,0.02l-0.02,0.03
			l0,0c-0.03,0.03-0.04,0.05-0.06,0.08c0,0,0,0,0,0v0c0,0,0,0,0,0c-0.01,0.01-0.04,0.04-0.05,0.09l-0.01,0.04l0,0.01l0,0.04
			c0,0,0,0,0,0v0.04l0.02,0.04c0,0,0,0.01,0,0.01v0.02l0.02,0.07l0,0c0,0,0,0,0,0l15.9,27.54l-15.92,27.58l0,0.05
			c-0.01,0.02-0.03,0.06-0.03,0.1l0.01,0.06c0,0.01,0,0.02,0.01,0.03l0.01,0.04l0.05,0.06c0.01,0.02,0.03,0.05,0.05,0.07l0.01,0.02
			l0.05,0.04c0.03,0.02,0.07,0.03,0.09,0.03l0.01,0.01l0.08,0.01h31.8l15.58,26.98h-31.59l-16.28,28.19l0.85,0.28h31.44l15.58,26.98
			h-31.29l-0.44,0.25l-0.02,0.04l-15.62,27.06l-15.68-27.17c-0.05-0.09-0.13-0.15-0.23-0.17c-0.1-0.03-0.2-0.01-0.28,0.03
			c-0.09,0.05-0.15,0.13-0.18,0.23c-0.03,0.1-0.01,0.2,0.04,0.28l16.11,27.91h32.02l15.58,26.98h-31.59l-0.11,0.19l-15.69,27.17
			l-15.68-27.17c-0.05-0.09-0.13-0.15-0.23-0.17c-0.1-0.03-0.2-0.01-0.28,0.04c-0.09,0.05-0.15,0.13-0.18,0.23
			c-0.03,0.1-0.01,0.2,0.04,0.28l15.8,27.37v0.33l-15.91,27.56l15.79,27.35h-31.37c-0.21,0-0.37,0.17-0.37,0.37
			c0,0.21,0.17,0.37,0.37,0.37h64.25l0.11-0.19l15.68-27.17l15.58,26.98l-15.79,27.35h-32.02l-0.11,0.19l-16.05,27.79l0.21,0.6
			l15.73,27.25l-15.7,27.19l-0.29,0.17h-31.61c-0.21,0-0.37,0.17-0.37,0.37c0,0.2,0.17,0.37,0.37,0.37h31.37l-15.68,27.17
			c-0.05,0.08-0.06,0.18-0.04,0.28c0.03,0.1,0.09,0.18,0.17,0.23c0.09,0.05,0.19,0.06,0.28,0.04c0.1-0.03,0.18-0.09,0.23-0.18
			l15.68-27.17l15.58,26.98l-32.02,55.45l15.79,27.35h-31.37c-0.21,0-0.37,0.17-0.37,0.37c0,0.21,0.17,0.38,0.37,0.38h31.8
			l16.01,27.73h31.59l-15.58,26.98l-63.82,0c-0.21,0-0.37,0.17-0.37,0.37c0,0.21,0.17,0.37,0.37,0.37h31.8l15.79,27.35l-15.79,27.35
			h-31.8c-0.21,0-0.37,0.17-0.37,0.37c0,0.21,0.17,0.37,0.37,0.37h31.37l-15.68,27.17c-0.05,0.08-0.07,0.18-0.04,0.28
			c0.03,0.1,0.09,0.18,0.18,0.23c0.08,0.05,0.18,0.06,0.28,0.04c0.1-0.03,0.18-0.09,0.23-0.18L-94.05,829l15.65,27.1l0.44,0.26
			h64.17L2,829l15.79,27.35H81.96z M114.16,634.34L114.16,634.34L114.16,634.34L114.16,634.34z M114.16,79.81L114.16,79.81
			L114.16,79.81C114.16,79.81,114.16,79.81,114.16,79.81z M-110.16-142.37L-110.16-142.37L-110.16-142.37L-110.16-142.37z
			 M97.4-58.63L81.83-31.66H50.67l15.58-26.98H97.4z M50.02-32.03L34.45-59.01l15.58-26.98L65.6-59.01L50.02-32.03z M49.38-31.66
			H18.22L2.65-58.63H33.8L49.38-31.66z M81.83-86.36L97.4-59.38H66.25L50.67-86.36H81.83z M49.38-86.36L33.8-59.38H2.65l15.58-26.98
			H49.38z M17.58-86.74L2-59.76l-15.58-26.98L2-113.71L17.58-86.74z M1.35-59.38H-29.8l-15.58-26.98h31.15L1.35-59.38z M97.4-114.09
			L81.83-87.11H50.67l15.58-26.98H97.4z M65.6-114.46L49.81-87.11H18.22L2.65-114.09h31.58l15.79-27.35L65.6-114.46z M81.83-141.82
			l15.58,26.98H66.25l-15.58-26.98H81.83z M49.38-141.82L33.8-114.84H2.65l15.58-26.98H49.38z M65.66-169.92
			c0,0.21,0.17,0.37,0.37,0.37H97.4l-15.58,26.98H50.24l-15.79-27.35l15.79-27.35h31.59l15.58,26.98H66.03
			C65.83-170.29,65.66-170.12,65.66-169.92z M49.38-142.56H18.22L2.65-169.54H33.8L49.38-142.56z M2-224.62l15.58,26.98L2-170.67
			l-15.58-26.98L2-224.62z M-14.22-198.02h-31.15L-29.8-225H1.35L-14.22-198.02z M2.65-225H33.8l15.58,26.98H18.22L9.86-212.5
			L2.65-225z M-14.23-197.27l15.58,26.98H-29.8l-15.58-26.98H-14.23z M18.22-197.27h31.15L33.8-170.29H2.65L18.22-197.27z
			 M113.63-197.64l-15.58,26.98l-15.58-26.98l15.58-26.98L113.63-197.64z M97.4-225l-15.58,26.98H50.67L66.25-225H97.4z
			 M65.6-225.37l-15.58,26.98l-15.58-26.98l15.58-26.98L65.6-225.37z M33.8-225.75H2.65l15.57-26.98h31.15L33.8-225.75z
			 M81.83-252.72l15.58,26.98H66.25l-15.58-26.98H81.83z M49.38-253.47H18.22L2.65-280.45H33.8L49.38-253.47z M65.6-280.82
			l-10.58,18.33l-4.99,8.65l-15.58-26.98l15.58-26.98L65.6-280.82z M81.83-308.18L97.4-281.2H66.25l-15.58-26.98H81.83z
			 M49.38-308.18L33.8-281.2H2.65l15.58-26.98H49.38z M97.4-335.9l-15.58,26.98H50.67l15.58-26.98H97.4z M65.6-336.28L50.02-309.3
			l-15.58-26.98l15.58-26.98L65.6-336.28z M49.38-308.93H18.22L2.65-335.9H33.8L49.38-308.93z M81.83-363.63l15.58,26.98H66.25
			l-15.58-26.98H81.83z M18.22-363.63h31.15L33.8-336.65H2.65L18.22-363.63z M-14.23-363.63l15.58,26.98H-29.8l-15.58-26.98H-14.23z
			 M-93.4-336.65l15.58-26.98h31.15l-15.58,26.98H-93.4z M-61.6-336.28l15.58-26.98l15.58,26.98l-15.58,26.98L-61.6-336.28z
			 M-77.83-308.93L-93.4-335.9h31.15l15.58,26.98H-77.83z M-45.38-308.93l15.57-26.98H1.35l-15.58,26.98H-45.38z M2-335.53
			l15.58,26.98L2-281.57l-15.58-26.98L2-335.53z M1.35-281.2H-29.8l-15.58-26.98h31.15L1.35-281.2z M-93.4-281.2l15.58-26.98h31.15
			l-15.58,26.98H-93.4z M-61.6-280.82l15.58-26.98l15.58,26.98l-15.58,26.98L-61.6-280.82z M-45.38-253.47l15.58-26.98H1.35
			l-15.58,26.98H-45.38z M2-280.07l15.58,26.98L2-226.12l-15.58-26.98L2-280.07z M1.35-225.75H-29.8l-15.58-26.98h31.15L1.35-225.75
			z M-93.4-225.74l15.58-26.98h31.15l-15.58,26.98H-93.4z M-61.6-225.37l15.58-26.98l15.58,26.98l-15.58,26.98L-61.6-225.37z
			 M-62.25-225l15.58,26.98h-31.15L-93.4-225H-62.25z M-109.63-197.64l15.58-26.98l15.58,26.98l-15.58,26.98L-109.63-197.64z
			 M-77.83-142.56l-15.58-26.98h31.37c0.21,0,0.37-0.17,0.37-0.37c0-0.21-0.17-0.37-0.37-0.37H-93.4l15.58-26.98h31.58l15.79,27.35
			l-15.79,27.35H-77.83z M-45.38-142.56l15.58-26.98H1.35l-15.58,26.98H-45.38z M2-169.17l15.58,26.98L2-115.21l-15.58-26.98
			L2-169.17z M1.35-114.84H-29.8l-15.58-26.98h31.15L1.35-114.84z M-93.4-114.84l15.58-26.98h31.15l-15.58,26.98H-93.4z
			 M-61.6-114.46l15.58-26.98l15.79,27.35H1.35l-15.58,26.98h-31.58L-61.6-114.46z M-62.25-114.09l15.58,26.98h-31.15l-15.58-26.98
			H-62.25z M-109.63-86.74l15.58-26.98l15.58,26.98l-15.58,26.98L-109.63-86.74z M-93.4-59.38l15.58-26.98h31.15l-15.58,26.98H-93.4
			z M-46.02-85.99l15.58,26.98l-15.58,26.98L-61.6-59.01L-46.02-85.99z M-77.83-31.66L-93.4-58.63h31.15l15.58,26.98H-77.83z
			 M-45.38-31.66l15.58-26.98H1.35l-15.58,26.98H-45.38z M-13.58-31.28L2-58.26l15.58,26.98L2-4.3L-13.58-31.28z M-29.8-3.93
			l-15.58-26.98h31.15L1.35-3.93H-29.8z M2.65-3.93l15.58-26.98h31.15L33.8-3.93H2.65z M-110.16,412.16L-110.16,412.16
			L-110.16,412.16C-110.16,412.16-110.16,412.16-110.16,412.16z M66.25,495.15l-15.58-26.98h31.15l15.58,26.98H66.25z M113.63,467.8
			l-7.9,13.68l-7.68,13.3L82.47,467.8l15.58-26.98L113.63,467.8z M2,440.82l15.58,26.98L2,494.78l-15.58-26.98L2,440.82z
			 M-14.22,467.43h-31.15l15.58-26.98H1.35L-14.22,467.43z M2.65,440.45H33.8l15.58,26.98H18.22L2.65,440.45z M97.4,440.45
			l-15.58,26.98H50.67l15.58-26.98H97.4z M65.6,440.07l-15.58,26.98l-15.58-26.98l15.58-26.98L65.6,440.07z M81.83,412.72
			L97.4,439.7H66.25l-15.58-26.98H81.83z M49.38,412.72L33.8,439.7H2.65l15.57-26.98H49.38z M49.81,411.97H18.23L2.65,384.99h31.58
			l0.11-0.18l15.69-27.17l15.58,26.98L49.81,411.97z M81.83,357.27l15.58,26.98H66.25l-15.58-26.98H81.83z M49.38,357.27
			L33.8,384.25H2.65l15.58-26.98H49.38z M-61.6,273.71l13.7-23.74l1.87-3.24l15.58,26.98l-13.12,22.72l-2.46,4.26l-13.08-22.66
			L-61.6,273.71z M-61.6,218.26l11.44-19.82l4.13-7.16l2.53,4.37l13.05,22.6l-15.58,26.98L-61.6,218.26z M33.8,162.43H2.65
			l15.58-26.98h31.15L33.8,162.43z M49.38,134.7H18.22L2.65,107.72H33.8L49.38,134.7z M65.6,162.8l-15.58,26.98L34.45,162.8
			l12.2-21.14l3.37-5.84l6.74,11.68L65.6,162.8z M65.6,218.26l-13.7,23.74l-1.87,3.24l-15.58-26.98l13.05-22.6l2.53-4.37
			l15.21,26.35L65.6,218.26z M33.8,218.63l15.58,26.98H18.23L2.65,218.63H33.8z M-14.23,245.61h-31.15l15.58-26.98H1.35l-7.33,12.7
			L-14.23,245.61z M18.23,190.91h31.15L33.8,217.89H2.65l1.71-2.97L18.23,190.91z M33.8,163.18l15.58,26.98H18.22L2.65,163.18H33.8z
			 M17.58,190.53L2,217.51l-15.58-26.98L2,163.55L17.58,190.53z M-45.38,190.91h31.15l13.36,23.14l2.22,3.84H-29.8l-13.92-24.11
			L-45.38,190.91z M-93.4,218.63h31.15l14.42,24.98l1.15,2h-31.15l-11.84-20.51L-93.4,218.63z M2,219.01l15.58,26.98L2,272.96
			l-15.58-26.98L2,219.01z M65.6,273.71l-11.62,20.13l-3.96,6.86l-2.46-4.26l-13.12-22.72l15.58-26.98L65.6,273.71z M-13.58,301.44
			L2,274.46l15.58,26.98L2,328.42L-13.58,301.44z M1.35,328.79H-29.8l-15.58-26.98h31.15L1.35,328.79z M49.38,301.07H18.23
			L4.36,277.05l-1.71-2.97H33.8l13.92,24.11L49.38,301.07z M-14.23,301.07h-31.15l15.58-26.98H1.35l-2.22,3.84L-14.23,301.07z
			 M18.23,246.36h31.15L33.8,273.34H2.65l8.25-14.28L18.23,246.36z M1.35,273.34H-29.8l-15.58-26.98h31.15L1.35,273.34z
			 M97.4,273.34H66.25l-15.58-26.98h31.15l11.77,20.39L97.4,273.34z M-29.8,329.54H1.35l-15.58,26.98h-31.15L-29.8,329.54z
			 M-61.6,329.17l15.58-26.98l15.58,26.98l-12.2,21.14l-3.37,5.84l-6.74-11.68L-61.6,329.17z M-45.38,357.27h31.15l15.58,26.98
			H-29.8L-45.38,357.27z M2,383.87l-15.58-26.98L2,329.91l15.58,26.98L2,383.87z M2.65,329.54H33.8l15.58,26.98H18.23L2.65,329.54z
			 M97.4,329.54l-15.58,26.98H50.67l15.58-26.98H97.4z M65.6,329.17l-15.58,26.98l-15.58-26.98l15.58-26.98L65.6,329.17z
			 M81.83,301.81l15.58,26.98H66.25l-15.58-26.98H81.83z M49.38,301.81L33.8,328.79H2.65l15.58-26.98H49.38z M81.83,245.61H50.67
			l7.38-12.78l8.2-14.2H97.4L81.83,245.61z M97.4,163.18l-15.58,26.98H50.67l4.45-7.72l11.12-19.26H97.4z M97.4,107.72L81.83,134.7
			H50.67l15.58-26.98H97.4z M49.81,80l15.79,27.35l-15.58,26.98l-15.71-27.21l-0.08-0.14H2.65L18.23,80H49.81z M97.4,52.27
			L81.83,79.25H50.67l15.58-26.98H97.4z M65.6,51.9L50.02,78.88L34.45,51.9l15.58-26.98L65.6,51.9z M49.38,79.25H18.22L2.65,52.27
			H33.8L49.38,79.25z M-14.22,24.54L1.35,51.53H-29.8l-15.58-26.98H-14.22z M-13.58,24.17L2-2.81l15.58,26.98L2,51.15L-13.58,24.17z
			 M18.22,24.54h31.15L33.8,51.53H2.65L18.22,24.54z M66.25,51.53L50.67,24.54h31.15L97.4,51.53H66.25z M113.63,24.17L98.05,51.15
			L82.47,24.17L98.05-2.81L113.63,24.17z M66.25-3.18H97.4L81.83,23.8H50.67L66.25-3.18z M33.8-3.18L49.38,23.8H18.22L2.65-3.18
			H33.8z M-29.8-3.18H1.35L-14.22,23.8h-31.15L-29.8-3.18z M-62.25-3.18l15.58,26.98h-31.15L-93.4-3.18H-62.25z M-109.63,24.17
			l7.9-13.68l7.68-13.3l15.58,26.98l-15.58,26.98L-109.63,24.17z M-93.4,51.53l15.58-26.98h31.15l-15.58,26.98H-93.4z M-61.6,51.9
			l15.58-26.98l15.58,26.98l-15.58,26.98L-61.6,51.9z M-77.83,79.25L-93.4,52.27h31.15l15.58,26.98H-77.83z M-45.38,79.25
			l15.58-26.98H1.35l-15.57,26.98H-45.38z M-13.58,79.62L2,52.64l15.58,26.98L2,106.6L-13.58,79.62z M-45.81,80h31.58l15.58,26.98
			h-31.58l-0.11,0.18l-15.69,27.17l-15.58-26.98L-45.81,80z M-77.83,134.7l-15.58-26.98h31.16l15.58,26.98H-77.83z M-45.38,134.7
			l15.58-26.98H1.35l-15.58,26.98H-45.38z M2,108.1l15.58,26.98L2,162.06l-15.58-26.98L2,108.1z M1.35,162.43H-29.8l-15.58-26.98
			h31.15L1.35,162.43z M-93.4,162.43l15.58-26.98h31.15l-15.58,26.98H-93.4z M-61.6,162.8l15.58-26.98l15.58,26.98l-15.58,26.98
			L-61.6,162.8z M-77.83,190.16l-15.58-26.98h31.15l15.58,26.98H-77.83z M-45.38,190.16l15.58-26.98H1.35l-15.58,26.98H-45.38z
			 M-93.4,273.34l15.58-26.98h31.16l-15.58,26.98H-93.4z M-93.4,328.79l15.58-26.98h31.15l-4.89,8.47l-10.69,18.51H-93.4z
			 M-93.4,384.25l15.58-26.98h31.15l-15.58,26.98H-93.4z M-45.81,411.97l-15.79-27.35l15.58-26.98l15.71,27.21l0.08,0.14H1.35
			l-15.58,26.98H-45.81z M2,385.37l15.58,26.98L2,439.33l-15.58-26.98L2,385.37z M1.35,439.7H-29.8l-15.58-26.98h31.15L1.35,439.7z
			 M-93.4,439.7l15.58-26.98h31.15l-15.58,26.98H-93.4z M-61.6,440.07l15.58-26.98l15.58,26.98l-15.58,26.98L-61.6,440.07z
			 M-62.25,440.45l15.58,26.98h-31.15l-15.58-26.98H-62.25z M-109.63,467.8l15.57-26.98l15.58,26.98l-15.58,26.98L-109.63,467.8z
			 M-62.25,495.15H-93.4l15.58-26.98h31.15L-62.25,495.15z M-29.8,495.15l-15.58-26.98h31.15l15.58,26.98H-29.8z M2.65,495.15
			l15.58-26.98h31.15L33.8,495.15H2.65z M65.6,828.25l-15.58,26.98l-15.58-26.98l15.58-26.98L65.6,828.25z M81.83,800.9l15.58,26.98
			H66.25L50.67,800.9H81.83z M49.38,800.9L33.8,827.87H2.65l15.58-26.98H49.38z M97.4,773.17l-15.58,26.98H50.67l15.58-26.98H97.4z
			 M65.6,772.79l-15.58,26.98L34.45,772.8l15.58-26.98L65.6,772.79z M49.38,800.15H18.23L2.65,773.17H33.8L49.38,800.15z
			 M49.38,745.44L33.8,772.42H2.65l15.58-26.98H49.38z M97.4,717.71L81.83,744.7H50.67l15.58-26.98H97.4z M65.6,717.34l-15.58,26.98
			l-15.58-26.98l15.58-26.98L65.6,717.34z M49.38,744.69H18.23L2.65,717.72H33.8L49.38,744.69z M-14.22,744.69h-31.15l15.58-26.98
			H1.35L-14.22,744.69z M2,662.64l15.58,26.98L2,716.59l-15.58-26.98L2,662.64z M-14.22,689.24h-31.15l15.58-26.98H1.35
			L-14.22,689.24z M2.65,662.26H33.8l15.58,26.98H18.23L2.65,662.26z M-14.22,689.99l8.36,14.49l7.21,12.49H-29.8l-15.58-26.98
			H-14.22z M18.22,689.99h31.15L33.8,716.97H2.65L18.22,689.99z M66.25,716.97l-15.58-26.98h31.15l15.58,26.98H66.25z
			 M113.63,689.61l-15.58,26.98l-15.58-26.98l15.58-26.98L113.63,689.61z M81.83,634.53l15.58,26.98H66.03
			c-0.21,0-0.37,0.17-0.37,0.37c0,0.21,0.17,0.37,0.37,0.37H97.4l-15.58,26.98H50.24l-15.79-27.35l15.79-27.35H81.83z M49.38,634.53
			L33.8,661.51H2.65l15.58-26.98H49.38z M97.4,606.81l-15.58,26.98H50.67l15.58-26.98H97.4z M65.6,606.43l-15.58,26.98l-15.79-27.35
			H2.65l15.58-26.98h31.58L65.6,606.43z M49.38,633.79H18.23L2.65,606.81H33.8L49.38,633.79z M66.25,606.06l-15.58-26.98h31.15
			l15.58,26.98H66.25z M113.63,578.71l-15.58,26.98l-15.58-26.98l15.58-26.98L113.63,578.71z M97.4,551.35l-15.58,26.98H50.67
			l15.58-26.98H97.4z M50.02,577.96l-15.58-26.98L50.02,524l15.58,26.98L50.02,577.96z M49.38,578.34H18.23L2.65,551.35H33.8
			L49.38,578.34z M81.83,523.63l15.58,26.98H66.25l-15.58-26.98H81.83z M49.38,523.63L33.8,550.61H2.65l15.58-26.98H49.38z
			 M33.8,495.9l15.58,26.98H18.23L2.65,495.9H33.8z M-45.38,522.88l15.58-26.98H1.35l-15.58,26.98H-45.38z M2,496.27l15.58,26.98
			L2,550.23l-15.58-26.98L2,496.27z M1.35,550.61H-29.8l-15.58-26.98h31.15L1.35,550.61z M-93.4,550.61l15.58-26.98h31.16
			l-15.58,26.98H-93.4z M-46.02,524l15.58,26.98l-15.58,26.98l-15.58-26.98L-46.02,524z M-77.83,578.34l-15.58-26.98h31.16
			l15.58,26.98H-77.83z M-45.38,578.34l15.58-26.98H1.35l-15.58,26.98H-45.38z M-13.58,578.71L2,551.73l15.58,26.98L2,605.68
			L-13.58,578.71z M-93.4,606.06l15.58-26.98h31.15l-15.58,26.98H-93.4z M-61.6,606.43l15.79-27.35h31.58l15.58,26.98h-31.58
			l-15.79,27.35L-61.6,606.43z M-77.83,633.79l-15.58-26.98h31.16l15.58,26.98H-77.83z M-45.38,633.79l15.58-26.98H1.35
			l-15.58,26.98H-45.38z M2,607.18l15.58,26.98L2,661.14l-15.58-26.98L2,607.18z M1.35,661.51H-29.8l-15.58-26.98h31.15L1.35,661.51
			z M-61.66,661.89c0-0.21-0.17-0.37-0.37-0.37H-93.4l15.58-26.98h31.59l15.79,27.35l-15.79,27.35h-31.59l-15.58-26.98h31.37
			C-61.83,662.26-61.66,662.09-61.66,661.89z M-109.63,689.61l15.58-26.98l15.58,26.98l-15.58,26.98L-109.63,689.61z M-93.4,716.97
			l15.58-26.98h31.15l-15.58,26.98H-93.4z M-61.6,717.34l15.58-26.98l15.58,26.98l-15.58,26.98L-61.6,717.34z M-77.83,744.7
			l-15.58-26.98h31.16l15.58,26.98H-77.83z M2,718.09l15.58,26.98L2,772.04l-15.58-26.98L2,718.09z M-45.38,745.44h31.15
			l15.58,26.98H-29.8L-45.38,745.44z M-61.6,772.79l10.58-18.33l4.99-8.65l15.58,26.98l-15.58,26.98L-61.6,772.79z M-77.83,800.15
			l-15.58-26.98h31.16l15.58,26.98H-77.83z M-45.38,800.15l15.58-26.98H1.35l-15.58,26.98H-45.38z M-13.58,800.52L2,773.54
			l15.58,26.98L2,827.5L-13.58,800.52z M1.35,827.87H-29.8l-15.57-26.98h31.15L1.35,827.87z M-93.4,827.87l15.58-26.98h31.15
			l-15.58,26.98H-93.4z M-61.6,828.25l15.58-26.98l15.58,26.98l-15.58,26.98L-61.6,828.25z M-77.83,855.6l-15.58-26.98h31.15
			l15.58,26.98H-77.83z M-14.22,855.6h-31.15l15.58-26.98H1.35L-14.22,855.6z M18.23,855.6L2.65,828.62H33.8l15.58,26.98H18.23z
			 M50.67,855.6l15.58-26.98H97.4L81.83,855.6H50.67z"/>
		<path class="st2" d="M34.09,662.26h63.96c0.15,0,0.28-0.09,0.34-0.21h0.04l0-0.16c0,0,0,0,0-0.01v-0.16h-0.04
			c-0.06-0.13-0.19-0.21-0.34-0.21h-31.8l-16.01-27.73H18.66l15.58-26.98l63.82,0c0.21,0,0.37-0.17,0.37-0.37s-0.17-0.37-0.37-0.37
			h-31.8l-15.79-27.35l15.79-27.35h31.8c0.21,0,0.37-0.17,0.37-0.37c0-0.21-0.17-0.37-0.37-0.37H66.68l15.68-27.17
			c0.05-0.08,0.06-0.19,0.04-0.28c-0.03-0.1-0.09-0.18-0.18-0.23c-0.18-0.1-0.41-0.04-0.51,0.14l-15.68,27.17l-15.58-26.98
			l15.79-27.35h31.8c0.21,0,0.37-0.17,0.37-0.37c0-0.21-0.17-0.37-0.37-0.37H66.68l15.79-27.35l-0.11-0.19l-15.68-27.17h31.37
			c0.21,0,0.37-0.17,0.37-0.37c0-0.21-0.17-0.37-0.37-0.37h-31.8l-15.79-27.35l31.91-55.27c0.05-0.09,0.06-0.19,0.04-0.28
			c-0.03-0.1-0.09-0.18-0.18-0.23c-0.18-0.1-0.41-0.04-0.51,0.14l-15.68,27.17l-15.79-27.35H18.66l15.58-26.98h31.85l0.05-0.02
			c0.02,0,0.06-0.01,0.09-0.03l0.05-0.03l0.02-0.03c0.03-0.03,0.05-0.06,0.07-0.09c0.01-0.02,0.03-0.05,0.04-0.09l0.01-0.02
			l0.01-0.06c0-0.04-0.01-0.08-0.02-0.1l0-0.02l-0.03-0.07l-15.9-27.54l16.01-27.73l-0.05-0.08l-16.18-28.02H18.65l15.79-27.35l0,0
			l0,0l-0.1-0.18l-15.69-27.17h31.37c0.21,0,0.37-0.17,0.37-0.37c0-0.21-0.17-0.37-0.37-0.37h-31.8l0,0h-31.58l15.58-26.98h32.01
			l16.22-28.1l-0.05-0.08l-15.96-27.65l16.01-27.73L34.66,52.27h31.58l16.12-27.91c0.1-0.18,0.03-0.41-0.14-0.51
			c-0.18-0.1-0.41-0.04-0.51,0.14l-15.9,27.54H34.66l15.79-27.35l-0.1-0.18L34.66-3.18h31.37c0.21,0,0.37-0.17,0.37-0.37
			c0-0.21-0.17-0.37-0.37-0.37H34.66l15.58-26.98h31.85l0.05-0.03c0.03,0,0.06-0.01,0.09-0.03l0.06-0.06
			c0.13-0.12,0.15-0.31,0.07-0.45L66.25-59.39l-31.58,0l15.79-27.35l-15.79-27.35h31.59l16.22-28.1l-0.05-0.08l-16.18-28.02H2.08
			l-0.44,0.26L1.62-170l-15.62,27.06l-15.65-27.1l-0.44-0.26h-63.96c-0.15,0-0.28,0.09-0.34,0.21h-0.04l0,0.16c0,0,0,0,0,0.01v0.16
			h0.04c0.06,0.13,0.19,0.21,0.34,0.21h31.8l16.01,27.73h31.59l-15.58,26.98l-63.82,0c-0.21,0-0.37,0.17-0.37,0.37
			c0,0.21,0.17,0.37,0.37,0.37h31.8l15.79,27.35l-15.79,27.35h-31.8c-0.21,0-0.37,0.17-0.37,0.37c0,0.21,0.17,0.37,0.37,0.37h31.37
			l-15.68,27.17c-0.05,0.08-0.06,0.19-0.04,0.28c0.03,0.1,0.09,0.18,0.18,0.23c0.18,0.1,0.41,0.04,0.51-0.14l15.68-27.17
			l15.58,26.98L-62.25-3.93h-31.8c-0.21,0-0.37,0.17-0.37,0.37c0,0.21,0.17,0.37,0.37,0.37h31.37l-15.79,27.35l0.11,0.19
			l15.68,27.17h-31.37c-0.21,0-0.37,0.17-0.37,0.37s0.17,0.37,0.37,0.37h31.8l15.79,27.35l-31.91,55.27
			c-0.05,0.09-0.06,0.19-0.04,0.28c0.03,0.1,0.09,0.18,0.18,0.23c0.18,0.1,0.41,0.04,0.51-0.14l15.68-27.17l15.79,27.35h31.59
			l-15.58,26.98h-31.85l-0.05,0.02c-0.02,0-0.06,0.01-0.09,0.03l-0.05,0.03l-0.02,0.03c-0.03,0.03-0.05,0.06-0.07,0.09
			c-0.01,0.02-0.03,0.05-0.04,0.09l-0.01,0.02l-0.01,0.06c0,0.04,0.01,0.08,0.02,0.1l0,0.02l0.03,0.07l15.9,27.54l-16.01,27.73
			l0.05,0.08l16.18,28.02h31.59l-15.79,27.35l0,0l0,0l0.1,0.18l15.69,27.17h-31.37c-0.21,0-0.37,0.17-0.37,0.37
			c0,0.21,0.17,0.37,0.37,0.37h31.8l0,0h31.58L1.78,328.79h-32.01l-16.22,28.1l0.05,0.08l15.96,27.65l-16.01,27.73l15.79,27.35
			h-31.58l-16.12,27.91c-0.1,0.18-0.03,0.41,0.14,0.51c0.18,0.1,0.41,0.04,0.51-0.14l15.9-27.54h31.15l-15.79,27.35l0.1,0.18
			l15.69,27.17h-31.37c-0.21,0-0.37,0.17-0.37,0.37c0,0.21,0.17,0.37,0.37,0.37h31.37l-15.58,26.98h-31.85l-0.05,0.03
			c-0.02,0-0.06,0.01-0.09,0.03l-0.06,0.06c-0.13,0.12-0.15,0.31-0.07,0.45l16.12,27.92l31.58,0l-15.79,27.35l15.79,27.35h-31.59
			l-16.22,28.1l0.05,0.08l16.18,28.02H1.92l0.44-0.26l0.02-0.04l15.62-27.06l15.65,27.1L34.09,662.26z M49.81,579.08l15.58,26.98
			H34.23l-15.58-26.98H49.81z M65.39,551.36l-15.58,26.98H18.66l15.58-26.98H65.39z M49.81,523.63l15.58,26.98H34.23l-15.58-26.98
			H49.81z M65.39,495.9l-15.58,26.98H18.66l15.58-26.98H65.39z M81.61,467.8l-15.58,26.98L50.46,467.8l15.58-26.98L81.61,467.8z
			 M65.39,440.45L49.59,467.8l15.79,27.35H34.23L18.44,467.8l15.79-27.35H65.39z M49.81,412.72l15.58,26.98H34.23l-15.58-26.98
			H49.81z M49.81,357.27l15.58,26.98H34.23l-15.58-26.98H49.81z M65.39,328.79H34.23l-15.58-26.98h31.15L65.39,328.79z
			 M18.01,300.69L2.43,273.71l15.57-26.98l15.58,26.98L18.01,300.69z M17.36,301.06h-30.72L2,274.46L17.36,301.06z M17.36,246.36
			L2,272.97l-15.36-26.61H17.36z M1.35,273.34h-30.72l15.36-26.61L1.35,273.34z M1.35,274.09l-15.36,26.6l-15.36-26.6H1.35z
			 M65.39,274.09l-15.58,26.98H18.65l15.58-26.98H65.39z M65.39,273.34H34.23l-15.58-26.98h31.15L65.39,273.34z M-14.01,191.28
			l15.57,26.98l-15.57,26.98l-15.58-26.98L-14.01,191.28z M-13.36,190.91h30.72L2,217.51L-13.36,190.91z M2,219l15.36,26.61h-30.72
			L2,219z M2.65,218.63h30.72l-15.36,26.61L2.65,218.63z M2.65,217.88l15.36-26.6l15.36,26.6H2.65z M49.59,79.62L34.02,106.6
			L18.44,79.62l15.58-26.98L49.59,79.62z M49.59,24.17L34.02,51.15L18.44,24.17L34.02-2.81L49.59,24.17z M33.37,51.52H2.21
			l-15.57-26.98h31.15L33.37,51.52z M33.37-3.18L17.79,23.8h-31.15L2.22-3.18H33.37z M65.82-58.64l15.58,26.98H50.24L34.66-58.64
			H65.82z M33.37-59.39H2.21l-15.57-26.98h31.15L33.37-59.39z M81.39-141.82l-15.58,26.98H34.66l15.58-26.98H81.39z M65.82-169.55
			l15.58,26.98H50.24l-15.58-26.98H65.82z M-45.81-142.57l-15.58-26.98h31.16l15.58,26.98H-45.81z M-13.58-142.19l15.79-27.35h31.15
			l-15.68,27.17c-0.1,0.18-0.04,0.4,0.14,0.51c0.18,0.1,0.4,0.04,0.51-0.13l15.68-27.17l15.58,26.98L33.8-114.84H2.21L-13.58-142.19
			z M-29.59-114.47l15.58-26.98l15.58,26.98l-15.58,26.98L-29.59-114.47z M-45.81-87.11l-15.58-26.98h31.16l15.58,26.98H-45.81z
			 M-13.36-87.11l15.58-26.98h31.15L17.79-87.11H-13.36z M34.02-113.72l15.58,26.98L34.02-59.76L18.44-86.74L34.02-113.72z
			 M-61.39-59.39l15.58-26.98h31.15l-15.58,26.98H-61.39z M-29.59-59.01l15.58-26.98L1.57-59.01l-15.58,26.98L-29.59-59.01z
			 M-45.81-31.66l-15.58-26.98h31.16l15.58,26.98H-45.81z M-13.36-31.66L2.22-58.64h31.15L17.79-31.66H-13.36z M34.02-58.26
			l15.58,26.98L33.8-3.93H2.21l-15.57-26.98h31.58L34.02-58.26z M-61.39-3.93l15.58-26.98h31.15L-30.23-3.93H-61.39z M-29.59-3.56
			l15.58-26.98L1.57-3.56l-15.58,26.98L-29.59-3.56z M-77.61,24.17l15.58-26.98l15.58,26.98l-15.58,26.98L-77.61,24.17z
			 M-61.39,51.52l15.79-27.35L-61.39-3.18h31.16l15.79,27.35l-15.79,27.35H-61.39z M-29.59,51.9l15.58-26.98L1.57,51.9l-15.58,26.98
			L-29.59,51.9z M-45.81,79.25l-15.58-26.98h31.16l15.58,26.98H-45.81z M2.22,52.27h31.15L17.58,79.62l0.1,0.18l15.69,27.17H2.21
			l-15.79-27.35L2.22,52.27z M-61.39,106.98L-45.81,80h31.59l15.79,27.35l-15.58,26.98l-15.79-27.35H-61.39z M-45.81,134.7
			l-15.58-26.98h31.16l15.58,26.98H-45.81z M-13.36,134.7l15.58-26.98h31.15L17.79,134.7H-13.36z M18.44,135.08l15.58-26.98
			l15.58,26.98l-15.58,26.98L18.44,135.08z M17.79,135.45l15.57,26.98H2.21l-15.57-26.98H17.79z M-14.01,135.82L1.57,162.8
			l-15.58,26.98l-15.58-26.98L-14.01,135.82z M-61.39,163.18h31.15l15.58,26.98h-31.15L-61.39,163.18z M-61.39,217.88l15.58-26.98
			h31.16l-15.58,26.98H-61.39z M-61.39,218.63h31.15l15.58,26.98h-31.15L-61.39,218.63z M18.01,302.19l15.58,26.98l-15.58,26.98
			L2.43,329.17L18.01,302.19z M1.79,329.54l15.57,26.98h-31.15l-15.57-26.98H1.79z M-45.59,356.89l15.58-26.98l15.58,26.98
			l-15.58,26.98L-45.59,356.89z M-29.37,384.25l15.58-26.98h31.15L1.78,384.25H-29.37z M2.43,384.62l15.58-26.98L33.8,385h31.59
			l-15.58,26.98H18.22L2.43,384.62z M-45.59,412.35l15.58-26.98l15.58,26.98l-15.58,26.98L-45.59,412.35z M-29.37,439.7l15.79-27.35
			l-0.1-0.18L-29.37,385H1.79l15.79,27.35L1.78,439.7H-29.37z M2.43,440.07l15.58-26.98l15.58,26.98l-15.58,26.98L2.43,440.07z
			 M1.79,440.45l15.57,26.98h-31.15l-15.57-26.98H1.79z M-45.59,467.8l15.58-26.98l15.58,26.98l-15.58,26.98L-45.59,467.8z
			 M-29.37,495.15l15.58-26.98h31.15L1.78,495.15H-29.37z M2.43,495.53l15.58-26.98l15.58,26.98l-15.58,26.98L2.43,495.53z
			 M-45.59,523.26l15.79-27.35H1.79l15.57,26.98h-31.58l-15.79,27.35L-45.59,523.26z M-61.82,550.61l-15.58-26.98h31.15l15.58,26.98
			H-61.82z M-29.37,550.61l15.58-26.98h31.15L1.78,550.61H-29.37z M2.43,550.98L18.01,524l15.58,26.98l-15.58,26.98L2.43,550.98z
			 M-29.37,551.36H1.79l15.57,26.98h-31.15L-29.37,551.36z M-45.59,578.71l15.58-26.98l15.58,26.98l-15.58,26.98L-45.59,578.71z
			 M-29.37,606.06l15.58-26.98h31.15L1.78,606.06H-29.37z M18.01,579.46l15.58,26.98l-15.58,26.98L2.43,606.44L18.01,579.46z
			 M-77.39,633.79l15.58-26.98h31.15l-15.58,26.98H-77.39z M-61.82,661.52l-15.58-26.98h31.15l15.58,26.98H-61.82z M1.78,661.52
			h-31.15l15.68-27.17c0.1-0.18,0.04-0.4-0.14-0.51c-0.18-0.1-0.4-0.04-0.51,0.13l-15.68,27.17l-15.58-26.98l15.79-27.35H1.79
			l15.79,27.35L1.78,661.52z M34.23,661.52l-15.58-26.98h31.16l15.58,26.98H34.23z"/>
	</g>
</g>
</svg>
