<svg height="45" width="45" xmlns="http://www.w3.org/2000/svg"><g fill="none"><path d="M22.544 35.528c-7.315 0-13.685-2.65-17-6.565C8.052 35.982 14.716 41 22.543 41c7.828 0 14.492-5.018 17.001-12.037-3.316 3.915-9.686 6.565-17 6.565m0-25.483c7.315 0 13.685 2.65 17.001 6.566-2.51-7.02-9.173-12.037-17-12.037-7.828 0-14.492 5.018-17.002 12.037 3.316-3.915 9.686-6.566 17.001-6.566" fill="#e46e2e"/><path d="M8.838 44.977c-1.568.067-2.894-1.16-2.962-2.74a2.856 2.856 0 0 1 2.719-2.984c1.568-.068 2.894 1.159 2.961 2.74.067 1.58-1.15 2.916-2.718 2.984zM6.657 7.679a1.782 1.782 0 0 1-1.851-1.712A1.785 1.785 0 0 1 6.505 4.1a1.78 1.78 0 0 1 1.85 1.712A1.785 1.785 0 0 1 6.658 7.68zm28.206-2.122A2.767 2.767 0 0 1 31.99 2.9 2.772 2.772 0 0 1 34.628.004a2.767 2.767 0 0 1 2.874 2.658 2.772 2.772 0 0 1-2.638 2.896z" fill="#767474"/><path d="M1.874 25.203c0 1.65-.128 2.19-.47 2.589-.298.327-.796.483-1.364.526l.128.981c.668 0 1.578-.227 2.133-.782.61-.626.824-1.493.824-2.83v-6.243H1.874v5.76m9.343-.754c0 .71.014 1.337.056 1.877h-1.109l-.071-1.124h-.028a2.59 2.59 0 0 1-2.276 1.28c-1.08 0-2.374-.597-2.374-3.015v-4.024h1.251v3.811c0 1.308.398 2.19 1.536 2.19.839 0 1.422-.583 1.65-1.138a1.83 1.83 0 0 0 .113-.64v-4.223h1.252zm2.36-2.76c0-.881-.028-1.592-.057-2.246h1.124l.057 1.18h.028c.512-.839 1.322-1.337 2.446-1.337 1.664 0 2.915 1.408 2.915 3.499 0 2.474-1.507 3.697-3.129 3.697-.91 0-1.706-.398-2.118-1.08h-.029v3.74h-1.237zm1.237 1.835c0 .185.029.356.057.512a1.93 1.93 0 0 0 1.877 1.465c1.323 0 2.09-1.08 2.09-2.66 0-1.379-.725-2.56-2.047-2.56-.853 0-1.65.612-1.891 1.55a2.032 2.032 0 0 0-.086.513zm7.494-4.081 1.508 4.067c.156.455.327.995.44 1.408h.029c.128-.413.27-.939.44-1.436l1.366-4.04h1.322l-1.877 4.907c-.896 2.36-1.507 3.57-2.36 4.31-.612.54-1.223.753-1.536.81l-.313-1.052c.313-.1.725-.3 1.095-.612.341-.27.768-.754 1.052-1.394.057-.128.1-.227.1-.298 0-.072-.028-.171-.085-.327l-2.546-6.343zm8.396-1.977v1.977h1.792v.953h-1.792v3.711c0 .854.242 1.337.939 1.337.327 0 .569-.043.725-.085l.057.938c-.242.1-.626.171-1.11.171-.582 0-1.052-.185-1.35-.526-.356-.37-.484-.981-.484-1.792v-3.754h-1.066v-.953h1.066v-1.65zm4.096 5.646c.028 1.692 1.109 2.389 2.36 2.389.896 0 1.436-.156 1.906-.356l.213.896c-.44.2-1.194.427-2.29.427-2.118 0-3.384-1.394-3.384-3.47s1.223-3.712 3.228-3.712c2.247 0 2.844 1.977 2.844 3.243 0 .256-.028.455-.042.583zm3.668-.896c.015-.797-.327-2.034-1.734-2.034-1.266 0-1.82 1.166-1.92 2.034zm3.044-.626c0-.81-.015-1.507-.057-2.147h1.095l.042 1.35h.057c.313-.924 1.067-1.507 1.906-1.507.142 0 .242.014.355.043v1.18a1.885 1.885 0 0 0-.426-.042c-.882 0-1.508.668-1.678 1.607-.029.17-.057.37-.057.583v3.669h-1.237V21.59" fill="#313940"/></g></svg>