<svg xmlns="http://www.w3.org/2000/svg" width="41" height="40" fill="none" viewBox="0 0 41 40">
    <path fill="#fff" d="M40.917 39.998l-.001.002H.919s-.002 0-.002-.002V.002L.92 0h39.997l.002.001v39.997z"/>
    <path fill="#D00000" d="M40.25 39.332v.001H1.585l-.002-.001V.668l.001-.001H40.25l.001.001v38.664z"/>
    <path fill="#fff" d="M12.14 30.507c0 .029.016.07.037.09l.662.662c.02.02.061.037.09.037h2.265c.03 0 .07-.017.09-.037l.662-.662c.02-.02.037-.061.037-.09V23.32c0-.029.018-.07.039-.09l2.877-2.747c.021-.02.052-.017.069.007l7.27 10.763c.016.024.053.044.082.044h3.209c.029 0 .064-.021.077-.047l.582-1.128c.014-.026.011-.067-.006-.09L21.68 17.704c-.017-.024-.014-.06.007-.08l7.822-7.786c.02-.02.037-.06.037-.09v-.144c0-.029-.01-.075-.021-.102l-.451-1.037c-.012-.027-.046-.049-.074-.049h-3.172c-.03 0-.07.018-.09.038l-9.715 9.752c-.021.02-.038.013-.038-.016V9.245c0-.03-.016-.07-.036-.092l-.65-.696c-.02-.022-.06-.04-.089-.04h-2.28c-.03 0-.07.018-.09.04l-.664.718c-.02.021-.036.062-.036.091v21.24z"/>
</svg>
