<svg xmlns="http://www.w3.org/2000/svg" width="30" height="23" fill="none"><path fill="#000" d="M29.25 16.25H27V3.5c0-1.64-1.36-3-3-3H6c-1.688 0-3 1.36-3 3v12.75H.75c-.422 0-.75.375-.75.75v2.25C0 21.36 1.64 23 3.75 23h22.5A3.73 3.73 0 0030 19.25V17c0-.375-.375-.75-.75-.75zM4.5 3.5C4.5 2.703 5.156 2 6 2h18c.797 0 1.5.703 1.5 1.5v12.75h-7.172c-.187 0-.328.188-.375.375-.187.656-.75 1.125-1.453 1.125h-3a1.52 1.52 0 01-1.5-1.125c-.047-.188-.188-.375-.375-.375H4.5V3.5zm24 15.75a2.25 2.25 0 01-2.25 2.25H3.75a2.22 2.22 0 01-2.25-2.25v-1.5h9.094c.328.89 1.172 1.5 2.156 1.5h4.5c.938 0 1.781-.61 2.11-1.5h9.14v1.5z"/></svg>