<svg xmlns="http://www.w3.org/2000/svg" width="95" height="20" fill="none" viewBox="0 0 95 20">
    <path fill="#11557C" d="M15.551 15.205c-.005.073-.032.138-.08.195-.047.05-.123.094-.228.13-.104.036-.243.061-.416.076-.175.021-.397.032-.664.032-.274 0-.497-.01-.669-.032-.172-.016-.31-.041-.416-.077-.099-.036-.168-.079-.209-.13-.03-.057-.044-.122-.039-.194l.426-5.729c.023-.324.013-.62-.031-.888-.039-.267-.116-.494-.232-.682-.108-.196-.255-.344-.443-.445-.18-.108-.404-.162-.671-.162-.324 0-.662.127-1.014.38-.351.253-.74.621-1.166 1.105l-.478 6.424c-.005.072-.032.137-.08.194-.047.051-.126.094-.238.13-.104.036-.243.062-.417.076-.175.022-.392.033-.652.033-.267 0-.487-.011-.66-.033-.172-.015-.311-.04-.417-.076-.099-.037-.168-.08-.208-.13-.039-.058-.056-.123-.051-.194l.426-5.73c.023-.324.013-.62-.031-.887-.039-.267-.112-.495-.22-.683-.108-.195-.256-.343-.444-.445-.186-.108-.41-.162-.67-.162-.333 0-.674.127-1.025.38-.351.253-.736.622-1.155 1.105L2.9 15.21c-.006.072-.033.137-.081.194-.047.051-.126.095-.238.13-.104.036-.243.062-.416.076-.175.022-.396.033-.663.033s-.487-.01-.66-.033c-.172-.015-.311-.04-.417-.076-.099-.036-.168-.08-.208-.13-.039-.057-.056-.122-.051-.194l.717-9.662c.006-.073.029-.134.07-.185.04-.058.109-.105.206-.141.096-.037.218-.062.363-.077.155-.021.344-.032.567-.032.232 0 .423.01.572.032.15.016.265.041.342.077.085.036.142.083.173.14.033.052.046.113.04.186l-.083 1.116c.578-.579 1.14-1.012 1.69-1.3.556-.289 1.123-.433 1.702-.433.397 0 .751.043 1.062.13.312.08.585.199.818.358.242.152.445.337.61.553.164.216.297.458.4.725.311-.31.613-.577.905-.802.298-.224.586-.404.863-.541.286-.145.564-.249.836-.313.28-.073.56-.109.843-.109.642 0 1.176.108 1.6.324.425.216.756.512.996.888.247.368.41.801.488 1.3.079.498.097 1.025.056 1.58l-.461 6.186.01-.005zm10.926.032c-.008.1-.05.18-.127.238-.077.058-.196.098-.356.12-.154.028-.382.042-.685.042-.324 0-.561-.014-.712-.043-.142-.021-.244-.061-.305-.119-.054-.058-.077-.137-.07-.238l.058-.769c-.429.426-.908.758-1.438.995-.523.24-1.096.36-1.717.36-.512 0-.98-.07-1.404-.207-.416-.13-.774-.324-1.072-.584-.29-.267-.508-.596-.652-.986-.145-.39-.197-.845-.159-1.366.042-.563.186-1.05.434-1.462.255-.419.609-.762 1.063-1.03.46-.275 1.02-.477 1.68-.606.66-.13 1.42-.195 2.278-.195h.942l.044-.584c.023-.304.01-.567-.038-.79-.04-.232-.128-.424-.26-.575-.126-.152-.306-.264-.539-.336-.226-.072-.512-.108-.858-.108-.456 0-.867.05-1.235.15-.361.1-.684.212-.968.336-.283.123-.522.235-.718.335-.188.1-.34.15-.454.15-.08 0-.15-.025-.211-.076-.054-.05-.1-.123-.136-.216-.029-.094-.05-.21-.06-.347-.012-.138-.012-.29 0-.455.017-.224.048-.401.093-.533.046-.13.123-.245.231-.347.108-.108.294-.224.556-.347.262-.13.567-.25.914-.359.348-.108.722-.195 1.123-.26.409-.073.827-.109 1.253-.109.759 0 1.4.076 1.922.228.53.144.958.372 1.281.683.324.303.548.697.671 1.18.124.484.16 1.058.11 1.723l-.484 6.498.005.009zm-2.368-4.138h-1.04c-.44 0-.817.032-1.134.097-.316.065-.576.162-.78.293-.204.13-.36.288-.468.477-.1.18-.16.39-.178.628-.03.405.072.723.308.954.243.231.592.347 1.047.347.382 0 .74-.097 1.073-.293.34-.195.689-.48 1.05-.856l.122-1.647zM34.783 14.253c-.023.318-.063.563-.12.736-.048.166-.108.286-.178.359-.07.065-.172.126-.307.185-.126.051-.277.094-.453.13-.17.043-.357.075-.56.097-.197.021-.397.032-.599.032-.541 0-1.006-.068-1.392-.206-.386-.137-.698-.347-.938-.628-.239-.289-.403-.65-.493-1.084-.09-.433-.113-.946-.07-1.539l.369-4.95h-1.158c-.137 0-.235-.083-.295-.249-.06-.174-.074-.459-.046-.856.015-.209.036-.386.061-.533.033-.144.07-.256.111-.335.043-.087.09-.149.144-.186.06-.036.126-.054.2-.054h1.147l.162-2.155c.006-.073.029-.137.07-.195.047-.057.123-.105.227-.14.111-.044.254-.073.428-.088.182-.021.403-.032.663-.032.267 0 .487.01.66.032.18.016.318.045.416.087.1.036.168.084.206.141.039.058.056.123.051.195l-.162 2.155h2.102c.073 0 .133.018.18.054.055.037.097.098.128.186.03.079.048.19.05.335.012.144.01.322-.006.533-.03.397-.087.682-.174.856-.084.166-.195.249-.332.249h-2.112l-.338 4.537c-.039.527.015.924.162 1.192.147.26.433.39.859.39.144 0 .275-.01.393-.032.118-.029.222-.058.31-.087l.234-.087c.067-.028.126-.043.177-.043.044 0 .082.015.116.043.042.022.07.072.086.15.015.073.026.174.031.304.012.13.01.295-.005.497l-.005.004zM46.802 10.233c-.064.86-.215 1.636-.455 2.33-.231.686-.542 1.27-.931 1.754-.39.484-.858.855-1.404 1.115-.547.26-1.16.39-1.838.39-.282 0-.54-.028-.773-.086-.228-.051-.45-.13-.665-.239-.208-.115-.414-.256-.618-.422-.204-.166-.414-.36-.628-.585l-.338 4.549c-.006.073-.033.137-.081.194-.048.058-.127.105-.239.142-.104.043-.243.075-.419.097-.175.021-.396.032-.663.032s-.487-.01-.66-.032c-.172-.022-.31-.054-.416-.097-.099-.037-.168-.084-.206-.142-.039-.057-.056-.122-.051-.194l1.005-13.495c.005-.073.028-.135.069-.186.04-.057.105-.104.194-.14.097-.037.218-.062.364-.077.154-.022.343-.033.567-.033.216 0 .396.011.54.033.15.015.267.04.351.076.091.037.153.084.185.141.033.051.046.113.04.186l-.084 1.137c.304-.288.597-.54.88-.758.29-.223.583-.408.875-.552.293-.152.59-.264.891-.335.309-.073.633-.11.972-.11.708 0 1.3.142 1.778.423.479.275.855.654 1.129 1.138.281.484.47 1.047.567 1.69.096.643.117 1.328.063 2.058v-.002zm-2.853.195c.031-.411.028-.805-.009-1.18-.03-.383-.109-.723-.238-1.02-.124-.295-.301-.53-.533-.703-.224-.18-.517-.27-.88-.27-.18 0-.363.028-.548.086-.178.051-.365.138-.561.26-.19.124-.39.283-.599.477-.208.196-.432.437-.671.726l-.237 3.183c.347.484.684.86 1.01 1.126.327.26.678.39 1.053.39.355 0 .662-.09.92-.27.266-.181.49-.416.67-.704.181-.297.322-.629.422-.996.106-.368.174-.736.201-1.105zM51.35 15.206c-.005.072-.032.137-.08.194-.046.051-.126.094-.237.13-.105.036-.243.061-.417.076-.175.022-.396.033-.663.033s-.487-.011-.66-.033c-.172-.015-.31-.04-.417-.076-.098-.037-.168-.08-.208-.13-.038-.058-.056-.123-.05-.194L49.677.96c.005-.072.032-.137.08-.194.048-.058.124-.105.227-.141.112-.043.255-.076.428-.097.176-.022.397-.033.664-.033s.486.01.66.033c.171.021.306.054.404.097.106.036.178.083.217.14.038.059.055.124.05.195l-1.06 14.245h.003zM64.216 10.277c-.062.824-.227 1.575-.494 2.254s-.639 1.264-1.115 1.755c-.477.49-1.058.87-1.742 1.137-.685.267-1.47.4-2.359.4-.86 0-1.598-.119-2.215-.358-.618-.24-1.12-.586-1.505-1.04-.386-.455-.655-1.014-.807-1.678-.152-.663-.197-1.421-.134-2.274.062-.823.226-1.574.493-2.253.275-.687.65-1.272 1.127-1.755.477-.49 1.054-.87 1.732-1.138.684-.267 1.47-.4 2.359-.4.866 0 1.609.12 2.227.359.617.231 1.115.574 1.493 1.03.385.455.654 1.014.806 1.678.153.663.198 1.425.134 2.286v-.002zm-2.813.11c.035-.478.028-.914-.023-1.31-.043-.405-.143-.756-.301-1.052-.158-.296-.383-.528-.674-.694-.284-.166-.653-.25-1.107-.25-.405 0-.764.077-1.079.229-.314.144-.58.361-.796.65-.216.282-.39.625-.521 1.03-.124.398-.205.853-.243 1.366-.036.477-.029.918.02 1.322.05.397.151.744.301 1.04.159.296.383.527.674.694.292.159.661.238 1.109.238.411 0 .774-.072 1.088-.216.315-.152.58-.37.796-.65.216-.282.386-.622.51-1.02.123-.404.204-.863.243-1.377h.003zM71.785 14.253c-.023.318-.063.563-.12.736-.048.166-.107.286-.178.359-.069.065-.171.126-.306.185-.127.051-.278.094-.454.13-.17.043-.356.075-.56.097-.197.021-.396.032-.599.032-.541 0-1.005-.068-1.392-.206-.386-.137-.698-.347-.937-.628-.24-.289-.404-.65-.493-1.084-.09-.433-.114-.946-.07-1.539l.368-4.95h-1.157c-.138 0-.236-.083-.295-.249-.06-.174-.075-.459-.047-.856.016-.209.036-.386.062-.533.032-.144.07-.256.11-.335.043-.087.091-.149.144-.186.06-.036.127-.054.2-.054h1.148l.162-2.155c.005-.073.028-.137.069-.195.048-.057.124-.105.227-.14.112-.044.254-.073.428-.088.182-.021.403-.032.663-.032.267 0 .487.01.66.032.18.016.319.045.417.087.099.036.167.084.206.141.038.058.055.123.05.195l-.161 2.155h2.101c.073 0 .133.018.181.054.054.037.096.098.127.186.031.079.048.19.051.335.011.144.009.322-.007.533-.029.397-.087.682-.173.856-.085.166-.196.249-.332.249h-2.113l-.338 4.537c-.038.527.016.924.162 1.192.147.26.433.39.86.39.143 0 .275-.01.393-.032.118-.029.221-.058.31-.087l.234-.087c.067-.028.126-.043.177-.043.043 0 .081.015.115.043.042.022.07.072.086.15.016.073.026.174.031.304.013.13.011.295-.004.497l-.006.004zM76.438 15.206c-.006.072-.033.137-.081.194-.047.051-.126.094-.238.13-.104.036-.243.061-.416.076-.175.022-.397.033-.663.033-.268 0-.487-.011-.66-.033-.172-.015-.311-.04-.417-.076-.099-.037-.168-.08-.208-.13-.039-.058-.056-.123-.051-.194L74.764.96c.005-.072.032-.137.081-.194.048-.058.124-.105.227-.141.112-.043.255-.076.428-.097.175-.022.396-.033.663-.033s.487.01.66.033c.172.021.307.054.405.097.106.036.178.083.217.14.038.059.055.124.05.195l-1.06 14.245h.003zM81.896 15.206c-.005.072-.032.137-.081.194-.046.051-.125.094-.237.13-.104.036-.243.061-.417.076-.175.022-.396.033-.663.033s-.487-.011-.66-.033c-.172-.015-.31-.04-.416-.076-.1-.037-.169-.08-.209-.13-.038-.058-.055-.123-.05-.194l.717-9.642c.005-.072.032-.134.079-.185.047-.058.123-.105.226-.141.112-.043.255-.076.429-.097.175-.022.396-.033.663-.033s.487.011.66.033c.172.021.307.054.405.097.105.036.177.083.216.141.039.051.056.113.051.185l-.718 9.642h.005zm1.169-12.933c-.04.548-.18.927-.42 1.137-.24.209-.662.313-1.269.313-.613 0-1.02-.101-1.223-.303-.194-.202-.272-.567-.232-1.094.041-.548.178-.927.41-1.138.24-.216.666-.324 1.28-.324.607 0 1.01.104 1.212.313.2.202.282.566.243 1.093l-.001.003zm11.655 7.972c-.064.86-.215 1.632-.454 2.318-.239.687-.553 1.272-.943 1.755-.39.484-.854.856-1.393 1.116-.533.26-1.127.39-1.783.39-.324 0-.625-.033-.903-.098-.277-.058-.54-.155-.79-.292-.242-.138-.482-.311-.72-.521-.23-.209-.464-.461-.701-.758l-.08 1.05c-.005.08-.032.149-.08.207-.04.05-.109.094-.205.13-.09.036-.21.061-.363.076s-.338.023-.556.023c-.224 0-.41-.008-.561-.023-.144-.016-.261-.041-.352-.077-.085-.036-.143-.08-.174-.13-.03-.057-.044-.126-.04-.205L85.684.96c.005-.072.032-.137.081-.194.048-.058.124-.105.227-.141.112-.043.255-.076.428-.097.175-.022.396-.033.663-.033s.487.01.66.033c.172.021.307.054.405.097.106.036.178.083.217.14.038.059.055.124.05.195l-.396 5.34c.263-.245.525-.454.783-.628.259-.173.515-.314.769-.422.254-.116.513-.199.775-.25.264-.05.54-.076.829-.076.715 0 1.31.145 1.787.433.478.282.854.665 1.127 1.149.282.483.47 1.05.567 1.7.097.644.118 1.323.065 2.038zm-2.841.194c.03-.41.027-.808-.01-1.192-.029-.382-.108-.722-.238-1.018-.13-.297-.31-.531-.544-.704-.224-.18-.52-.27-.891-.27-.18 0-.36.025-.536.076-.177.05-.365.137-.561.26-.19.123-.39.282-.599.477-.208.195-.432.437-.671.726L87.59 12c.347.49.684.866 1.01 1.126.335.253.694.38 1.076.38.355 0 .662-.09.92-.271.259-.181.479-.416.659-.704.188-.289.331-.617.43-.986.1-.368.164-.737.191-1.106h.002z"/>
    <path fill="#fff" stroke="#fff" stroke-linejoin="round" stroke-miterlimit="100000" stroke-width=".526" d="M59.21 18.388c4.52 0 8.185-3.665 8.185-8.186 0-4.52-3.665-8.186-8.186-8.186-4.52 0-8.186 3.665-8.186 8.186s3.665 8.186 8.186 8.186z"/>
    <path fill="#fff" d="M59.153 17.918c2.06 0 4.037-.819 5.494-2.276 1.456-1.457 2.275-3.433 2.275-5.493 0-2.061-.819-4.037-2.275-5.494-1.458-1.457-3.434-2.276-5.494-2.276-1.02 0-2.03.201-2.973.592-.943.39-1.8.962-2.52 1.684-.722.721-1.294 1.578-1.685 2.52-.39.943-.591 1.953-.591 2.974 0 1.02.2 2.03.591 2.973.39.942.963 1.799 1.684 2.52.722.722 1.578 1.294 2.52 1.684.943.39 1.954.592 2.974.592z" opacity=".05"/>
    <path stroke="#858585" stroke-dasharray=".05 .05" stroke-linecap="round" stroke-linejoin="round" stroke-width=".046" d="M59.154 10.15h-7.77m7.77 0h7.768-7.768zm0 0l5.493-5.494-5.493 5.493zm0 0V2.38v7.77zm0 0L53.66 4.655l5.494 5.493zM59.153 10.15l5.493 5.492m-5.493-5.493l-5.493 5.494 5.493-5.494zm0 0v7.77-7.77z" opacity=".9"/>
    <path stroke="#818181" stroke-dasharray=".05 .05" stroke-linecap="square" stroke-linejoin="round" stroke-miterlimit="100" stroke-width=".046" d="M60.015 10.15l-.023-.208-.076-.196-.12-.173-.162-.139-.184-.092-.208-.046-.207.005-.203.055-.185.101-.154.143-.116.176-.069.198-.018.208.032.207.083.194.127.168.161.132.192.092.207.04.208-.012.2-.063.18-.108.148-.148.108-.18.063-.2.014-.15" opacity=".9"/>
    <path stroke="#818181" stroke-dasharray=".05 .05" stroke-linecap="square" stroke-linejoin="round" stroke-miterlimit="100" stroke-width=".046" d="M61.742 10.15l-.023-.36-.076-.354-.124-.339-.169-.318-.212-.293-.254-.261-.284-.222-.314-.18-.334-.138-.351-.088-.36-.037-.36.012-.356.062-.346.11-.323.162-.3.203-.268.243-.23.277-.192.307-.148.33-.1.346-.05.358v.362l.05.358.1.346.148.33.191.307.231.277.268.242.3.203.323.162.346.11.355.063.36.012.36-.037.352-.088.334-.139.314-.18.284-.221.254-.26.212-.294.169-.319.124-.339.076-.353.023-.36" opacity=".9"/>
    <path stroke="#818181" stroke-dasharray=".05 .05" stroke-linecap="square" stroke-linejoin="round" stroke-miterlimit="100" stroke-width=".046" d="M63.468 10.149l-.023-.45-.069-.445-.115-.439-.162-.422-.208-.402-.247-.378-.283-.351-.319-.319-.35-.286-.38-.247-.401-.208-.422-.161-.439-.116-.445-.069-.45-.023-.45.023-.446.07-.438.115-.423.161-.401.208-.383.247-.347.284-.323.323-.284.35-.247.38-.207.4-.162.423-.115.439-.07.445-.023.45.023.45.07.446.115.438.162.423.207.401.247.379.284.35.319.32.35.283.379.247.402.208.422.161.438.116.446.069.45.023.45-.023.445-.07.44-.115.421-.161.402-.208.383-.247.351-.284.319-.318.283-.351.247-.379.208-.401.162-.423.115-.438.07-.446.022-.45" opacity=".9"/>
    <path stroke="#818181" stroke-dasharray=".05 .05" stroke-linecap="square" stroke-linejoin="round" stroke-miterlimit="100" stroke-width=".046" d="M65.195 10.149l-.033-.632-.099-.624-.162-.611-.226-.591-.286-.563-.346-.531-.397-.492-.448-.447-.492-.397-.53-.347-.564-.286-.59-.226-.612-.162-.623-.099-.633-.032-.632.032-.623.1-.612.161-.59.226-.564.286-.53.347-.492.397-.448.447-.397.492-.346.53-.286.564-.227.59-.161.612-.1.624-.032.632.033.632.099.624.161.611.227.591.286.563.346.531.397.492.448.447.491.397.531.347.563.286.591.226.612.162.623.099.632.032.633-.032.623-.1.612-.161.59-.226.564-.286.53-.347.492-.397.448-.447.395-.49.346-.53.286-.564.226-.59.162-.612.099-.623.032-.633" opacity=".9"/>
    <path fill="#004CFF" stroke="#000" stroke-linejoin="round" stroke-miterlimit="100" stroke-width=".106" d="M59.153 10.149l1.644-.524.003.005.007.023.002.011.007.023.002.012.007.023.01.037.006.032.007.037.005.028.002.011.002.023v.012l.005.027v.012l.002.023.003.012.002.023.002.016v.016l.002.023V10.16h-1.706l-.014-.011z" opacity=".56"/>
    <path fill="#CEFF29" stroke="#000" stroke-linejoin="round" stroke-miterlimit="100" stroke-width=".106" d="M59.153 10.149l1.851-4.838.092.035.093.037.014.007.073.032.014.007.088.041.101.051.07.037.027.016.058.03.028.016.069.04.014.009.083.05.083.051.014.01.07.046.013.009.08.055.081.056.014.009.065.046.023.019.05.039.024.023.023.023-3.197 4.009-.018.035z" opacity=".56"/>
    <path fill="#FF6800" stroke="#000" stroke-linejoin="round" stroke-miterlimit="100" stroke-width=".106" d="M59.152 10.149l-4.424-5.302.102-.083.126-.102.079-.057.023-.019.078-.058.053-.036.054-.037.053-.037.053-.037.08-.053.028-.019.083-.05.028-.017.115-.069.116-.065.143-.078.088-.046.03-.014.115-.058.115-.055.15-.065.093-.037.03-.011.12-.046.122-.047.155-.053.092-.03.03-.009.125-.037.124-.034.157-.042.093-.023.032-.007 1.523 6.666.016.066z" opacity=".56"/>
    <path fill="#FFC400" stroke="#000" stroke-linejoin="round" stroke-miterlimit="100" stroke-width=".106" d="M59.153 10.149l-5.946 1.077-.007-.037-.011-.073-.012-.076-.004-.037-.01-.077-.004-.037-.01-.076-.004-.037-.011-.115-.01-.115-.007-.116-.002-.037-.002-.076v-.037l-.002-.076v-.226l.002-.076.002-.037.005-.076.004-.077v-.037l.007-.076.005-.037.007-.076.009-.076.005-.037.009-.076.005-.037.011-.076.007-.037.023-.116.023-.11.023-.111.01-.037.018-.074.01-.037.018-.074.009-.037.023-.073.023-.074.011-.037.024-.07.011-.036.023-.07.023-.069.014-.035.023-.069.014-.034.028-.07.014-.034.046-.106.046-.104.046-.104.016-.035 5.39 2.595.055.023z" opacity=".56"/>
    <path fill="#29FFCE" stroke="#000" stroke-linejoin="round" stroke-miterlimit="100" stroke-width=".106" d="M59.153 10.148L56.3 12.092l-.011-.019-.028-.041-.012-.019-.023-.037-.014-.023-.023-.037-.014-.023-.018-.032-.016-.028-.019-.032-.016-.028-.016-.027-.018-.035-.014-.03-.016-.035 3.078-1.484.033-.014z" opacity=".6"/>
    <path fill="#7DFF7A" stroke="#000" stroke-linejoin="round" stroke-miterlimit="100" stroke-width=".106" d="M59.153 10.148l.722 4.256-.083.014h-.016l-.07.01-.015.002-.07.007h-.016l-.069.007-.016.002-.07.005h-.016l-.069.004h-.034l-.051.002h-.254l-.07-.002h-.015l-.07-.004h-.016l-.069-.005-.035-.002-.034-.003h-.051l-.05-.007-.035-.004-.051-.007h-.035l-.05-.007-.033-.005-.05-.009-.033-.007-.05-.009-.033-.007-.07-.014.951-4.166.026-.05z" opacity=".56"/>
    <path fill="#FF6800" stroke="#000" stroke-linejoin="round" stroke-miterlimit="100" stroke-width=".106" d="M59.153 10.148l5.438 4.259-.081.101-.093.116-.085.099-.097.108-.092.093-.102.104-.092.092-.106.102-.097.087-.11.097-.1.083-.076.063-4.26-5.35-.047-.054z" opacity=".56"/>
    <path stroke="#11557C" stroke-miterlimit="100000" stroke-width=".23" d="M59.153 17.918c2.06 0 4.037-.819 5.494-2.276 1.456-1.457 2.275-3.433 2.275-5.493 0-2.061-.819-4.037-2.275-5.494-1.458-1.457-3.434-2.276-5.494-2.276-1.02 0-2.03.201-2.973.592-.943.39-1.8.962-2.52 1.684-.722.721-1.294 1.578-1.685 2.52-.39.943-.591 1.953-.591 2.974 0 1.02.2 2.03.591 2.973.39.942.963 1.799 1.684 2.52.722.722 1.578 1.294 2.52 1.684.943.39 1.954.592 2.974.592v0z"/>
    <path stroke="#000" stroke-linejoin="round" stroke-miterlimit="100" stroke-width=".106" d="M59.153 10.149l1.644-.524.003.005.007.023.002.011.007.023.002.012.007.023.01.037.006.032.007.037.005.028.002.011.002.023v.012l.005.027v.012l.002.023.003.012.002.023.002.016v.016l.002.023V10.16h-1.706l-.014-.011z" opacity=".6"/>
    <path stroke="#000" stroke-linejoin="round" stroke-miterlimit="100" stroke-width=".106" d="M59.153 10.149l1.851-4.838.092.035.093.037.014.007.073.032.014.007.088.041.101.051.07.037.027.016.058.03.028.016.069.04.014.009.083.05.083.051.014.01.07.046.013.009.08.055.081.056.014.009.065.046.023.019.05.039.024.023.023.023-3.197 4.009-.018.035zM59.152 10.149l-4.424-5.302.102-.083.126-.102.079-.057.023-.019.078-.058.053-.036.054-.037.053-.037.053-.037.08-.053.028-.019.083-.05.028-.017.115-.069.116-.065.143-.078.088-.046.03-.014.115-.058.115-.055.15-.065.093-.037.03-.011.12-.046.122-.047.155-.053.092-.03.03-.009.125-.037.124-.034.157-.042.093-.023.032-.007 1.523 6.666.016.066z" opacity=".6"/>
    <path stroke="#000" stroke-linejoin="round" stroke-miterlimit="100" stroke-width=".106" d="M59.153 10.149l-5.946 1.077-.007-.037-.011-.073-.012-.076-.004-.037-.01-.077-.004-.037-.01-.076-.004-.037-.011-.115-.01-.115-.007-.116-.002-.037-.002-.076v-.037l-.002-.076v-.226l.002-.076.002-.037.005-.076.004-.077v-.037l.007-.076.005-.037.007-.076.009-.076.005-.037.009-.076.005-.037.011-.076.007-.037.023-.116.023-.11.023-.111.01-.037.018-.074.01-.037.018-.074.009-.037.023-.073.023-.074.011-.037.024-.07.011-.036.023-.07.023-.069.014-.035.023-.069.014-.034.028-.07.014-.034.046-.106.046-.104.046-.104.016-.035 5.39 2.595.055.023z" opacity=".6"/>
    <path stroke="#000" stroke-linejoin="round" stroke-miterlimit="100" stroke-width=".106" d="M59.153 10.148L56.3 12.092l-.011-.019-.028-.041-.012-.019-.023-.037-.014-.023-.023-.037-.013-.023-.019-.032-.016-.028-.018-.032-.017-.028-.016-.027-.018-.035-.014-.03-.016-.035 3.079-1.484.032-.014z" opacity=".56"/>
    <path stroke="#000" stroke-linejoin="round" stroke-miterlimit="100" stroke-width=".106" d="M59.153 10.148l.722 4.256-.083.014h-.016l-.07.01-.015.002-.07.007h-.016l-.069.007-.016.002-.07.005h-.016l-.069.004h-.034l-.051.002h-.254l-.07-.002h-.015l-.07-.004h-.016l-.069-.005-.035-.002-.034-.003h-.051l-.05-.007-.035-.004-.051-.007h-.035l-.05-.007-.033-.005-.05-.009-.033-.007-.05-.009-.033-.007-.07-.014.951-4.166.026-.05z" opacity=".6"/>
    <path stroke="#000" stroke-linejoin="round" stroke-miterlimit="100" stroke-width=".106" d="M59.153 10.148l5.438 4.259-.081.101-.093.116-.085.099-.097.108-.092.093-.102.104-.092.092-.106.102-.097.087-.11.097-.1.083-.076.063-4.26-5.35-.047-.054z" opacity=".6"/>
</svg>
