<svg width="70" height="47" fill="none" xmlns="http://www.w3.org/2000/svg"><path fill-rule="evenodd" clip-rule="evenodd" d="M47.314 4.775c-.324 0-.553.039-.784.096v.038h.037c.155.306.423.518.612.785.154.306.288.611.441.917.02-.018.038-.038.038-.038.27-.19.403-.497.403-.957-.116-.134-.134-.267-.23-.401-.115-.191-.364-.287-.517-.44z" fill="#5B7F93"/><path fill-rule="evenodd" clip-rule="evenodd" d="M16.882 42.532h-2.65c-.093-4.472-.351-8.678-.773-12.617h-.024L9.401 42.532H7.383l-4.01-12.617H3.35c-.297 3.783-.484 7.989-.562 12.617H.372c.156-5.629.547-10.905 1.172-15.831h3.284L8.65 38.333h.024l3.846-11.632h3.142c.688 5.769 1.094 11.047 1.22 15.831zm11.492-11.68c-1.079 5.855-2.502 10.11-4.269 12.763-1.376 2.045-2.884 3.068-4.526 3.068-.438 0-.977-.132-1.618-.394v-1.411c.313.045.68.07 1.103.07.765 0 1.383-.212 1.853-.634.562-.515.843-1.094.843-1.735 0-.438-.22-1.337-.656-2.697l-2.909-9.03H20.8l2.087 6.754c.469 1.533.664 2.603.586 3.214 1.142-3.05 1.94-6.372 2.393-9.968h2.51z" fill="#196D80"/><path fill-rule="evenodd" clip-rule="evenodd" d="M63.646 42.532h-7.528V26.701h2.533v13.884h4.995v1.947zM44.72 39.365c-.64-1.032-.962-2.688-.962-4.971 0-3.987 1.212-5.981 3.636-5.981 1.267 0 2.196.477 2.791 1.43.64 1.032.962 2.674.962 4.926 0 4.018-1.213 6.028-3.636 6.028-1.266 0-2.197-.477-2.79-1.432zm9.428 3.549-2.91-1.435a5.46 5.46 0 0 0 .729-.707c1.235-1.453 1.853-3.602 1.853-6.448 0-5.238-2.056-7.858-6.168-7.858-2.017 0-3.589.664-4.714 1.994-1.236 1.454-1.853 3.596-1.853 6.426 0 2.783.547 4.825 1.641 6.121 1.001 1.172 2.51 1.76 4.527 1.76.754 0 1.445-.093 2.073-.279l3.79 2.205 1.032-1.78zm-14.167-4.77c0 1.343-.493 2.445-1.477 3.307-.984.859-2.306 1.29-3.962 1.29-1.548 0-3.049-.496-4.503-1.48l.68-1.359c1.252.626 2.384.938 3.4.938.954 0 1.7-.212 2.24-.632.538-.422.861-1.01.861-1.758 0-.94-.655-1.743-1.858-2.417-1.11-.61-3.33-1.882-3.33-1.882-1.202-.877-1.805-1.818-1.805-3.369 0-1.282.45-2.319 1.348-3.108.9-.79 2.06-1.185 3.482-1.185 1.47 0 2.807.392 4.01 1.174l-.611 1.358c-1.03-.436-2.046-.655-3.047-.655-.813 0-1.439.195-1.875.587-.44.39-.71.89-.71 1.5 0 .938.67 1.751 1.906 2.438 1.125.61 3.398 1.907 3.398 1.907 1.237.875 1.853 1.808 1.853 3.346z" fill="#E6892E"/><path fill-rule="evenodd" clip-rule="evenodd" d="M66.825 21.398c-1.531-.038-2.717.114-3.71.535-.288.115-.746.115-.786.479.154.152.173.401.308.612.229.383.63.898.994 1.167.401.306.803.611 1.225.879.745.46 1.587.727 2.313 1.187.422.267.841.611 1.263.899.21.153.343.402.612.496v-.057c-.135-.172-.173-.42-.306-.613-.19-.19-.382-.363-.574-.554a9.11 9.11 0 0 0-1.989-1.93c-.612-.423-1.952-.997-2.2-1.702l-.039-.04c.421-.038.92-.192 1.32-.308.65-.171 1.243-.132 1.913-.304.306-.077.612-.173.92-.267v-.174c-.346-.343-.594-.803-.957-1.128a25.621 25.621 0 0 0-3.157-2.353c-.594-.382-1.359-.63-1.99-.956-.229-.115-.61-.172-.745-.364-.345-.42-.537-.975-.785-1.473a47.408 47.408 0 0 1-1.568-3.328c-.344-.746-.555-1.491-.976-2.18-1.97-3.253-4.112-5.222-7.402-7.154-.708-.403-1.55-.574-2.448-.785-.479-.02-.957-.057-1.435-.076-.306-.134-.613-.498-.88-.67-1.091-.688-3.902-2.18-4.706-.21-.516 1.244.766 2.468 1.206 3.099.325.44.746.938.974 1.434.134.325.173.67.307 1.014.306.842.593 1.78.995 2.564.21.402.439.823.707 1.185.154.211.421.306.479.651-.267.382-.288.956-.44 1.435-.69 2.161-.422 4.839.554 6.426.305.479 1.033 1.53 2.009 1.128.86-.343.67-1.434.918-2.39.057-.23.019-.382.133-.535v.039c.268.534.536 1.05.785 1.587.594.936 1.625 1.912 2.487 2.562.458.345.821.937 1.395 1.148v-.057h-.037c-.115-.172-.287-.25-.44-.383a9.462 9.462 0 0 1-.995-1.147c-.803-1.07-1.512-2.258-2.142-3.482-.307-.594-.574-1.244-.823-1.836-.114-.229-.114-.574-.306-.689-.288.42-.707.784-.917 1.3-.364.823-.402 1.837-.537 2.889-.076.02-.038 0-.076.038-.612-.153-.822-.784-1.052-1.318-.574-1.36-.67-3.54-.172-5.109.133-.4.709-1.663.478-2.046-.116-.365-.498-.573-.708-.861a7.58 7.58 0 0 1-.688-1.224c-.46-1.071-.69-2.257-1.186-3.328-.23-.498-.632-1.015-.956-1.473-.364-.517-.766-.88-1.053-1.492-.095-.21-.229-.555-.076-.784.037-.153.115-.21.268-.25.248-.21.956.058 1.204.173.709.286 1.301.555 1.894.956.268.192.555.555.898.651h.403c.612.133 1.3.038 1.875.21 1.013.325 1.931.803 2.754 1.32a16.972 16.972 0 0 1 5.967 6.542c.23.44.326.842.537 1.3.401.939.899 1.895 1.3 2.812.401.9.785 1.817 1.36 2.564.285.401 1.433.611 1.95.822.382.172.975.325 1.32.535.65.401 1.3.861 1.912 1.302.306.229 1.262.707 1.32 1.09z" fill="#196D80"/><path fill-rule="evenodd" clip-rule="evenodd" d="M65.454 42.53h.42v-1.61h.55v-.33h-1.54v.33h.57v1.61zm3.194 0h.396v-1.94h-.595l-.484 1.323-.528-1.322h-.573v1.94h.374v-1.477h.022l.552 1.477h.285l.551-1.477v1.477z" fill="#E6892E"/></svg>