<svg width="42" height="34" viewBox="0 0 42 34" fill="none" xmlns="http://www.w3.org/2000/svg">
<path d="M41.1094 16.0938H22.0312V10.9375H27.1875C28.2832 10.9375 29.25 10.0352 29.25 8.875V2.6875C29.25 1.5918 28.2832 0.625 27.1875 0.625H14.8125C13.6523 0.625 12.75 1.5918 12.75 2.6875V8.875C12.75 10.0352 13.6523 10.9375 14.8125 10.9375H19.9688V16.0938H0.890625C0.568359 16.0938 0.375 16.3516 0.375 16.6094V17.6406C0.375 17.9629 0.568359 18.1562 0.890625 18.1562H8.625V23.3125H4.5C3.33984 23.3125 2.4375 24.2793 2.4375 25.375V31.5625C2.4375 32.7227 3.33984 33.625 4.5 33.625H14.8125C15.9082 33.625 16.875 32.7227 16.875 31.5625V25.375C16.875 24.2793 15.9082 23.3125 14.8125 23.3125H10.6875V18.1562H31.3125V23.3125H27.1875C26.0273 23.3125 25.125 24.2793 25.125 25.375V31.5625C25.125 32.7227 26.0273 33.625 27.1875 33.625H37.5C38.5957 33.625 39.5625 32.7227 39.5625 31.5625V25.375C39.5625 24.2793 38.5957 23.3125 37.5 23.3125H33.375V18.1562H41.1094C41.3672 18.1562 41.625 17.9629 41.625 17.6406V16.6094C41.625 16.3516 41.3672 16.0938 41.1094 16.0938ZM14.8125 25.375V31.5625H4.5V25.375H14.8125ZM14.8125 8.875V2.6875H27.1875V8.875H14.8125ZM37.5 25.375V31.5625H27.1875V25.375H37.5Z" fill="black"/>
</svg>
