<?xml version="1.0" encoding="UTF-8" standalone="no"?>
<!-- Created with Inkscape (http://www.inkscape.org/) -->

<svg
   width="238.9868mm"
   height="187.9314mm"
   viewBox="0 0 238.9868 187.9314"
   version="1.1"
   id="svg342"
   inkscape:export-filename="bitmap.png"
   inkscape:export-xdpi="26.488571"
   inkscape:export-ydpi="26.488571"
   inkscape:version="1.2.2 (732a01da63, 2022-12-09)"
   xmlns:inkscape="http://www.inkscape.org/namespaces/inkscape"
   xmlns:sodipodi="http://sodipodi.sourceforge.net/DTD/sodipodi-0.dtd"
   xmlns="http://www.w3.org/2000/svg"
   xmlns:svg="http://www.w3.org/2000/svg">
  <sodipodi:namedview
     id="namedview344"
     pagecolor="#ffffff"
     bordercolor="#000000"
     borderopacity="0.25"
     inkscape:showpageshadow="2"
     inkscape:pageopacity="0.0"
     inkscape:pagecheckerboard="0"
     inkscape:deskcolor="#d1d1d1"
     inkscape:document-units="mm"
     showgrid="false"
     inkscape:zoom="0.71624579"
     inkscape:cx="293.89352"
     inkscape:cy="310.64755"
     inkscape:window-width="1920"
     inkscape:window-height="991"
     inkscape:window-x="-9"
     inkscape:window-y="-9"
     inkscape:window-maximized="1"
     inkscape:current-layer="layer1" />
  <defs
     id="defs339" />
  <g
     inkscape:label="Layer 1"
     inkscape:groupmode="layer"
     id="layer1"
     transform="translate(-27.15959,-7.2507202)">
    <g
       id="g360"
       transform="translate(-120.42537,124.85821)">
      <path
         style="fill:#000000;stroke-width:0.176167"
         d="m 334.46736,69.76546 c -0.1127,-0.24104 -1.38299,-2.41261 -2.82285,-4.82569 -3.50864,-5.88016 -3.23164,-5.28145 -2.78891,-6.02822 5.03573,-8.49407 5.53329,-9.38241 5.30316,-9.46845 -0.13553,-0.0507 -2.27154,-0.0933 -4.74667,-0.0946 -3.42328,-0.002 -4.5507,-0.0557 -4.71114,-0.22492 -0.17129,-0.18066 -3.67861,-6.02335 -5.35302,-8.91738 -0.42089,-0.72746 -1.11017,-1.89128 -5.61312,-9.47748 -3.5377,-5.96006 -3.92629,-6.62536 -3.92629,-6.7221 0,-0.0443 0.92355,-1.63636 2.05233,-3.53793 1.12879,-1.90157 2.05234,-3.50115 2.05234,-3.55463 0,-0.0535 -1.95556,-0.0972 -4.34567,-0.0972 h -4.34564 l -2.19099,-3.69535 c -1.20503,-2.03245 -3.40285,-5.74997 -4.88403,-8.26117 l -2.69305,-4.56582 -0.82519,0.10667 c -2.44166,0.31561 -3.72232,-2.94585 -1.58049,-4.0251 2.17624,-1.0966 4.46072,1.31198 2.9819,3.1439 -0.44454,0.55067 -0.42421,0.59966 1.72851,4.16751 1.14561,1.8987 6.64267,11.18433 7.23205,12.21639 l 0.42206,0.73907 h 4.31765 c 3.23964,0 4.36237,-0.0543 4.49673,-0.21738 0.0985,-0.11955 1.42364,-2.33024 2.94478,-4.91264 1.52114,-2.58239 3.84912,-6.51717 5.17331,-8.74394 l 2.4076,-4.04867 14.96972,0.005 c 8.23335,0.003 15.0211,0.005 15.08388,0.006 0.0628,1.2e-4 3.42625,5.59264 7.47438,12.42783 6.50908,10.99048 7.39742,12.40821 7.68189,12.25986 0.89794,-0.46827 1.95132,0.0983 1.95132,1.04954 0,0.28983 -0.15864,0.67627 -0.35693,0.86949 -0.8205,0.79952 -2.14156,0.19369 -2.14156,-0.98211 0,-0.51874 -1.33961,-2.89552 -7.3515,-13.0434 l -7.35149,-12.40908 -14.89937,0.0445 -14.89938,0.0445 -0.52585,0.86949 c -0.2892,0.47822 -1.59009,2.66935 -2.89088,4.86917 -1.30077,2.19982 -3.407,5.76039 -4.68048,7.91239 l -2.31544,3.91272 5.46065,0.046 c 3.96554,0.0334 5.47923,-0.008 5.52847,-0.15216 0.46754,-1.36676 2.52167,-1.02931 2.52167,0.41427 0,1.41253 -1.77603,1.61589 -2.50593,0.28693 -0.17493,-0.31849 -0.43765,-0.33411 -5.57583,-0.33158 -6.02324,0.003 -5.58219,-0.0819 -6.31378,1.21463 -0.29682,0.52605 -1.21231,2.08174 -2.0344,3.4571 l -1.49472,2.50066 0.50664,0.89037 c 0.27865,0.4897 1.02477,1.75117 1.65807,2.80325 0.63328,1.05209 3.74344,6.29514 6.91144,11.65122 l 5.75998,9.73833 h 4.87512 c 4.87513,0 4.87513,0 5.18119,-0.52169 0.16835,-0.28694 1.16546,-1.96557 2.21583,-3.73032 1.05036,-1.76474 2.0942,-3.52546 2.31963,-3.91272 2.06897,-3.5541 2.65354,-4.44299 2.92231,-4.44355 15.25392,-0.0321 27.2492,0.0235 27.3482,0.12669 0.25634,0.26731 13.55002,22.79711 13.55002,22.96423 0,0.12956 -5.90069,10.26566 -6.18912,10.63158 -0.9265,1.1754 2.88929,-5.63091 5.46336,-9.74511 0.48501,-0.77519 0.46599,-1.03494 -0.14776,-2.01944 -0.63532,-1.01903 -11.6561,-19.60411 -12.37599,-20.87046 l -0.519,-0.91297 h -13.60465 -13.60464 l -3.68217,6.21688 -3.68215,6.21688 9.30753,0.045 c 9.30751,0.0451 9.30751,0.0451 9.7227,-0.39127 0.83511,-0.87759 2.1854,-0.39505 2.1854,0.78096 0,1.51102 -1.9417,1.68786 -2.51104,0.2287 -0.15928,-0.40823 -18.21978,-0.6587 -18.83801,-0.26125 -0.10224,0.0657 -0.80983,1.17594 -1.57243,2.46714 -5.24392,8.8788 -5.02284,6.75743 -1.34959,12.95041 1.66863,2.81327 3.03388,5.15866 3.03388,5.21199 0,0.26431 -0.32379,0.0453 -0.50455,-0.34127 z M 244.3686,64.81 c -1.39886,-0.54338 -0.70905,-2.62241 0.7798,-2.35024 0.66253,0.12112 0.079,0.99446 5.86153,-8.77299 l 3.0391,-5.13347 6.46409,-0.0456 c 7.09695,-0.0501 6.80361,0.005 6.01794,-1.12206 -0.24539,-0.35188 -0.44616,-0.67425 -0.44616,-0.71637 0,-0.0421 -0.43786,-0.80626 -0.97304,-1.69808 l -0.97304,-1.62149 0.55385,-0.9631 c 0.53799,-0.93556 1.60705,-2.72615 3.0211,-5.06018 0.38015,-0.62744 0.69116,-1.19479 0.69116,-1.26077 0,-0.066 -3.4103,-0.11997 -7.57843,-0.11997 -7.57843,0 -7.57843,0 -7.78536,-0.39127 -0.1138,-0.2152 -0.85643,-1.46727 -1.65028,-2.78238 l -1.44336,-2.39111 h -4.66947 -4.66947 l -0.97304,-1.60856 c -0.53516,-0.88471 -1.68281,-2.82151 -2.55031,-4.304 -0.86751,-1.48249 -1.69685,-2.83246 -1.84299,-2.99995 -0.24609,-0.28204 -0.85314,-0.30357 -8.22328,-0.29157 -7.51663,0.0122 -7.96864,-0.005 -8.15711,-0.30413 -0.10975,-0.17439 -1.99521,-3.35858 -4.18992,-7.07599 -2.19471,-3.7174 -4.11301,-6.79623 -4.26289,-6.84183 -0.95852,-0.29162 -1.24867,-0.48063 -1.40389,-0.91451 -0.36172,-1.01108 0.70735,-2.00296 1.67282,-1.55206 0.7456,0.34821 0.95838,1.0539 0.54392,1.80383 -0.32687,0.59143 -0.32687,0.59143 2.39662,5.16677 1.49792,2.51644 3.37513,5.69022 4.17158,7.05284 l 1.44809,2.47749 7.80779,5.4e-4 c 4.29429,3.3e-4 7.80779,-0.0446 7.80779,-0.0998 0,-0.71584 -2.23864,-3.89931 -2.74206,-3.89931 -1.24807,0 -1.85493,-1.25926 -1.00568,-2.08679 1.0212,-0.99508 2.64981,0.31479 1.95784,1.57468 -0.1501,0.27328 0.0378,0.71619 1.02616,2.41939 1.91066,3.29241 1.93441,3.28216 5.18072,-2.23505 2.84682,-4.83827 2.68225,-4.49274 2.14156,-4.49654 -3.26451,-0.023 -3.09919,0.01 -3.53084,-0.69698 -1.17476,-1.92307 -8.38161,-14.15481 -8.38161,-14.22559 0,-0.0458 0.59341,-1.07978 1.3187,-2.29767 0.72529,-1.21788 1.47773,-2.48822 1.6721,-2.82298 0.68608,-1.18162 4.37189,-7.40443 4.99556,-8.43409 0.34759,-0.57387 0.72854,-1.12165 0.84655,-1.21729 0.1399,-0.11338 3.28236,-0.14364 9.02964,-0.087 l 8.81505,0.087 2.8819,4.86916 2.88189,4.86917 6.78642,0.0455 6.78643,0.0455 3.94883,6.67561 c 3.94881,6.67562 3.94881,6.67562 4.58825,6.65796 1.21743,-0.0336 1.78291,1.40213 0.8376,2.12669 -1.12182,0.85986 -2.8319,-0.69983 -1.83371,-1.67247 0.14041,-0.13683 -0.91071,-2.05875 -3.77781,-6.90758 l -3.97238,-6.71801 -6.48383,0.0119 c -4.9296,0.009 -6.48286,0.0621 -6.47967,0.22116 0.0148,0.7372 2.08348,3.68001 2.66891,3.79668 1.52142,0.30321 1.3627,2.41208 -0.18157,2.41208 -1.04612,0 -1.65928,-1.34956 -0.95681,-2.10592 0.26496,-0.2853 0.20209,-0.44868 -0.87528,-2.27438 l -1.16074,-1.967 -1.66784,-0.0262 c -1.4294,-0.0225 -1.71346,0.021 -1.9871,0.30432 -0.50156,0.51932 -1.37614,0.23207 -1.37614,-0.45198 0,-0.70106 0.87776,-0.96989 1.39622,-0.42763 0.29965,0.31341 0.52007,0.349 1.88507,0.30432 l 1.54573,-0.0506 -2.83097,-4.78222 -2.83097,-4.78222 -8.72946,-0.0451 c -8.59684,-0.0444 -8.73288,-0.0397 -8.9551,0.30698 -0.56877,0.88744 -8.27456,13.94458 -8.36488,14.17393 -0.0599,0.15202 1.68114,3.2708 4.22161,7.56242 l 4.32351,7.3037 1.80799,-0.002 1.80799,-0.002 1.57703,-2.68529 c 0.86736,-1.47692 1.52235,-2.7715 1.45553,-2.87687 -0.34095,-0.53755 0.30147,-1.3256 0.8986,-1.10232 0.76984,0.28784 0.64685,1.45221 -0.15338,1.45221 -0.35859,0 -3.33162,4.54143 -3.33162,5.08919 0,0.0703 1.00584,0.12777 2.23519,0.12777 h 2.2352 l 0.44897,-0.73907 c 1.33827,-2.20292 3.89229,-6.52906 4.04798,-6.85669 0.14229,-0.29942 0.10037,-0.47772 -0.19972,-0.84947 -1.54307,-1.91151 1.02595,-4.40865 3.15396,-3.0657 2.22178,1.40212 0.35278,4.57005 -2.2666,3.84187 -0.24082,-0.0669 -0.8476,0.87845 -3.77823,5.8866 l -1.04305,1.78246 3.874,-0.007 c 3.874,-0.007 3.874,-0.007 4.23328,-0.56517 0.50168,-0.7798 1.48204,-0.87473 2.02951,-0.19653 1.0627,1.31644 -0.75547,2.70234 -1.93333,1.47368 -0.49085,-0.512 -0.49085,-0.512 -4.31013,-0.51622 -4.24354,-0.005 -4.02685,-0.0527 -4.64462,1.02823 -0.24598,0.4304 -1.06439,1.81754 -1.81867,3.08254 -1.66246,2.78811 -1.96113,1.56327 2.00461,8.22088 l 3.36656,5.65171 3.64379,0.0506 c 3.47613,0.0482 3.65895,0.0342 3.97337,-0.30433 0.42112,-0.45342 1.09796,-0.45699 1.34506,-0.007 0.4188,0.76253 -0.68003,1.45086 -1.24924,0.78254 -0.21689,-0.25466 -7.49548,-0.42065 -7.49548,-0.17094 0,0.0495 0.34824,0.65593 0.77388,1.34772 0.42563,0.69179 1.0404,1.72733 1.36616,2.3012 1.03292,1.81958 0.11372,1.64367 8.59172,1.64422 l 7.47181,5.4e-4 0.41468,-0.64846 c 0.22806,-0.35665 1.2511,-2.07457 2.27341,-3.81759 l 1.85876,-3.16913 2.47768,-0.048 2.47768,-0.048 2.66937,-4.49526 c 2.66938,-4.49527 2.66938,-4.49527 2.26833,-4.91123 -0.82996,-0.86086 -0.28029,-2.15778 0.91452,-2.15778 0.57767,0 1.24243,0.69416 1.24243,1.29738 0,0.4303 -0.68432,1.1372 -1.10089,1.1372 -0.26637,0 -5.50227,8.59551 -5.50227,9.03282 0,0.10949 0.10039,0.18636 0.22308,0.17084 0.1227,-0.0155 3.00307,-0.019 6.40082,-0.008 l 6.17772,0.0206 1.84721,3.13018 1.8472,3.13018 h 6.46992 6.46992 l 0.40686,0.70339 c 4.97227,8.59595 7.58778,12.77722 8.0237,12.82705 1.05402,0.12046 1.49402,1.51449 0.6806,2.15632 -1.25263,0.98838 -2.82549,-0.73467 -1.68505,-1.84594 0.24953,-0.24314 -0.10929,-0.92013 -3.69322,-6.96811 l -3.96959,-6.69886 h -6.11202 c -6.05965,0 -6.59774,0.0499 -6.17114,0.57278 0.823,1.00868 4.86351,8.24692 4.72725,8.46848 -0.0887,0.14428 -2.11563,3.56857 -4.50421,7.60955 l -4.34286,7.34722 h -6.39808 c -5.00022,0 -6.39782,0.0475 -6.39679,0.21737 0,0.11956 0.37396,0.84341 0.82936,1.60857 0.45542,0.76515 0.91661,1.56665 1.02485,1.7811 0.15685,0.31074 0.34823,0.3902 0.94253,0.39127 1.1792,0.002 1.82197,0.95257 1.23479,1.8258 -0.8298,1.23404 -2.87829,0.23617 -2.25437,-1.09815 0.16928,-0.36206 0.0444,-0.66781 -0.99681,-2.43952 -1.46356,-2.4905 -1.13808,-2.30077 -3.87719,-2.2601 l -2.29244,0.0341 -1.07603,-1.81265 c -0.59182,-0.99697 -1.219,-2.05614 -1.39373,-2.35372 -0.17473,-0.29757 -1.01503,-1.72667 -1.86732,-3.17578 l -1.5496,-2.63473 -6.52084,0.0456 -6.52085,0.0456 -1.96335,3.30408 c -1.07985,1.81724 -2.30272,3.89098 -2.7175,4.60831 -0.41477,0.71733 -1.39835,2.38118 -2.18574,3.69744 -1.30822,2.1869 -1.42427,2.45675 -1.34632,3.13061 0.11987,1.03633 -0.7263,1.71262 -1.67952,1.34236 z m 32.93526,-7.43133 c -0.3222,-0.54996 -1.60739,-2.72152 -2.85597,-4.8257 l -2.27015,-3.82577 -2.24334,-0.0487 c -1.23383,-0.0268 -2.24333,-0.0121 -2.24333,0.0326 0,0.0447 0.85481,1.51432 1.89959,3.2658 1.04476,1.75148 2.25828,3.81054 2.69671,4.57569 0.43843,0.76516 0.8784,1.48901 0.9777,1.60857 0.12696,0.15283 0.84022,0.21737 2.40258,0.21737 h 2.22206 z m 18.27678,-6.45905 c 2.4268,-4.10242 4.41237,-7.51761 4.41237,-7.5893 0,-0.12764 -3.92566,-6.82563 -4.76853,-8.13608 -0.56155,-0.87308 -4.43017,-0.96784 -5.03855,-0.12342 -0.26903,0.3734 -5.62125,9.35218 -6.77365,11.36332 -0.20901,0.36476 -0.51062,0.85743 -0.67023,1.09481 -0.2508,0.37297 -0.25896,0.52396 -0.06,1.1113 0.40263,1.18879 -0.68457,2.13659 -1.76992,1.54298 -1.16451,-0.63691 -0.74862,-2.09844 0.62775,-2.20603 0.69601,-0.0544 0.69601,-0.0544 3.21792,-4.34747 1.38703,-2.36119 3.18027,-5.40819 3.98498,-6.77112 l 1.46309,-2.47806 h 2.21663 c 1.21913,0 2.21662,-0.0505 2.21662,-0.11213 0,-0.0617 -0.78194,-1.43207 -1.73763,-3.04533 l -1.73763,-2.9332 -6.48607,0.0456 -6.48609,0.0456 -2.23957,3.7823 -2.23958,3.7823 -2.43073,10e-4 c -2.43071,0.001 -2.43071,0.001 -2.71295,0.47822 -0.15523,0.26242 -1.13901,1.916 -2.18619,3.67463 -1.04717,1.75863 -1.90393,3.22139 -1.90393,3.25057 0,0.0292 0.53296,0.93794 1.18437,2.01945 0.65141,1.08152 1.32069,2.20116 1.48728,2.48809 0.30293,0.5217 0.30293,0.5217 2.69721,0.57176 1.9621,0.041 2.43398,0.10117 2.61412,0.33321 0.12091,0.15574 1.35574,2.20695 2.74408,4.55826 1.38834,2.35131 2.63644,4.45117 2.77356,4.66637 0.24931,0.39128 0.24931,0.39128 6.7191,0.39128 h 6.46982 l 4.41237,-7.45896 z m -21.96666,-15.4522 c 0.14706,-0.16738 1.09252,-1.7129 2.10102,-3.4345 1.0085,-1.7216 1.90447,-3.20452 1.99107,-3.29538 0.35974,-0.3775 0.0508,-0.44345 -2.07775,-0.44345 h -2.23519 l -0.44898,0.73907 c -1.81754,2.99187 -3.82537,6.44444 -3.82537,6.57795 0,0.3273 4.19931,0.19307 4.4952,-0.14369 z m -23.94775,-5.44593 c 0,-0.10202 -1.48863,-2.69881 -3.30807,-5.77064 l -3.30807,-5.58515 1.88036,-3.17846 c 1.0342,-1.74815 1.88036,-3.2206 1.88036,-3.2721 0,-0.0515 -1.00272,-0.0936 -2.22826,-0.0936 -2.61876,0 -1.95513,-0.63507 -5.36036,5.12962 -2.34852,3.97578 -2.47159,4.14015 -2.98376,3.98487 -0.56597,-0.17159 -0.70234,0.0972 -0.34559,0.68108 0.18528,0.30327 1.32687,2.23388 2.53686,4.29023 1.20999,2.05635 2.28572,3.79632 2.39051,3.86658 0.31608,0.21195 8.84602,0.16142 8.84602,-0.0524 z M 383.11476,5.41503 c -0.49841,-0.26352 -1.02842,-1.05978 -1.02842,-1.54508 0,-0.24011 -1.07454,-0.26959 -9.86012,-0.27048 l -9.86012,-0.001 -2.63866,-4.47689 c -7.67737,-13.02576 -7.21961,-12.3023 -7.78396,-12.3023 -1.14851,0 -1.71631,-1.40429 -0.87617,-2.16696 1.07308,-0.97418 2.70137,0.48141 1.85525,1.6585 -0.27362,0.38067 -0.68617,-0.3692 5.82867,10.59459 1.07983,1.81724 2.20788,3.73447 2.50679,4.26052 0.29891,0.52604 0.73175,1.24989 0.96186,1.60856 l 0.41839,0.65212 h 9.70986 9.70986 l 0.11653,-0.517 c 0.35802,-1.58837 2.66968,-2.0573 3.82439,-0.7758 1.67201,1.85561 -0.6291,4.47355 -2.88415,3.28126 z M 160.1521,-0.56769 c -1.34275,-0.5293 -1.77511,-2.44886 -0.79627,-3.53518 l 0.52766,-0.5856 -1.74744,-2.9419 c -8.52209,-14.3474 -10.55109,-17.81216 -10.55109,-18.01729 0,-0.13022 0.51212,-1.09553 1.13804,-2.14513 0.62593,-1.0496 2.95655,-4.95351 5.17916,-8.67536 4.04111,-6.767 4.04111,-6.767 3.68048,-7.14105 -1.10793,-1.14918 0.57828,-2.80338 1.77862,-1.74487 0.75522,0.66598 0.15318,2.17323 -0.86946,2.17676 -0.26165,10e-4 -2.73267,4.02724 -9.24594,15.06554 l -1.46223,2.47809 2.50687,4.22662 c 1.37878,2.32464 3.91842,6.61338 5.64364,9.53054 1.72521,2.91715 3.3833,5.72051 3.68463,6.22969 0.50079,0.84619 0.59179,0.91724 1.05861,0.82647 1.27671,-0.24822 2.61361,0.92159 2.61172,2.28531 -0.002,1.40727 -1.76032,2.51004 -3.137,1.96736 z m 26.69489,-5.86918 c -0.46783,-0.16458 -0.89232,-0.61358 -0.89232,-0.94384 0,-0.30581 -0.44268,-0.32135 -10.3763,-0.36432 l -10.37629,-0.0449 -3.80991,-6.43426 c -2.09544,-3.53884 -4.50042,-7.59177 -5.34439,-9.00651 l -1.53448,-2.57226 0.93533,-1.60131 c 1.17982,-2.01987 1.0623,-1.82077 4.12706,-6.99218 1.41705,-2.3911 3.24855,-5.48215 4.07,-6.869 0.82145,-1.38684 1.50707,-2.5424 1.5236,-2.56791 0.13606,-0.20992 21.61072,-0.0159 21.76693,0.19669 0.0982,0.13357 1.42325,2.36174 2.94465,4.9515 3.15835,5.37618 2.79954,4.97488 3.44573,3.8538 0.48754,-0.84585 0.85684,-1.03107 1.77434,-0.88991 0.29047,0.0447 0.0538,-0.41181 -2.11764,-4.08409 -1.23831,-2.09424 -2.64751,-4.48344 -3.13155,-5.30933 l -0.88008,-1.50163 3.5331,-5.96248 c 1.94321,-3.27936 3.50785,-6.0734 3.47699,-6.20899 -0.20195,-0.88718 -1.15035,-1.95431 -1.73688,-1.95431 -1.14836,0 -1.76276,-1.31742 -0.97319,-2.08678 1.07271,-1.04528 2.68838,0.24453 1.9623,1.56653 -0.14064,0.25606 -0.0489,0.53718 0.42569,1.30492 l 0.60494,0.97854 0.61682,-1.01203 c 0.33926,-0.55662 1.21162,-2.00977 1.9386,-3.22924 0.72697,-1.21946 1.41758,-2.21721 1.53468,-2.21721 0.50796,0 0.26574,-0.51903 -2.11771,-4.53787 -1.38435,-2.33421 -2.87188,-4.85049 -3.30562,-5.59173 l -0.78863,-1.34772 h -10.32302 -10.32301 l -1.35298,2.30416 c -0.74414,1.26729 -2.9097,4.92569 -4.81236,8.12977 -3.45937,5.82561 -3.45937,5.82561 -3.12587,6.24033 0.69796,0.86795 0.15949,1.93291 -0.97732,1.93291 -1.60826,0 -1.71676,-2.09246 -0.12495,-2.4097 0.53199,-0.10602 4.21791,-6.01634 9.71895,-15.58418 0.53246,-0.92609 -0.0403,-0.88694 11.51582,-0.78718 l 10.07273,0.087 3.04436,5.14245 c 1.67439,2.82834 3.22234,5.4303 3.43988,5.78213 l 0.39553,0.63968 3.79837,-0.003 c 4.52485,-0.003 4.396,0.0437 3.58044,-1.30216 -0.55251,-0.91176 -4.01599,-6.73188 -4.86344,-8.17266 -0.16877,-0.28693 -1.09604,-1.85202 -2.06059,-3.47797 -0.96455,-1.62596 -1.93527,-3.2693 -2.15715,-3.65188 -0.40341,-0.69559 -0.40341,-0.69559 0.87148,-2.84685 l 1.27489,-2.15126 -0.69857,-1.2711 c -0.38422,-0.6991 -0.90687,-1.57002 -1.16145,-1.93536 l -0.46287,-0.66427 -8.10325,-0.0482 c -8.10325,-0.0482 -8.10325,-0.0482 -8.52605,0.47822 -0.74958,0.93329 -2.36004,0.46185 -2.36004,-0.69087 0,-1.38641 2.07138,-1.63312 2.555,-0.30432 0.10333,0.28392 0.6667,0.30432 8.40095,0.30432 h 8.29019 l 1.04774,1.78247 c 1.31381,2.23511 0.98336,2.43196 3.74138,-2.22881 2.66004,-4.4952 2.6083,-4.24892 0.89283,-4.24892 -1.4762,0 -1.17401,0.27491 -2.8195,-2.56501 -0.20782,-0.35866 -2.78446,-4.71256 -5.72587,-9.67531 -5.72847,-9.66509 -5.63402,-9.49703 -5.33706,-9.49703 0.10866,0 0.19756,0.0725 0.19756,0.16104 0,0.0886 0.83039,1.55584 1.84532,3.2606 1.01492,1.70476 3.67359,6.19061 5.90814,9.96857 5.45477,9.22238 4.6459,8.17402 6.3031,8.16936 l 1.38055,-0.004 4.26135,-7.21291 4.26134,-7.21292 h 16.39584 c 9.01771,0 16.44672,-0.0196 16.50892,-0.0435 0.10417,-0.0401 9.75821,16.0599 10.63609,17.73768 l 0.3867,0.73906 5.45221,0.006 5.45219,0.006 3.9262,6.68367 c 3.92621,6.68366 3.92621,6.68366 4.5827,6.68918 1.09259,0.009 1.70842,0.99292 1.14556,1.82997 -0.8638,1.28459 -2.75259,0.36032 -2.25655,-1.10423 0.22187,-0.65507 0.22187,-0.65507 -3.68713,-7.25232 l -3.909,-6.59725 -5.06459,-0.0462 c -2.78551,-0.0254 -5.1223,0.0137 -5.19286,0.087 -0.36942,0.38354 4.39372,7.78612 4.97298,7.72865 1.43909,-0.14279 1.99847,1.68939 0.71344,2.3369 -1.09384,0.55118 -2.13874,-0.42173 -1.73457,-1.61506 0.19324,-0.57053 0.14366,-0.69136 -1.22195,-2.97784 -0.78285,-1.31075 -1.80196,-3.0301 -2.26468,-3.82078 -1.05738,-1.80679 -6.08126,-2.79494 -7.27913,-1.43173 -0.54588,0.62124 -1.37988,0.34115 -1.37988,-0.46341 0,-0.72219 1.22387,-0.91503 1.45828,-0.22979 0.0401,0.11741 1.09541,0.16359 3.0253,0.13242 l 2.96364,-0.0479 -5.3744,-9.08363 -5.3744,-9.08363 -16.32944,-0.001 c -16.32943,-10e-4 -16.32943,-10e-4 -16.61383,0.47564 -4.41329,7.40391 -8.01417,13.53308 -8.01417,13.64119 0,0.48431 20.39137,0.12748 20.86358,-0.3651 1.90263,-1.98467 5.28514,0.53363 3.5702,2.65805 -1.41977,1.75878 -4.07736,0.89214 -4.08628,-1.33252 l -0.003,-0.6569 -10.24337,0.0149 c -9.3907,0.0136 -10.26467,0.0394 -10.4993,0.3091 -0.14076,0.16183 -1.12228,1.78108 -2.18114,3.59832 -1.05886,1.81724 -2.12344,3.60622 -2.36572,3.9755 -0.68354,1.04183 4.29638,10.19726 5.5466,10.19726 1.24673,0 1.85297,1.25977 1.00424,2.08679 -1.03957,1.01298 -2.66174,-0.29306 -1.95722,-1.5758 0.16775,-0.30544 -4.26159,-8.28255 -5.09446,-9.17498 -0.17214,-0.18445 -0.45103,0.15615 -1.41062,1.72276 l -1.19606,1.95266 3.1937,5.40709 c 1.75654,2.9739 4.02461,6.81567 5.04018,8.53727 2.25806,3.82791 1.11852,3.37217 8.46829,3.38675 4.692,0.009 6.29758,0.0655 6.44917,0.22571 0.11102,0.11732 1.30762,2.09142 2.65912,4.38688 1.3515,2.29547 2.66706,4.50601 2.92348,4.91233 l 0.4662,0.73876 9.28772,3.3e-4 9.28771,3.4e-4 0.20469,-0.74573 c 0.72393,-2.63745 4.45447,-3.02787 5.59266,-0.58529 1.66019,3.56282 -3.52294,5.92342 -5.37821,2.44944 l -0.45799,-0.85765 -9.13444,-0.0451 c -6.59304,-0.0325 -9.13444,0.009 -9.13444,0.14766 0,0.18159 0.70381,1.39774 2.98366,5.15561 0.84882,1.3991 1.01701,1.58418 1.30373,1.43466 2.24209,-1.16923 4.31722,1.9151 2.4252,3.60465 -1.90826,1.70406 -4.52859,-0.4628 -3.38514,-2.79931 0.3096,-0.63263 -3.36747,-7.45951 -4.05127,-7.52163 -0.14176,-0.0129 -3.04087,-0.0324 -6.44248,-0.0435 l -6.18473,-0.02 -0.64765,-1.08687 c -0.35621,-0.59778 -1.7119,-2.88672 -3.01265,-5.08654 l -2.365,-3.99967 -4.05355,-0.0467 c -2.22945,-0.0257 -4.05354,0.005 -4.05354,0.068 0,0.0631 0.54208,1.03927 1.20463,2.16927 l 1.20463,2.05456 0.90544,-0.0996 c 2.52294,-0.27739 3.71287,2.91462 1.50185,4.02874 -2.07186,1.04399 -4.28233,-1.20166 -2.99654,-3.04422 0.33584,-0.48127 0.38585,-0.68144 0.23898,-0.95645 -2.20708,-4.13264 -2.8948,-4.82323 -3.592,-3.60696 -0.62933,1.09785 -3.02986,5.14967 -3.28323,5.54171 -0.21903,0.33891 0.029,0.82348 2.982,5.82561 l 3.2209,5.45595 8.42256,0.0452 c 8.17209,0.0438 8.43596,0.0349 8.87355,-0.30049 0.73051,-0.55992 1.56507,0.0658 1.13417,0.85037 -0.25671,0.4674 -1.00347,0.47346 -1.29982,0.0105 -0.22024,-0.34404 -0.38805,-0.35065 -8.66316,-0.34124 -4.64121,0.005 -8.50959,-0.0332 -8.5964,-0.0855 -0.0868,-0.0523 -0.45898,-0.62257 -0.82705,-1.26732 -0.36806,-0.64475 -1.28359,-2.18957 -2.03451,-3.43295 -0.75092,-1.24338 -1.83048,-3.06357 -2.39903,-4.04486 -1.29791,-2.24013 -1.13919,-2.20799 -2.17049,-0.43951 -1.81537,3.11299 -2.17367,3.72069 -4.06873,6.90088 l -1.94368,3.26178 0.41313,0.72577 c 0.93974,1.65091 5.07133,8.6123 5.56435,9.37547 l 0.53247,0.82425 7.94439,0.0453 7.9444,0.0453 2.28344,3.82577 2.28345,3.82578 2.54656,0.0484 c 2.54657,0.0484 2.54657,0.0484 3.04022,-0.47822 0.58853,-0.62787 1.3319,-0.69492 1.90784,-0.17208 0.49272,0.44729 0.50869,1.26932 0.0336,1.73221 -0.69277,0.67505 -2.14157,0.28344 -2.14157,-0.57887 0,-0.25821 -0.28864,-0.29063 -2.58772,-0.29063 -1.42325,0 -2.58773,0.0323 -2.58773,0.0719 0,0.71769 3.26469,5.40893 3.77681,5.42715 0.32756,0.0117 0.78428,0.0312 1.01494,0.0435 1.87492,0.0996 2.29259,3.14193 0.55594,4.04949 -2.20572,1.15268 -4.37185,-1.43328 -2.76209,-3.29744 0.47966,-0.55546 0.70638,-0.0363 -2.12241,-4.85987 l -0.84136,-1.43467 -7.97563,-0.002 -7.97563,-0.002 -1.60618,-2.71263 c -2.0099,-3.39451 -2.05565,-3.47201 -2.5791,-4.36905 -0.69567,-1.19216 -1.68133,-1.10412 -2.46177,0.2199 l -0.56526,0.95896 2.24486,3.82325 c 2.21323,3.7694 2.25317,3.82326 2.83473,3.82326 0.63236,0 1.32963,0.63835 1.32963,1.21729 0,0.16549 -0.16644,0.50708 -0.36988,0.75909 -0.97966,1.21358 -2.93819,-0.1515 -2.03003,-1.41492 0.25949,-0.361 0.23658,-0.45435 -0.36172,-1.47336 -2.85482,-4.86232 -3.62254,-6.11784 -3.77022,-6.16581 -0.15427,-0.0501 -0.52875,0.53432 -2.80804,4.38227 -0.39658,0.66952 -1.05288,1.76508 -1.45845,2.43459 -2.32314,3.83497 -2.64703,4.47384 -2.4355,4.80389 0.84361,1.31628 -0.82986,2.77724 -1.90447,1.66263 -0.76955,-0.7982 -0.37316,-1.83051 0.77257,-2.01198 0.68529,-0.10854 0.68529,-0.10854 4.15415,-5.97762 l 3.46887,-5.86907 -2.99704,-5.0437 -2.99705,-5.04369 -10.62078,0.0448 -10.62078,0.0448 -0.87682,1.47814 c -11.07206,18.66543 -9.85891,16.03267 -8.45383,18.34632 0.23233,0.38258 2.2935,3.8649 4.58037,7.7385 2.28687,3.87359 4.34931,7.29471 4.58319,7.60249 l 0.42525,0.5596 10.00714,0.008 c 10.00714,0.008 10.00714,0.008 10.62008,-0.51612 0.72225,-0.61792 1.09795,-0.6534 1.73648,-0.16399 1.02436,0.78516 0.0797,2.55061 -1.13595,2.12295 z m 28.91113,-21.61477 c 0,-0.10037 -0.95948,-1.80378 -2.13218,-3.78533 l -2.13218,-3.60284 -7.77256,-0.0453 c -4.27491,-0.0249 -7.77256,-0.002 -7.77256,0.0517 0,0.18859 4.02004,6.88959 4.3282,7.21469 0.3659,0.386 15.48128,0.54917 15.48128,0.16711 z m 12.43916,-27.34305 c -0.0503,-0.11956 -1.37244,-2.36937 -2.93806,-4.99959 l -2.84657,-4.78222 -6.27882,-0.0457 c -6.27882,-0.0457 -6.27882,-0.0457 -6.04884,0.36154 0.12649,0.22399 1.46969,2.49437 2.98488,5.04529 l 2.7549,4.63805 h 6.232 c 4.91542,0 6.21267,-0.0459 6.14051,-0.21737 z m 56.88589,45.35201 c -0.24093,-0.23477 -0.43804,-0.50866 -0.43804,-0.60865 0,-0.1243 -3.20326,-0.18272 -10.12782,-0.18472 l -10.12782,-0.003 -1.02934,-1.77955 c -1.01951,-1.76258 -1.86541,-3.19274 -4.62682,-7.82253 l -1.42614,-2.3911 h -7.17824 -7.17823 l -0.2978,-0.56518 c -0.16379,-0.31084 -0.56013,-1.00788 -0.88076,-1.54896 -0.32063,-0.54109 -2.26944,-3.844 -4.33069,-7.33981 -3.74775,-6.35602 -3.74775,-6.35602 -4.40424,-6.36342 -1.14307,-0.0129 -1.73631,-1.04345 -1.08912,-1.89197 0.91842,-1.20413 2.81176,-0.14409 2.12802,1.19143 -0.22536,0.4402 4.45746,8.80609 8.97824,16.03969 0.24644,0.39433 13.92898,0.47974 13.92875,0.087 -7e-5,-0.11956 -0.38154,-0.84625 -0.8477,-1.61488 -0.46617,-0.76863 -0.96153,-1.60987 -1.10082,-1.86941 -0.15837,-0.29512 -0.40006,-0.47191 -0.64516,-0.47191 -1.20226,0 -1.7913,-1.5359 -0.86216,-2.24806 1.19749,-0.91786 2.76471,0.64517 1.74634,1.74168 -0.32745,0.35256 -0.37594,0.23781 1.22624,2.90187 l 1.0746,1.78685 2.68251,-0.0479 c 2.68252,-0.0479 2.68252,-0.0479 2.82879,-0.59861 0.53809,-2.02624 3.8197,-1.86976 4.35477,0.20766 0.65225,2.53225 -3.22872,3.71351 -4.3154,1.31348 l -0.32127,-0.70954 h -2.56874 -2.56873 l 0.62741,1.08687 c 0.34507,0.59777 1.90306,3.23886 3.46219,5.86908 l 2.83478,4.78222 9.71487,0.0481 c 10.31961,0.0511 10.43493,0.046 10.60258,-0.46872 0.1425,-0.43751 0.94488,-0.69957 1.54038,-0.50311 1.28998,0.4256 0.90738,2.40187 -0.46499,2.40187 -0.25431,0 -0.65951,-0.19208 -0.90044,-0.42685 z m -60.21514,-58.13434 c -0.82977,-1.41033 -1.9593,-3.30766 -2.51005,-4.21628 -0.55076,-0.90862 -1.75911,-2.96302 -2.68522,-4.56534 -1.68385,-2.91329 -1.68385,-2.91329 -2.3466,-2.81163 -1.29531,0.19869 -2.05088,-1.21109 -1.12999,-2.10841 0.8806,-0.85808 2.15098,-0.20664 2.01429,1.03292 -0.0772,0.7 2.07864,4.59208 7.57153,13.66943 l 0.78923,1.30424 8.53785,0.0452 c 6.03332,0.0319 8.60755,-0.0112 8.77546,-0.14698 0.20207,-0.16341 1.29862,-1.92936 1.71847,-2.76752 0.0719,-0.14347 1.44636,-2.45198 3.05444,-5.13002 2.83058,-4.71395 2.91388,-4.88025 2.61321,-5.21696 -1.75005,-1.95984 0.34424,-4.78234 2.65453,-3.57754 2.00419,1.04517 1.15409,4.08157 -1.15163,4.11337 l -1.02488,0.0142 -3.83203,6.46359 -3.83204,6.46359 -8.85395,-6.6e-4 -8.85394,-6.7e-4 z m 86.41396,-2.66397 c -0.87321,-0.25717 -1.78039,-1.23555 -1.95828,-2.11195 l -0.15114,-0.7446 -9.096,-0.0412 c -5.00279,-0.0227 -9.18323,-0.0422 -9.28986,-0.0435 -0.10665,-0.001 -0.87934,-1.15655 -1.71711,-2.5673 -0.83776,-1.41076 -2.98275,-5.02109 -4.76667,-8.02296 l -3.24348,-5.45795 0.88286,-1.498 c 0.48557,-0.8239 1.05897,-1.81102 1.27425,-2.1936 0.21528,-0.38257 0.46417,-0.76993 0.55306,-0.8608 0.0889,-0.0909 0.16166,-0.2278 0.16166,-0.30432 0,-0.0765 -2.75377,-0.13912 -6.11948,-0.13912 h -6.11946 l -0.89901,-1.52161 c -0.49447,-0.83689 -2.01133,-3.39973 -3.37081,-5.69519 -1.35948,-2.29546 -2.75869,-4.66193 -3.10934,-5.25883 -0.57199,-0.97369 -0.69613,-1.08542 -1.20743,-1.08687 -1.043,-0.003 -1.52399,-1.36531 -0.73493,-2.08162 1.14154,-1.0363 2.8867,0.60544 1.84073,1.73166 -0.25956,0.27947 1.65639,3.71233 6.93979,12.43432 l 0.7374,1.21729 5.97664,0.0421 c 7.19027,0.0507 5.76063,0.89522 9.63851,-5.69384 2.11203,-3.58865 2.73404,-4.62829 3.0092,-5.0295 0.13424,-0.19576 0.63833,-0.23885 2.41915,-0.20679 3.06544,0.0552 4.5812,-1.13739 4.26876,-3.35859 -0.18123,-1.28833 1.09554,-1.99816 2.0445,-1.13668 0.88393,0.80244 0.25217,2.08002 -1.02858,2.08002 -0.67004,0 -1.97164,1.49856 -1.97164,2.27 0,0.10061 2.62877,0.16458 6.76363,0.16458 h 6.76363 l 1.94747,3.2606 c 1.0711,1.79333 3.01227,5.06366 4.31372,7.2674 2.36625,4.00679 2.36625,4.00679 2.96078,3.93916 1.14505,-0.13026 1.80898,1.25172 0.98644,2.05322 -1.03075,1.00439 -2.74884,-0.35989 -1.96825,-1.56292 0.11721,-0.18063 0.0433,-0.4692 -0.24509,-0.95644 -0.22711,-0.38377 -2.16282,-3.65187 -4.30158,-7.26244 l -3.88864,-6.56468 h -6.80843 -6.80842 l -3.22472,5.43433 -3.22472,5.43434 -2.57651,0.0479 -2.57652,0.0479 -0.55163,0.90851 c -0.30341,0.49969 -0.9616,1.582 -1.46266,2.40515 -0.50105,0.82315 -0.911,1.54442 -0.911,1.60283 0,0.0584 1.65856,2.90638 3.68569,6.32882 2.02713,3.42243 4.12999,6.98559 4.67304,7.91812 l 0.98735,1.69551 h 9.22483 c 9.22482,0 9.22482,0 9.32392,-0.48283 0.3782,-1.84263 3.06448,-2.72564 4.66747,-1.53424 2.66234,1.97872 0.49549,6.07944 -2.71309,5.13447 z m -22.06326,-24.29224 c 0.19378,-0.12303 6.31269,-10.34929 6.31269,-10.55011 0,-0.0542 -1.06409,-0.0976 -2.36464,-0.0964 l -2.36465,0.002 -0.74144,1.25864 c -0.40781,0.69224 -1.79314,3.03173 -3.0785,5.19885 -1.28539,2.16712 -2.33706,4.02567 -2.33706,4.1301 0,0.21684 4.2386,0.26947 4.5736,0.0568 z m -97.64001,9.49443 c -0.27052,-0.20735 -0.60366,-0.63775 -0.74032,-0.95644 l -0.24846,-0.57945 -8.25156,-0.002 -8.25155,-0.002 -1.35191,-2.30228 c -7.00299,-11.92594 -6.38273,-10.97891 -7.20893,-11.00686 -1.4237,-0.0482 -1.81523,-1.86586 -0.50636,-2.35076 1.14172,-0.42297 2.04005,0.41347 1.68483,1.56876 -0.20394,0.66328 -0.18769,0.70227 1.4637,3.51356 4.07125,6.93079 5.88705,9.98798 6.05231,10.19007 0.13746,0.16809 1.99167,0.21737 8.17841,0.21737 h 8.00064 l 0.41848,-0.82602 c 0.92985,-1.83542 3.26988,-1.91127 4.13536,-0.13405 0.9653,1.98218 -1.61178,4.02105 -3.37464,2.66986 z"
         id="path328" />
    </g>
  </g>
</svg>
