<svg width="99" height="26" viewBox="0 0 99 26" fill="none" xmlns="http://www.w3.org/2000/svg">
<path d="M34.8818 0.545581L46.8993 22.6504C47.4929 23.4963 48.2803 24.1879 49.1957 24.6676C50.111 25.1472 51.1278 25.401 52.1613 25.4077C53.1447 25.3601 54.104 25.0866 54.9648 24.6084C55.8255 24.1303 56.5645 23.4602 57.1245 22.6504L65.6723 6.91047C65.7533 6.76073 65.8725 6.63509 66.0178 6.54631C66.1631 6.45753 66.3293 6.40876 66.4995 6.40495H86.1686C87.78 6.58311 89.277 7.32348 90.3966 8.49595C91.529 9.71554 92.1678 11.3125 92.1888 12.9766C92.2495 14.5201 91.7427 16.0323 90.7642 17.2276C90.1962 17.9047 89.4953 18.458 88.7048 18.8533C87.9143 19.2485 87.0511 19.4773 86.1686 19.5254H72.6805V8.63382H66.7522V25.4766H86.2605C89.0683 25.2612 91.7372 24.168 93.8892 22.3516C95.2562 21.2269 96.3717 19.8276 97.1633 18.2442C97.955 16.6609 98.4052 14.9289 98.4848 13.1605C98.6103 11.3277 98.2817 9.49227 97.5282 7.81687C96.7747 6.14146 95.6194 4.67783 94.1649 3.55569C91.8328 1.56574 88.8667 0.473848 85.801 0.476646H63.7881C63.5432 0.476366 63.3027 0.54245 63.0923 0.667872C62.882 0.793293 62.7095 0.973371 62.5932 1.18897L53.1953 18.7901C53.0872 18.971 52.9341 19.1207 52.7508 19.2247C52.5676 19.3287 52.3605 19.3834 52.1498 19.3834C51.9391 19.3834 51.732 19.3287 51.5487 19.2247C51.3655 19.1207 51.2123 18.971 51.1043 18.7901L41.3157 0.407715C40.2357 0.407715 40.8101 0.407715 40.2357 0.407715L34.8818 0.545581Z" fill="black"/>
<path d="M0.208008 25.4081V6.08367C0.288442 5.57911 0.42724 5.0856 0.62161 4.61308C0.821152 4.10449 1.0754 3.6191 1.37988 3.16547C2.40667 1.77056 3.94264 0.837422 5.65378 0.568965C6.68775 0.439029 7.73772 0.54521 8.72473 0.879522C9.71175 1.21384 10.6101 1.76758 11.3523 2.49911L13.6501 4.79691L27.4369 19.5947C27.4369 19.5947 27.6896 19.8704 27.8964 19.8704C28.1032 19.8704 28.2641 19.8704 28.2411 19.5947V0.477051H34.0315V20.3989C33.9047 21.0699 33.7043 21.7249 33.4341 22.3521C32.8452 23.2764 32.0389 24.0425 31.0856 24.5833C30.1322 25.124 29.0609 25.423 27.9654 25.4541C24.3578 25.6149 22.2209 22.6967 21.072 21.5708L7.28521 6.38238C7.15163 6.28388 6.99151 6.22783 6.82565 6.22154C6.68182 6.23295 6.5452 6.28921 6.43503 6.38238V25.5919L0.208008 25.4081Z" fill="black"/>
</svg>
