<svg height="45" width="45" xmlns="http://www.w3.org/2000/svg"><linearGradient id="a" x1="12.959%" x2="79.639%" y1="12.039%" y2="78.201%"><stop offset="0" stop-color="#387eb8"/><stop offset="1" stop-color="#366994"/></linearGradient><linearGradient id="b" x1="19.128%" x2="90.742%" y1="20.579%" y2="88.429%"><stop offset="0" stop-color="#ffe052"/><stop offset="1" stop-color="#ffc331"/></linearGradient><g fill="none"><path d="M22.31.013c-11.397 0-10.685 4.961-10.685 4.961l.012 5.14h10.876v1.544H7.318S.025 10.828.025 22.37c0 11.544 6.366 11.135 6.366 11.135h3.798v-5.357s-.205-6.39 6.264-6.39h10.786s6.06.098 6.06-5.88V5.995s.92-5.982-10.99-5.982zm-5.997 3.456a1.95 1.95 0 0 1 1.384.575 1.97 1.97 0 0 1 0 2.779 1.95 1.95 0 0 1-2.768 0 1.966 1.966 0 0 1-.573-1.39c0-.52.206-1.02.573-1.389a1.95 1.95 0 0 1 1.384-.575z" fill="url(#a)"/><path d="M22.633 44.846c11.396 0 10.685-4.962 10.685-4.962l-.013-5.14H22.43v-1.543h15.194s7.293.83 7.293-10.714-6.365-11.134-6.365-11.134h-3.799v5.356s.205 6.39-6.263 6.39H17.703s-6.06-.098-6.06 5.88v9.885s-.92 5.982 10.99 5.982zm5.997-3.457a1.95 1.95 0 0 1-1.384-.574 1.966 1.966 0 0 1-.573-1.39c0-.52.206-1.02.573-1.39a1.95 1.95 0 0 1 2.768 0c.367.37.573.87.572 1.39a1.97 1.97 0 0 1-.572 1.39 1.95 1.95 0 0 1-1.384.574z" fill="url(#b)"/></g></svg>