<svg xmlns="http://www.w3.org/2000/svg" width="51" height="40"><defs><linearGradient id="a" x1="0%" y1="0%" y2="100%"><stop offset="0%" stop-color="#CBCED0"/><stop offset="100%" stop-color="#84838B"/></linearGradient><linearGradient id="b" x1="0%" y1="0%" y2="100%"><stop offset="0%" stop-color="#276DC3"/><stop offset="100%" stop-color="#165CAA"/></linearGradient></defs><g fill="none" fill-rule="evenodd"><path fill="url(#a)" d="M25.532 34.681c-14.066 0-25.468-7.763-25.468-17.34S11.466 0 25.532 0 51 7.764 51 17.34c0 9.578-11.402 17.341-25.468 17.341zM29.43 6.78c-10.69 0-19.358 5.307-19.358 11.854 0 6.548 8.667 11.855 19.358 11.855s18.581-3.628 18.581-11.855c0-8.223-7.89-11.854-18.58-11.854z"/><path fill="url(#b)" d="M38.85 26.858s1.542.473 2.437.934c.311.16.849.479 1.237.897.38.41.565.826.565.826l6.074 10.413-9.818.005-4.592-8.766s-.94-1.642-1.518-2.119c-.483-.397-.689-.538-1.166-.538h-2.333l.002 11.416-8.688.004V10.768h17.447s7.947.145 7.947 7.832c0 7.686-7.594 8.258-7.594 8.258zm-3.779-9.765-5.26-.003-.002 4.959 5.262-.002s2.437-.008 2.437-2.523c0-2.565-2.437-2.43-2.437-2.43z"/></g></svg>