<svg xmlns="http://www.w3.org/2000/svg" width="121" height="48" fill="none"><path fill="#507AB6" d="M118.992 0H1.21A1.21 1.21 0 000 1.21v45.58C0 47.458.542 48 1.21 48h117.782a1.21 1.21 0 001.21-1.21V1.21a1.21 1.21 0 00-1.21-1.21z"/><path fill="#fff" d="M13.55 13.336c.87 0 1.803.088 2.799.265l-.36 1.796a10.957 10.957 0 00-2.665-.321c-1.752 0-3.19.743-4.311 2.23-1.122 1.488-1.683 3.366-1.683 5.635v11.345H5.458V13.733h1.588l.19 3.706h.132c.844-1.512 1.746-2.571 2.704-3.176.958-.618 2.117-.927 3.479-.927zm13.283 21.328c-2.987 0-5.32-.92-6.996-2.76-1.663-1.84-2.495-4.419-2.495-7.734 0-3.277.806-5.899 2.42-7.865 1.613-1.98 3.787-2.969 6.523-2.969 2.42 0 4.33.845 5.729 2.534 1.399 1.689 2.098 3.983 2.098 6.882v1.513H19.308c.025 2.823.68 4.979 1.966 6.466 1.299 1.487 3.152 2.231 5.56 2.231 1.171 0 2.199-.082 3.081-.246.895-.163 2.023-.516 3.385-1.058v1.701c-1.16.505-2.232.845-3.215 1.021-.983.19-2.067.284-3.252.284zM26.285 15c-1.98 0-3.567.655-4.765 1.966-1.197 1.299-1.897 3.177-2.099 5.635h12.706c0-2.383-.517-4.242-1.55-5.578C29.543 15.674 28.112 15 26.285 15zm27.52-1.267v1.305l-4.254.265c1.134 1.411 1.701 2.962 1.701 4.65 0 1.98-.662 3.587-1.985 4.822-1.31 1.223-3.076 1.834-5.294 1.834-.933 0-1.588-.038-1.966-.113-.744.39-1.311.85-1.702 1.38-.39.53-.586 1.09-.586 1.683 0 .655.245 1.134.737 1.437.504.302 1.342.454 2.515.454h3.592c2.231 0 3.94.453 5.124 1.361 1.185.895 1.777 2.225 1.777 3.99 0 2.167-.882 3.838-2.646 5.01-1.753 1.185-4.255 1.777-7.507 1.777-2.584 0-4.588-.498-6.013-1.494-1.411-.995-2.117-2.382-2.117-4.16 0-1.41.435-2.583 1.305-3.516.882-.933 2.073-1.57 3.573-1.91a3.731 3.731 0 01-1.494-1.115 2.752 2.752 0 01-.548-1.683c0-1.374.876-2.584 2.628-3.63-1.197-.492-2.13-1.26-2.798-2.307-.668-1.059-1.002-2.269-1.002-3.63 0-2.055.649-3.7 1.947-4.935 1.311-1.248 3.076-1.872 5.294-1.872 1.35 0 2.395.133 3.139.397h6.58zM37.166 37.765c0 2.823 2.099 4.235 6.296 4.235 5.395 0 8.093-1.72 8.093-5.162 0-1.235-.422-2.13-1.267-2.685-.845-.554-2.212-.831-4.103-.831H42.82c-3.77 0-5.654 1.48-5.654 4.443zm1.57-17.622c0 1.588.479 2.823 1.437 3.706.97.87 2.262 1.304 3.875 1.304 1.715 0 3.026-.434 3.933-1.304.92-.87 1.38-2.13 1.38-3.782 0-1.752-.472-3.063-1.417-3.933-.933-.882-2.244-1.323-3.933-1.323-1.639 0-2.931.473-3.876 1.418-.933.933-1.4 2.237-1.4 3.914z"/><path fill="#C0E0FC" d="M64.327 34.664c-2.987 0-5.32-.92-6.996-2.76-1.664-1.84-2.496-4.419-2.496-7.734 0-3.277.807-5.899 2.42-7.865 1.614-1.98 3.788-2.969 6.524-2.969 2.42 0 4.33.845 5.729 2.534 1.399 1.689 2.098 3.983 2.098 6.882v1.513H56.802c.025 2.823.68 4.979 1.966 6.466 1.298 1.487 3.151 2.231 5.559 2.231 1.172 0 2.2-.082 3.082-.246.895-.163 2.023-.516 3.384-1.058v1.701c-1.16.505-2.23.845-3.214 1.021-.983.19-2.067.284-3.252.284zM63.779 15c-1.98 0-3.568.655-4.765 1.966-1.197 1.299-1.897 3.177-2.099 5.635h12.706c0-2.383-.517-4.242-1.55-5.578C67.036 15.674 65.605 15 63.778 15zm16.534 8.716l-7.166-9.983h2.156l6.126 8.66 6.07-8.66h2.06l-7.052 9.983 7.563 10.57h-2.175l-6.466-9.17-6.504 9.17h-2.061l7.45-10.57z"/><path fill="#fff" d="M95.59 36.303h-.926v-10.07c0-.914.038-1.862.113-2.845a5.856 5.856 0 01-.293.274c-.1.088-1.074.854-2.92 2.297l-.54-.671 3.753-2.808h.813v13.822zm12.458-6.949c0 2.427-.372 4.223-1.116 5.389-.737 1.166-1.856 1.749-3.356 1.749-1.443 0-2.54-.6-3.29-1.797-.75-1.203-1.125-2.984-1.125-5.341 0-2.407.363-4.191 1.087-5.35.732-1.16 1.841-1.74 3.328-1.74 1.456 0 2.565.602 3.328 1.805.762 1.198 1.144 2.96 1.144 5.285zm-7.866 0c0 2.143.281 3.728.841 4.755.562 1.021 1.412 1.532 2.553 1.532 1.192 0 2.058-.53 2.6-1.588.548-1.06.822-2.625.822-4.699 0-2.042-.274-3.592-.822-4.651-.542-1.06-1.408-1.588-2.6-1.588-1.191 0-2.054.529-2.59 1.588-.536 1.059-.804 2.609-.804 4.651zm13.271 6.949h-.927v-10.07c0-.914.038-1.862.114-2.845a6.327 6.327 0 01-.293.274c-.101.088-1.075.854-2.921 2.297l-.539-.671 3.753-2.808h.813v13.822z"/></svg>