<svg xmlns="http://www.w3.org/2000/svg" width="76" height="40" fill="none" viewBox="0 0 76 40">
    <path fill="#F89939" d="M57.886 33.99c9.059-9.058 10.564-22.238 3.363-29.439-7.2-7.2-20.38-5.694-29.438 3.363-9.057 9.057-6.437 26.362-3.361 29.439 2.485 2.485 20.38 5.694 29.436-3.363z"/>
    <path fill="#3499CD" d="M20.718 20.902c-5.254-5.255-12.902-6.13-17.08-1.951-4.179 4.178-3.305 11.826 1.95 17.08 5.257 5.257 15.298 3.737 17.081 1.952 1.443-1.441 3.306-11.826-1.95-17.081z"/>
    <path fill="#010101" d="M38.85 31.77c-.928.854-1.743 1.485-2.443 1.89-.7.407-1.367.61-2.002.61-.731 0-1.32-.284-1.767-.85-.448-.568-.671-1.328-.671-2.285 0-1.434.31-3.155.932-5.162.62-2.009 1.376-3.86 2.264-5.553l2.602-.963c.081-.028.143-.041.184-.041.198 0 .361.145.486.435.127.29.19.682.19 1.173 0 1.393-.32 2.742-.963 4.047-.642 1.304-1.646 2.697-3.012 4.18-.054.71-.082 1.197-.082 1.464 0 .594.11 1.065.328 1.413.219.35.509.523.87.523.37 0 .763-.132 1.18-.399.415-.267 1.05-.82 1.904-1.66v1.178zm-3.923-4.005c.867-.964 1.571-2.045 2.11-3.242.54-1.197.809-2.226.809-3.088 0-.252-.037-.456-.112-.61-.075-.153-.171-.23-.287-.23-.252 0-.62.628-1.101 1.887-.482 1.258-.955 3.02-1.419 5.283z"/>
    <path fill="#010101" d="M46.513 31.77c-.867.854-1.645 1.485-2.335 1.89-.69.407-1.451.61-2.285.61-.928 0-1.678-.298-2.249-.89-.57-.596-.855-1.377-.855-2.347 0-1.448.502-2.758 1.507-3.929 1.003-1.171 2.117-1.757 3.339-1.757.635 0 1.143.165 1.526.492.383.328.574.758.574 1.291 0 1.414-1.502 2.56-4.507 3.442.273 1.331.986 1.997 2.14 1.997.451 0 .881-.12 1.29-.363.411-.242 1.029-.781 1.855-1.614v1.178zm-5.368-1.895c1.748-.492 2.623-1.4 2.623-2.725 0-.655-.24-.983-.717-.983-.451 0-.88.343-1.29 1.03-.411.686-.616 1.578-.616 2.678z"/>
    <path fill="#010101" d="M57.453 31.77c-1.092 1.038-1.874 1.715-2.345 2.03-.471.313-.922.47-1.353.47-1.079 0-1.587-.952-1.526-2.858-.683.976-1.313 1.697-1.89 2.162-.577.465-1.172.696-1.788.696-.6 0-1.11-.281-1.531-.845-.42-.563-.63-1.254-.63-2.074 0-1.024.281-2.001.844-2.93.564-.93 1.287-1.68 2.167-2.253.881-.574 1.66-.861 2.336-.861.854 0 1.451.393 1.793 1.178l2.094-1.157h.574l-.904 3c-.464 1.51-.697 2.545-.697 3.105 0 .587.207.88.624.88.266 0 .56-.14.88-.425.322-.283.772-.715 1.352-1.296v1.178zm-7.498.564c.683 0 1.326-.582 1.932-1.746.604-1.165.906-2.24.906-3.223 0-.382-.086-.681-.256-.896-.171-.216-.4-.323-.686-.323-.684 0-1.331.58-1.941 1.742-.611 1.161-.918 2.23-.918 3.206 0 .37.091.668.272.897.18.229.41.343.69.343z"/>
    <path fill="#010101" d="M65.106 31.77c-1.714 1.68-3.036 2.52-3.965 2.52-.417 0-.768-.176-1.055-.526-.286-.352-.43-.788-.43-1.307 0-.963.516-2.253 1.547-3.872-.506.26-1.058.44-1.66.542-.443.82-1.14 1.701-2.09 2.643h-.234v-.921c.532-.553 1.014-1.148 1.444-1.783-.588-.26-.881-.646-.881-1.157 0-.527.178-1.088.538-1.686.358-.597.851-.896 1.48-.896.533 0 .799.272.799.82 0 .43-.154 1.044-.462 1.843 1.134-.123 2.124-.99 2.971-2.602l.932-.041-.952 2.622c-.396 1.107-.652 1.86-.768 2.26-.116.399-.175.753-.175 1.06 0 .287.067.516.2.686.133.172.313.256.538.256.246 0 .482-.084.707-.25.225-.169.73-.631 1.516-1.389v1.178z"/>
    <path fill="#010101" d="M75.166 31.77c-1.577 1.667-2.93 2.5-4.057 2.5-.457 0-.826-.16-1.106-.482-.28-.32-.42-.75-.42-1.29 0-.73.3-1.848.902-3.35.32-.805.481-1.319.481-1.536 0-.219-.086-.328-.256-.328-.095 0-.222.048-.379.143-.144.095-.311.23-.502.4-.17.157-.363.348-.574.572-.185.193-.383.412-.594.656l-.574.667c-.252.307-.41.631-.47.973-.104.58-.172 1.113-.206 1.599-.021.36-.031.849-.031 1.465l-2.264.531c-.075-.922-.113-1.608-.113-2.058 0-1.1.128-2.141.385-3.125.256-.984.667-2.09 1.234-3.32l2.5-.48c-.526 1.414-.871 2.526-1.035 3.338 1.12-1.249 2.008-2.114 2.666-2.596.657-.482 1.243-.721 1.754-.721.347 0 .638.13.87.393.232.263.347.592.347.987 0 .655-.294 1.734-.88 3.237-.403 1.03-.605 1.7-.605 2.008 0 .412.168.617.503.617.5 0 1.308-.66 2.424-1.977v1.177z"/>
    <path fill="#fff" d="M42.729 20.727c.016.182.062.32.136.418.137.175.376.263.715.263.202 0 .38-.043.532-.13.154-.089.23-.225.23-.409 0-.139-.061-.245-.184-.318-.079-.044-.234-.095-.466-.154l-.433-.109c-.277-.069-.48-.145-.612-.23-.234-.147-.35-.351-.35-.612 0-.306.11-.555.33-.744.221-.19.519-.285.892-.285.489 0 .84.143 1.057.43.135.182.2.377.197.587h-.515c-.01-.123-.054-.235-.13-.336-.126-.143-.342-.215-.651-.215-.206 0-.362.04-.47.118-.104.08-.157.183-.157.312 0 .142.07.255.209.34.08.05.2.094.357.132l.36.088c.392.095.654.187.788.276.212.139.318.358.318.657 0 .288-.11.537-.33.747-.218.21-.551.315-1 .315-.482 0-.824-.109-1.026-.327-.2-.22-.307-.491-.32-.814h.523zm4.026-2.319c.366 0 .662.089.89.266.23.178.369.484.415.918h-.53c-.032-.2-.106-.366-.22-.497-.116-.133-.3-.2-.555-.2-.347 0-.595.17-.744.509-.097.22-.146.491-.146.814 0 .325.069.599.206.82.138.223.353.334.648.334.226 0 .405-.069.536-.206.133-.14.225-.33.275-.57h.53c-.06.43-.212.745-.454.945-.242.198-.552.297-.93.297-.423 0-.761-.154-1.014-.463-.252-.311-.378-.698-.378-1.163 0-.569.138-1.012.415-1.329.276-.317.629-.475 1.056-.475zm1.85.109h.554v3.227h-.554v-3.227zm0-1.22h.554v.618h-.554v-.618zm1.369 0h.523v2.582l1.399-1.377h.696l-1.241 1.214 1.31 2.028h-.696l-1.01-1.635-.458.418v1.217h-.523v-4.447zm3.112 1.22h.554v3.227h-.554v-3.227zm0-1.22h.554v.618h-.554v-.618zm1.489.3h.551v.905h.518v.445h-.518v2.116c0 .113.038.189.115.227.042.022.113.033.212.033h.085l.106-.009v.43c-.063.018-.128.031-.197.04-.067.008-.14.012-.218.012-.254 0-.427-.065-.518-.194-.09-.131-.136-.3-.136-.509v-2.146h-.439v-.445h.439v-.905z"/>
</svg>
