<svg height="25" viewBox="0 0 109 25" width="109" xmlns="http://www.w3.org/2000/svg" xmlns:xlink="http://www.w3.org/1999/xlink"><linearGradient id="a" x1="32.788%" x2="59.922%" y1="37.508%" y2="53.752%"><stop offset="0" stop-color="#6a6a6a"/><stop offset="1" stop-color="#6a6a6a" stop-opacity="0"/></linearGradient><linearGradient id="b" x1="79.024%" x2="23.561%" y1="34.257%" y2="8.682%"><stop offset="0" stop-color="#f4f6f6"/><stop offset="1" stop-color="#9b9d9e"/></linearGradient><mask id="c" fill="#fff"><path d="m24.497 12.252c0 6.764-5.484 12.248-12.249 12.248-6.764 0-12.248-5.484-12.248-12.248 0-6.765 5.484-12.249 12.248-12.249 6.765 0 12.249 5.484 12.249 12.249" fill="#fff" fill-rule="evenodd"/></mask><g fill="none" fill-rule="evenodd"><path d="m35.616 17.917c-.622 0-1.26-.12-1.913-.36a5.905 5.905 0 0 1 -1.703-.948l1.256-1.745a5.7 5.7 0 0 0 1.237.74c.394.164.793.246 1.2.246.418 0 .723-.07.913-.208a.685.685 0 0 0 .285-.588.594.594 0 0 0 -.161-.408 1.65 1.65 0 0 0 -.438-.331 4.32 4.32 0 0 0 -.619-.275 14.597 14.597 0 0 1 -.704-.275 8.938 8.938 0 0 1 -.875-.398 3.703 3.703 0 0 1 -.8-.56 2.745 2.745 0 0 1 -.59-.777 2.235 2.235 0 0 1 -.228-1.034c0-.43.085-.828.257-1.194.171-.367.415-.676.732-.93a3.619 3.619 0 0 1 1.142-.596 4.755 4.755 0 0 1 1.485-.218c.723 0 1.358.123 1.903.37a7.617 7.617 0 0 1 1.428.824l-1.257 1.669a4.951 4.951 0 0 0 -1.008-.588 2.53 2.53 0 0 0 -.99-.209c-.71 0-1.066.247-1.066.74 0 .151.051.281.153.388.101.108.237.206.409.294.171.089.368.174.59.256l.694.256c.305.114.606.244.904.389.299.145.571.325.819.54.247.215.447.477.6.787.152.31.228.68.228 1.11s-.083.827-.248 1.194a2.63 2.63 0 0 1 -.742.957 3.71 3.71 0 0 1 -1.218.645c-.482.158-1.04.237-1.675.237zm7.232-.227-2.36-9.405h2.78l.913 4.361c.076.468.146.93.21 1.384.063.455.132.923.208 1.403h.077c.088-.48.174-.954.256-1.422.083-.468.181-.923.295-1.365l1.047-4.36h2.417l1.066 4.36c.114.468.216.93.305 1.384.089.455.184.923.285 1.403h.076c.09-.48.162-.948.22-1.403a22.3 22.3 0 0 1 .218-1.384l.895-4.36h2.588l-2.265 9.404h-3.273l-.857-3.755c-.101-.442-.19-.884-.266-1.327a416.2 416.2 0 0 0 -.248-1.422h-.076c-.089.506-.168.98-.238 1.422-.07.443-.149.885-.238 1.327l-.837 3.755zm13.19 0v-9.405h2.798v9.405zm1.39-10.79c-.47 0-.857-.136-1.162-.408-.304-.271-.457-.622-.457-1.052s.153-.777.457-1.043c.305-.265.692-.398 1.161-.398.482 0 .873.133 1.17.398.299.266.448.613.448 1.043s-.15.78-.447 1.052c-.298.272-.689.408-1.17.408zm7.498 11.016c-.584 0-1.082-.088-1.494-.265a2.616 2.616 0 0 1 -1.009-.74 3.004 3.004 0 0 1 -.57-1.147 5.732 5.732 0 0 1 -.182-1.488v-3.811h-1.294v-2.066l1.447-.114.323-2.503h2.322v2.503h2.265v2.18h-2.264v3.774c0 .53.111.913.333 1.147s.517.35.885.35c.153 0 .308-.018.467-.056a3.12 3.12 0 0 0 .428-.133l.438 2.029c-.254.076-.552.151-.895.227a5.595 5.595 0 0 1 -1.199.114zm7.765 0a4.99 4.99 0 0 1 -1.836-.332 4.274 4.274 0 0 1 -1.475-.957 4.442 4.442 0 0 1 -.99-1.546c-.241-.613-.362-1.311-.362-2.095 0-.783.133-1.482.4-2.095a4.54 4.54 0 0 1 1.075-1.545 4.68 4.68 0 0 1 1.57-.958 5.32 5.32 0 0 1 1.866-.331c.583 0 1.1.094 1.55.284.451.19.854.43 1.21.72l-1.314 1.802c-.444-.367-.87-.55-1.275-.55-.685 0-1.225.24-1.618.72s-.59 1.132-.59 1.953c0 .822.2 1.473.6 1.953s.904.72 1.513.72c.304 0 .6-.066.885-.198a4.56 4.56 0 0 0 .809-.484l1.104 1.82a4.28 4.28 0 0 1 -1.523.863 5.34 5.34 0 0 1 -1.599.256zm4.777-.227v-13.291h2.798v3.262l-.133 1.688a7.53 7.53 0 0 1 1.237-.882c.47-.272 1.028-.407 1.675-.407 1.028 0 1.773.335 2.236 1.004.463.67.695 1.6.695 2.788v5.84h-2.798v-5.48c0-.683-.092-1.15-.276-1.403s-.479-.38-.885-.38c-.355 0-.66.08-.913.238a5.344 5.344 0 0 0 -.838.673v6.352h-2.798zm13.704.227c-1.028 0-1.774-.335-2.237-1.005s-.694-1.599-.694-2.787v-5.84h2.797v5.48c0 .682.096 1.15.286 1.403s.488.379.894.379c.356 0 .654-.082.895-.247.241-.164.501-.43.78-.796v-6.218h2.798v9.405h-2.284l-.21-1.309h-.056c-.406.48-.84.857-1.304 1.128-.463.272-1.018.408-1.665.408zm7.974 3.261v-12.892h2.284l.19.93h.077a5.267 5.267 0 0 1 1.246-.826 3.297 3.297 0 0 1 1.437-.331 3.41 3.41 0 0 1 1.542.34c.456.228.843.55 1.16.968.318.417.562.92.733 1.507.172.588.257 1.242.257 1.963 0 .809-.11 1.526-.333 2.152-.222.625-.52 1.156-.894 1.592-.375.436-.8.768-1.275.996a3.382 3.382 0 0 1 -1.475.341c-.406 0-.8-.085-1.18-.256a3.769 3.769 0 0 1 -1.066-.73l.095 1.498v2.75h-2.798zm4.301-5.536c.483 0 .895-.218 1.238-.654.342-.436.513-1.141.513-2.114 0-1.694-.545-2.541-1.636-2.541-.546 0-1.085.284-1.618.853v3.849c.254.228.507.386.761.474.254.089.501.133.742.133z" fill="#7c7c7c" fill-rule="nonzero"/><path d="m24.497 12.252c0 6.764-5.484 12.248-12.249 12.248-6.764 0-12.248-5.484-12.248-12.248 0-6.765 5.484-12.249 12.248-12.249 6.765 0 12.249 5.484 12.249 12.249" fill="#7c7d79" mask="url(#c)"/><path d="m15.17 5.581-4.705 4.975-1.816 2.253 1.009 1.378s1.781-.202 1.95-.202c.168 0 4.033-.201 4.033-.201l-.268 1.411-3.934 2.622-4.901 2.925 13.832 7.682c5.716-2.851 9.707-8.64 9.997-15.39l-12.272-6.68-2.924-.773z" fill="url(#a)" mask="url(#c)"/><path d="m9.667 16.61s-3.07.977-3.143-2.25 3.39-5.916 6.65-8.572v-2.151l4.908 2.723-4.74 7.059v-2.824l-3.025 1.345-.79.43-.64 2.125z" fill="#fffffe" mask="url(#c)"/><path d="m7.829 15.335c-.051-2.265 2.16-3.217 2.16-3.217-.383.266-.813.59-.444 1.122.38.552 2.022-.363 2.589-.605.9-.383 1.914-.863 3.628-.897 1.715-.034 3.127 1.782-1.412 4.605-4.516 2.81-7.794 4.389-7.826 4.404.029-.02 3.031-2.192 5.507-3.63 2.487-1.446 4.135-3.463.84-1.883-1.488.714-2.462 1.16-3.204 1.376 0 0-1.803.271-1.838-1.275z" fill="url(#b)" mask="url(#c)"/><path d="m13.174 5.788v-2.151l4.908 2.723-4.74 7.059v-2.824" fill="#fffffe" mask="url(#c)"/></g></svg>