<svg height="17" viewBox="0 0 134 17" width="134" xmlns="http://www.w3.org/2000/svg"><g fill="none"><path d="m13.113 10.117 1.13 5.705a.348.348 0 0 1 -.14.349.374.374 0 0 1 -.385.031l-4.998-2.502-5 2.5a.374.374 0 0 1 -.386-.031.348.348 0 0 1 -.138-.351l1.163-5.697-4.24-3.687a.346.346 0 0 1 -.104-.361.36.36 0 0 1 .29-.248l5.59-.875 2.519-4.758a.366.366 0 0 1 .326-.192c.137 0 .262.074.324.192l2.521 4.758 5.588.875a.36.36 0 0 1 .29.248c.04.13 0 .27-.104.361l-4.245 3.683zm58.625 0 1.13 5.705a.348.348 0 0 1 -.14.349.374.374 0 0 1 -.385.031l-4.998-2.502-5 2.5a.374.374 0 0 1 -.386-.031.348.348 0 0 1 -.138-.351l1.163-5.697-4.24-3.687a.346.346 0 0 1 -.104-.361.36.36 0 0 1 .29-.248l5.59-.875 2.52-4.758a.366.366 0 0 1 .324-.192c.137 0 .262.074.324.192l2.521 4.758 5.588.875a.36.36 0 0 1 .29.248c.04.13 0 .27-.104.361zm-29.312 0 1.13 5.705a.348.348 0 0 1 -.14.349.374.374 0 0 1 -.385.031l-4.999-2.502-5 2.5a.374.374 0 0 1 -.385-.031.348.348 0 0 1 -.138-.351l1.163-5.697-4.24-3.687a.346.346 0 0 1 -.104-.361.36.36 0 0 1 .29-.248l5.589-.875 2.52-4.758a.366.366 0 0 1 .326-.192c.136 0 .261.074.323.192l2.521 4.758 5.588.875a.36.36 0 0 1 .29.248c.04.13 0 .27-.103.361l-4.245 3.683zm57.578 0 1.13 5.705a.348.348 0 0 1 -.14.349.374.374 0 0 1 -.385.031l-4.999-2.502-4.999 2.5a.374.374 0 0 1 -.386-.031.348.348 0 0 1 -.138-.351l1.163-5.697-4.24-3.687a.346.346 0 0 1 -.104-.361.36.36 0 0 1 .29-.248l5.589-.875 2.521-4.758a.366.366 0 0 1 .324-.192c.136 0 .261.074.324.192l2.52 4.758 5.588.875a.36.36 0 0 1 .29.248c.04.13 0 .27-.103.361z" fill="#000" opacity=".5"/><path d="m129.316 10.117 1.13 5.705a.348.348 0 0 1 -.14.349.374.374 0 0 1 -.385.031l-4.998-2.502-5 2.5a.374.374 0 0 1 -.386-.031.348.348 0 0 1 -.138-.351l1.163-5.697-4.24-3.687a.346.346 0 0 1 -.104-.361.36.36 0 0 1 .29-.248l5.59-.875 2.52-4.758a.366.366 0 0 1 .324-.192c.137 0 .262.074.324.192l2.521 4.758 5.588.875a.36.36 0 0 1 .29.248c.04.13 0 .27-.104.361z" fill="#dbe1e4"/><path d="m127.719 15.1-2.796-1.4-5 2.5a.374.374 0 0 1 -.386-.031.348.348 0 0 1 -.138-.351l1.163-5.697-4.24-3.687a.346.346 0 0 1 -.104-.361.36.36 0 0 1 .29-.248l5.59-.875 2.52-4.758a.366.366 0 0 1 .324-.192c.137 0 .262.074.324.192l2.453 4.629v10.278z" fill="#000" opacity=".5"/></g></svg>