<svg xmlns="http://www.w3.org/2000/svg" width="49" height="48" fill="none" viewBox="0 0 49 48"><path fill="#fff" d="M22.992 32.43h2.662v-7.26h6.696v-2.582h-6.696v-7.26h-2.662v7.26h-6.616v2.582h6.616v7.26zM10.649 42.918h2.259v-6.454h5.97v-2.017h-5.97v-6.534h-2.26v6.534H4.68v2.017h5.97v6.454zM35.738 19.603h2.259V13.15h6.05v-1.936h-6.05V4.68h-2.26v6.534h-5.969v1.937h5.97v6.453zM23.395 48h1.936v-4.598h4.114v-1.694h-4.114v-4.599h-1.936v4.599H19.36v1.694h4.034V48zM10.73 19.603h2.097V13.07h6.05v-1.856h-6.05V4.68h-2.098v6.534H4.68v1.856h6.05v6.534zM42.595 29.284h1.936v-4.518h4.114v-1.774h-4.114v-4.518h-1.936v4.517h-4.034v1.775h4.034v4.518z"/><path fill="#fff" fill-rule="evenodd" d="M35.738 42.918h2.259v-6.454h6.05v-2.017h-6.05v-6.534h-2.26v6.534h-5.969v2.017h5.97v6.454z" clip-rule="evenodd"/><path fill="#fff" d="M29.123 5.808V4.437h-4.034V0h-1.452v4.437h-4.034v1.371h4.034v4.437h1.452V5.808h4.034zM4.033 28.961h1.453v-4.437h4.033v-1.371H5.486v-4.356H4.034v4.356H0v1.452l4.034-.08v4.436z"/></svg>