<svg xmlns="http://www.w3.org/2000/svg" width="30" height="22" fill="none"><path fill="#000" d="M25.5 9.5a3.73 3.73 0 003.75-3.75A3.761 3.761 0 0025.5 2a3.731 3.731 0 00-3.75 3.75c0 2.11 1.64 3.75 3.75 3.75zm0-6c1.219 0 2.25 1.031 2.25 2.25A2.25 2.25 0 0125.5 8a2.22 2.22 0 01-2.25-2.25A2.25 2.25 0 0125.5 3.5zM15 11c2.86 0 5.25-2.344 5.25-5.25C20.25 2.89 17.86.5 15 .5c-2.906 0-5.25 2.39-5.25 5.25A5.242 5.242 0 0015 11zm0-9a3.761 3.761 0 013.75 3.75c0 2.11-1.688 3.75-3.75 3.75-2.11 0-3.75-1.64-3.75-3.75A3.73 3.73 0 0115 2zm11.438 9h-1.875c-.75 0-1.407.234-1.97.61.47.328.845.656 1.22 1.078.234-.094.468-.188.75-.188h1.875c1.125 0 2.062 1.031 2.062 2.25 0 .422.328.75.75.75.375 0 .75-.328.75-.75 0-2.063-1.64-3.75-3.563-3.75zM4.5 9.5a3.73 3.73 0 003.75-3.75A3.761 3.761 0 004.5 2 3.731 3.731 0 00.75 5.75C.75 7.86 2.39 9.5 4.5 9.5zm0-6c1.219 0 2.25 1.031 2.25 2.25A2.25 2.25 0 014.5 8a2.22 2.22 0 01-2.25-2.25A2.25 2.25 0 014.5 3.5zm14.25 8.438c-1.594 0-1.969.562-3.75.562-1.828 0-2.203-.563-3.797-.563-1.687 0-3.328.797-4.312 2.204A5.65 5.65 0 006 17.187v2.063a2.22 2.22 0 002.25 2.25h13.5A2.25 2.25 0 0024 19.25v-2.063c0-1.125-.375-2.156-.938-3.046-.984-1.407-2.625-2.204-4.312-2.204zm3.75 7.312c0 .422-.375.75-.75.75H8.25a.74.74 0 01-.75-.75v-2.063c0-.796.188-1.546.656-2.203.61-.937 1.781-1.546 3.047-1.546 1.313 0 1.781.562 3.797.562s2.438-.563 3.75-.563c1.266 0 2.438.61 3.047 1.547.469.657.656 1.407.656 2.204v2.062h.047zM7.36 11.61c-.563-.376-1.22-.61-1.923-.61H3.563C1.595 11 0 12.688 0 14.75c0 .422.328.75.75.75.375 0 .75-.328.75-.75 0-1.219.89-2.25 2.063-2.25h1.874c.235 0 .47.094.704.188.375-.422.75-.75 1.218-1.079z"/></svg>